{"glyphs":{"0":{"ha":872,"x_min":60,"x_max":813,"o":"m 60 485 q 60 599 60 485 q 156 849 60 714 q 435 983 253 983 q 715 849 618 983 q 813 485 813 714 q 715 121 813 256 q 435 -14 618 -14 q 156 121 253 -14 q 60 485 60 256 m 251 204 q 283 153 251 204 q 436 103 315 103 q 622 204 557 103 q 686 484 686 306 q 622 764 686 663 q 436 865 557 865 q 251 764 315 865 q 186 484 186 663 q 251 204 186 306 z "},"1":{"ha":872,"x_min":194,"x_max":728,"o":"m 538 118 l 728 118 l 728 0 l 194 0 l 194 118 l 411 118 l 411 821 l 406 821 l 204 721 l 204 856 l 421 969 l 538 969 l 538 118 z "},"2":{"ha":872,"x_min":90,"x_max":768,"o":"m 768 701 q 733 570 768 633 q 642 460 697 507 q 521 366 588 414 q 394 282 454 318 q 218 124 250 194 l 218 118 l 754 118 l 754 0 l 90 0 l 90 72 q 131 203 90 140 q 234 313 172 267 q 368 407 296 358 q 502 496 440 456 q 605 588 564 536 q 646 692 646 639 q 426 864 646 864 q 132 781 258 864 l 125 781 l 125 904 q 449 983 274 983 q 676 905 585 983 q 768 701 768 826 z "},"3":{"ha":872,"x_min":101,"x_max":768,"o":"m 568 501 q 768 254 768 451 q 667 56 768 126 q 403 -14 567 -14 q 101 49 240 -14 l 101 172 l 108 172 q 385 107 231 107 q 619 186 564 107 q 642 261 642 218 q 335 436 642 436 l 263 436 l 263 553 l 318 553 q 532 595 457 553 q 607 721 607 638 q 551 826 607 788 q 388 865 496 865 q 117 789 232 865 l 111 789 l 111 906 q 404 983 250 983 q 646 918 558 983 q 733 733 733 853 q 568 503 733 564 l 568 501 z "},"4":{"ha":872,"x_min":40,"x_max":821,"o":"m 665 357 l 821 357 l 821 244 l 665 244 l 665 0 l 539 0 l 539 244 l 40 244 l 40 364 l 514 969 l 665 969 l 665 357 m 539 357 l 539 824 l 536 824 l 178 360 l 178 357 l 539 357 z "},"5":{"ha":872,"x_min":94,"x_max":793,"o":"m 242 560 q 483 614 343 614 q 708 527 622 614 q 793 300 793 440 q 697 73 793 160 q 418 -14 601 -14 q 103 76 235 -14 l 103 211 l 108 211 q 396 111 235 111 q 597 156 528 111 q 667 297 667 200 q 609 443 667 393 q 451 493 551 493 q 204 413 300 493 l 94 461 l 174 969 l 735 969 l 735 851 l 279 851 l 238 560 l 242 560 z "},"6":{"ha":872,"x_min":82,"x_max":806,"o":"m 488 628 q 718 539 631 628 q 806 308 806 450 q 712 76 806 167 q 463 -14 618 -14 q 82 483 82 -14 q 168 814 82 665 q 294 937 213 890 q 501 983 376 983 q 746 915 625 983 l 746 788 l 739 788 q 494 861 625 861 q 350 825 410 861 q 261 729 290 789 q 203 507 208 621 l 206 507 q 488 628 300 628 m 464 104 q 619 163 560 104 q 679 310 679 221 q 626 456 679 399 q 472 513 574 513 q 210 360 292 513 q 464 104 247 104 z "},"7":{"ha":872,"x_min":90,"x_max":782,"o":"m 90 969 l 782 969 l 782 857 l 365 0 l 221 0 l 642 843 l 642 849 l 90 849 l 90 969 z "},"8":{"ha":872,"x_min":65,"x_max":807,"o":"m 436 983 q 519 983 436 983 q 681 906 601 983 q 761 739 761 828 q 716 597 761 650 q 600 519 671 543 l 600 518 q 807 257 807 449 q 725 75 807 157 q 610 10 685 35 q 436 -14 535 -14 q 263 10 338 -14 q 147 75 188 35 q 65 257 65 157 q 272 518 65 449 l 272 519 q 156 597 201 543 q 111 739 111 650 q 191 906 111 828 q 436 983 271 983 m 251 153 q 281 125 251 153 q 436 97 311 97 q 621 153 561 97 q 681 271 681 210 q 610 409 681 360 q 436 458 539 458 q 263 409 333 458 q 192 271 192 360 q 251 153 192 210 m 436 872 q 388 872 436 872 q 288 830 339 872 q 238 726 238 788 q 285 618 238 664 q 436 572 333 572 q 587 618 539 572 q 635 726 635 664 q 584 830 635 788 q 436 872 533 872 z "},"9":{"ha":872,"x_min":67,"x_max":790,"o":"m 385 342 q 154 431 242 342 q 67 661 67 519 q 160 893 67 803 q 410 983 254 983 q 790 486 790 983 q 704 156 790 304 q 578 33 660 79 q 372 -14 496 -14 q 126 54 247 -14 l 126 182 l 133 182 q 378 108 247 108 q 522 144 463 108 q 611 240 582 181 q 669 463 664 349 l 667 463 q 385 342 572 342 m 408 865 q 253 807 313 865 q 193 660 193 749 q 246 514 193 571 q 400 457 299 457 q 663 610 581 457 q 408 865 625 865 z "}," ":{"ha":361,"x_min":0,"x_max":0,"o":""},"!":{"ha":390,"x_min":117,"x_max":272,"o":"m 117 0 l 117 156 l 272 156 l 272 0 l 117 0 m 124 969 l 267 969 l 267 767 l 239 268 l 150 268 l 124 767 l 124 969 z "},"\"":{"ha":571,"x_min":76,"x_max":494,"o":"m 76 1028 l 233 1028 l 190 689 l 118 689 l 76 1028 m 338 1028 l 494 1028 l 453 689 l 381 689 l 338 1028 z "},"#":{"ha":850,"x_min":64,"x_max":785,"o":"m 585 910 l 683 910 l 643 658 l 785 658 l 785 561 l 628 561 l 594 350 l 736 350 l 736 253 l 579 253 l 539 0 l 440 0 l 481 253 l 304 253 l 264 0 l 165 0 l 206 253 l 64 253 l 64 350 l 221 350 l 254 561 l 113 561 l 113 658 l 269 658 l 310 910 l 408 910 l 368 658 l 544 658 l 585 910 m 496 350 l 529 561 l 353 561 l 319 350 l 496 350 z "},"$":{"ha":850,"x_min":75,"x_max":790,"o":"m 790 257 q 701 69 790 144 q 464 -14 613 -6 l 464 -146 l 401 -146 l 401 -14 q 86 61 229 -7 l 86 185 l 93 185 q 401 104 228 110 l 401 422 q 143 535 210 471 q 95 603 115 561 q 75 699 75 646 q 161 894 75 814 q 401 982 247 974 l 401 1115 l 464 1115 l 464 983 q 719 933 603 978 l 719 815 l 710 815 q 464 868 589 864 l 464 538 q 584 504 539 519 q 683 458 629 489 q 790 257 790 396 m 401 865 q 256 816 311 857 q 200 710 200 775 q 251 611 200 644 q 401 553 303 578 l 401 865 m 464 106 q 665 265 665 119 q 615 351 665 321 q 464 407 564 381 l 464 106 z "},"%":{"ha":1131,"x_min":60,"x_max":1071,"o":"m 818 974 l 926 974 l 314 -6 l 206 -6 l 818 974 m 118 923 q 147 958 118 923 q 283 993 176 993 q 449 923 390 993 q 507 744 507 853 q 449 566 507 636 q 283 496 390 496 q 118 566 176 496 q 60 744 60 636 q 118 923 60 853 m 190 631 q 207 608 190 631 q 283 586 224 586 q 376 631 343 586 q 410 744 410 675 q 376 858 410 814 q 283 903 343 903 q 190 858 224 903 q 157 744 157 814 q 190 631 157 675 m 682 402 q 711 437 682 402 q 847 472 740 472 q 1013 402 954 472 q 1071 224 1071 332 q 1013 45 1071 115 q 847 -25 954 -25 q 682 45 740 -25 q 624 224 624 115 q 682 402 624 332 m 754 110 q 771 88 754 110 q 847 65 788 65 q 940 110 907 65 q 974 224 974 154 q 940 338 974 293 q 847 382 907 382 q 754 338 788 382 q 721 224 721 293 q 754 110 721 154 z "},"&":{"ha":1017,"x_min":99,"x_max":986,"o":"m 804 176 l 986 4 l 986 0 l 824 0 l 726 92 l 721 92 q 433 -14 597 -14 q 183 71 268 -14 q 99 261 99 156 q 147 433 99 367 q 254 536 196 499 l 254 540 q 192 635 213 590 q 171 740 171 679 q 242 913 171 842 q 421 983 313 983 q 626 915 529 983 l 626 796 l 624 796 q 436 875 539 875 q 327 837 367 875 q 288 744 288 799 q 315 650 288 689 q 426 532 342 611 l 714 261 l 718 261 q 771 361 750 310 l 896 361 q 804 183 857 254 l 804 176 m 639 168 l 639 174 l 335 458 l 328 458 q 218 268 218 385 q 278 142 218 192 q 428 93 339 93 q 639 168 547 93 z "},"'":{"ha":331,"x_min":101,"x_max":257,"o":"m 101 1028 l 257 1028 l 257 872 q 101 646 257 711 l 101 736 q 178 872 178 778 l 101 872 l 101 1028 z "},"(":{"ha":433,"x_min":71,"x_max":400,"o":"m 400 1056 l 400 1051 q 197 427 197 782 q 400 -197 197 72 l 400 -201 l 269 -201 q 71 427 71 72 q 269 1056 71 782 l 400 1056 z "},")":{"ha":433,"x_min":35,"x_max":364,"o":"m 35 1051 l 35 1056 l 165 1056 q 364 427 364 782 q 165 -201 364 72 l 35 -201 l 35 -197 q 238 427 238 72 q 35 1051 238 782 z "},"*":{"ha":579,"x_min":79,"x_max":500,"o":"m 453 606 l 308 719 l 336 538 l 243 538 l 269 719 l 126 606 l 79 686 l 250 754 l 79 821 l 126 903 l 269 788 l 243 969 l 336 969 l 308 788 l 453 903 l 500 821 l 329 754 l 500 686 l 453 606 z "},"+":{"ha":781,"x_min":63,"x_max":718,"o":"m 63 426 l 63 533 l 336 533 l 336 808 l 444 808 l 444 533 l 718 533 l 718 426 l 444 426 l 444 151 l 336 151 l 336 426 l 63 426 z "},",":{"ha":361,"x_min":103,"x_max":258,"o":"m 103 156 l 258 156 l 258 0 q 103 -226 258 -161 l 103 -136 q 179 0 179 -94 l 103 0 l 103 156 z "},"-":{"ha":567,"x_min":103,"x_max":464,"o":"m 464 333 l 103 333 l 103 446 l 464 446 l 464 333 z "},".":{"ha":361,"x_min":103,"x_max":258,"o":"m 103 0 l 103 156 l 258 156 l 258 0 l 103 0 z "},"/":{"ha":615,"x_min":50,"x_max":567,"o":"m 447 1043 l 567 1043 l 169 -118 l 50 -118 l 447 1043 z "},":":{"ha":361,"x_min":103,"x_max":258,"o":"m 103 553 l 103 708 l 258 708 l 258 553 l 103 553 m 103 0 l 103 156 l 258 156 l 258 0 l 103 0 z "},";":{"ha":361,"x_min":103,"x_max":258,"o":"m 103 553 l 103 708 l 258 708 l 258 553 l 103 553 m 103 156 l 258 156 l 258 0 q 103 -226 258 -161 l 103 -136 q 179 0 179 -94 l 103 0 l 103 156 z "},"<":{"ha":806,"x_min":57,"x_max":711,"o":"m 711 764 l 711 642 l 201 413 l 201 410 l 711 181 l 711 58 l 57 356 l 57 467 l 711 764 z "},"=":{"ha":989,"x_min":108,"x_max":881,"o":"m 881 561 l 108 561 l 108 669 l 881 669 l 881 561 m 881 250 l 108 250 l 108 358 l 881 358 l 881 250 z "},">":{"ha":806,"x_min":94,"x_max":749,"o":"m 94 642 l 94 764 l 749 467 l 749 356 l 94 58 l 94 181 l 604 410 l 604 413 l 94 642 z "},"?":{"ha":690,"x_min":58,"x_max":628,"o":"m 228 0 l 228 156 l 383 156 l 383 0 l 228 0 m 58 910 q 324 983 190 983 q 542 913 457 983 q 628 721 628 842 q 601 608 628 657 q 535 526 574 558 q 458 464 497 494 q 367 285 367 388 l 367 268 l 244 268 l 244 290 q 271 422 244 364 q 335 515 297 479 q 411 579 374 550 q 503 714 503 649 q 304 865 503 865 q 64 783 189 865 l 58 783 l 58 910 z "},"@":{"ha":1247,"x_min":68,"x_max":1186,"o":"m 657 956 q 1031 819 876 954 q 1186 475 1186 685 q 1078 186 1186 282 q 938 132 1017 132 q 819 163 858 132 q 772 235 781 193 q 543 131 686 131 q 369 199 432 131 q 307 375 307 267 q 406 621 307 529 q 636 713 504 713 q 814 642 740 713 l 825 701 l 929 701 l 872 376 q 863 274 863 299 q 880 223 863 249 q 932 197 897 197 q 1065 272 1018 197 q 1111 475 1111 347 q 1042 698 1111 603 q 872 838 974 793 q 657 882 771 882 q 294 728 447 882 q 140 364 140 575 q 187 170 140 261 q 330 18 233 79 q 556 -43 426 -43 q 892 43 726 -43 l 878 -40 q 556 -115 733 -115 q 204 26 340 -115 q 68 364 68 168 q 148 657 68 521 q 364 874 228 793 q 657 956 500 956 m 776 421 l 799 550 q 643 614 738 614 q 481 554 549 614 q 414 389 414 494 q 458 267 414 308 q 574 226 503 226 q 776 421 743 226 z "},"A":{"ha":968,"x_min":7,"x_max":961,"o":"m 824 0 l 719 249 l 249 249 l 144 0 l 7 0 l 418 969 l 550 969 l 961 0 l 824 0 m 299 371 l 299 364 l 669 364 l 669 371 l 486 814 l 483 814 l 299 371 z "},"B":{"ha":963,"x_min":135,"x_max":890,"o":"m 890 272 q 533 0 890 0 l 135 0 l 135 969 l 525 969 q 755 901 674 969 q 836 718 836 833 q 703 506 836 565 l 703 501 q 890 272 890 442 m 261 118 l 521 118 q 712 160 656 118 q 768 278 768 201 q 522 436 768 436 l 261 436 l 261 118 m 261 550 l 492 550 q 665 592 615 550 q 715 703 715 633 q 662 813 715 774 q 515 851 608 851 l 261 851 l 261 550 z "},"C":{"ha":969,"x_min":78,"x_max":893,"o":"m 886 768 q 571 863 743 863 q 301 757 399 863 q 204 485 204 651 q 301 213 204 318 q 571 107 399 107 q 886 201 743 107 l 893 201 l 893 76 q 564 -14 743 -14 q 215 122 351 -14 q 78 485 78 257 q 215 848 78 713 q 564 983 351 983 q 893 893 743 983 l 893 768 l 886 768 z "},"D":{"ha":1042,"x_min":135,"x_max":967,"o":"m 476 969 q 692 927 596 969 q 847 814 789 885 q 967 485 967 671 q 889 214 967 336 q 654 28 804 79 q 476 0 572 0 l 135 0 l 135 969 l 476 969 m 461 118 q 738 219 633 118 q 842 485 842 321 q 738 750 842 649 q 461 851 633 851 l 261 851 l 261 118 l 461 118 z "},"E":{"ha":886,"x_min":135,"x_max":807,"o":"m 807 851 l 261 851 l 261 544 l 757 544 l 757 426 l 261 426 l 261 118 l 807 118 l 807 0 l 135 0 l 135 969 l 807 969 l 807 851 z "},"F":{"ha":847,"x_min":135,"x_max":790,"o":"m 135 969 l 790 969 l 790 851 l 261 851 l 261 544 l 742 544 l 742 426 l 261 426 l 261 0 l 135 0 l 135 969 z "},"G":{"ha":1033,"x_min":76,"x_max":935,"o":"m 569 532 l 935 532 l 935 93 q 564 -14 756 -14 q 211 125 346 -14 q 76 485 76 264 q 215 844 76 706 q 549 983 354 983 q 919 876 744 983 l 919 746 l 914 746 q 577 861 743 861 q 307 761 411 861 q 203 490 203 661 q 304 212 203 318 q 581 106 406 106 q 824 167 711 106 l 824 418 l 569 418 l 569 532 z "},"H":{"ha":1049,"x_min":135,"x_max":914,"o":"m 788 969 l 914 969 l 914 0 l 788 0 l 788 425 l 261 425 l 261 0 l 135 0 l 135 969 l 261 969 l 261 543 l 788 543 l 788 969 z "},"I":{"ha":396,"x_min":135,"x_max":261,"o":"m 261 969 l 261 0 l 135 0 l 135 969 l 261 969 z "},"J":{"ha":647,"x_min":33,"x_max":518,"o":"m 392 969 l 518 969 l 518 319 q 437 62 518 138 q 241 -14 356 -14 q 33 43 126 -14 l 33 168 l 39 168 q 211 106 124 106 q 345 149 299 106 q 392 311 392 192 l 392 969 z "},"K":{"ha":931,"x_min":135,"x_max":935,"o":"m 503 561 l 935 0 l 781 0 l 422 472 l 415 472 l 261 313 l 261 0 l 135 0 l 135 969 l 261 969 l 261 474 l 265 474 l 733 969 l 899 969 l 503 561 z "},"L":{"ha":800,"x_min":135,"x_max":772,"o":"m 772 126 l 772 0 l 135 0 l 135 969 l 261 969 l 261 126 l 772 126 z "},"M":{"ha":1342,"x_min":135,"x_max":1207,"o":"m 1010 969 l 1207 969 l 1207 0 l 1081 0 l 1081 836 l 1078 836 l 736 0 l 606 0 l 263 836 l 261 836 l 261 0 l 135 0 l 135 969 l 332 969 l 669 140 l 672 140 l 1010 969 z "},"N":{"ha":1115,"x_min":135,"x_max":981,"o":"m 854 969 l 981 969 l 981 0 l 825 0 l 264 799 l 261 799 l 261 0 l 135 0 l 135 969 l 290 969 l 850 172 l 854 172 l 854 969 z "},"O":{"ha":1126,"x_min":76,"x_max":1051,"o":"m 213 844 q 278 914 213 844 q 564 983 344 983 q 915 844 783 983 q 1051 485 1047 706 q 915 125 1047 264 q 564 -14 783 -14 q 213 125 344 -14 q 76 485 81 264 q 213 844 81 706 m 203 485 q 203 402 203 485 q 299 212 203 319 q 563 104 396 104 q 828 212 731 104 q 925 485 925 319 q 828 758 925 650 q 563 865 731 865 q 299 758 396 865 q 203 485 203 650 z "},"P":{"ha":929,"x_min":135,"x_max":885,"o":"m 514 969 q 689 942 614 969 q 805 869 764 915 q 865 772 846 824 q 885 661 885 719 q 865 551 885 603 q 805 453 846 499 q 689 380 764 407 q 514 353 614 353 l 261 353 l 261 0 l 135 0 l 135 969 l 514 969 m 501 472 q 701 526 643 472 q 758 661 758 581 q 701 796 758 742 q 501 850 643 850 l 261 850 l 261 472 l 501 472 z "},"Q":{"ha":1128,"x_min":76,"x_max":1051,"o":"m 767 25 l 767 21 l 956 -190 l 956 -194 l 800 -194 l 647 -8 q 564 -14 613 -14 q 213 125 344 -14 q 76 485 81 264 q 213 844 81 706 q 564 983 344 983 q 915 844 783 983 q 1051 485 1047 706 q 973 201 1049 322 q 767 25 897 79 m 203 485 q 203 402 203 485 q 299 212 203 319 q 563 104 396 104 q 828 212 731 104 q 925 485 925 319 q 828 758 925 650 q 563 865 731 865 q 299 758 396 865 q 203 485 203 650 z "},"R":{"ha":989,"x_min":135,"x_max":907,"o":"m 883 119 l 883 86 q 907 6 883 42 l 907 0 l 776 0 q 757 75 757 32 l 757 97 q 731 272 757 225 q 697 325 718 297 q 549 378 654 378 l 261 378 l 261 0 l 135 0 l 135 969 l 521 969 q 804 892 710 969 q 899 688 899 814 q 853 535 899 603 q 719 438 807 468 l 719 435 q 883 119 883 392 m 513 497 q 702 544 632 497 q 772 676 772 592 q 712 806 772 761 q 506 850 651 850 l 261 850 l 261 497 l 513 497 z "},"S":{"ha":856,"x_min":81,"x_max":796,"o":"m 206 708 q 249 617 206 653 q 358 566 293 581 q 501 530 424 551 q 643 483 578 508 q 752 401 708 458 q 796 257 796 343 q 698 62 796 138 q 425 -14 600 -14 q 92 61 250 -14 l 92 185 l 99 185 q 428 104 243 104 q 671 265 671 104 q 553 382 671 344 q 439 414 501 399 q 313 450 376 429 q 198 499 250 471 q 113 578 146 528 q 81 699 81 629 q 176 901 81 819 q 433 983 271 983 q 725 933 594 983 l 725 815 l 715 815 q 465 868 585 868 q 275 826 344 868 q 206 708 206 783 z "},"T":{"ha":849,"x_min":26,"x_max":822,"o":"m 822 969 l 822 851 l 488 851 l 488 0 l 361 0 l 361 851 l 26 851 l 26 969 l 822 969 z "},"U":{"ha":1053,"x_min":128,"x_max":925,"o":"m 799 969 l 925 969 l 925 364 q 890 195 925 269 q 795 76 854 121 q 667 9 736 32 q 526 -14 599 -14 q 385 9 454 -14 q 258 76 317 32 q 163 195 199 121 q 128 364 128 269 l 128 969 l 254 969 l 254 360 q 335 169 254 238 q 526 101 415 101 q 718 169 638 101 q 799 360 799 238 l 799 969 z "},"V":{"ha":964,"x_min":7,"x_max":957,"o":"m 821 969 l 957 969 l 557 0 l 407 0 l 7 969 l 144 969 l 479 129 l 485 129 l 821 969 z "},"W":{"ha":1399,"x_min":17,"x_max":1382,"o":"m 1250 969 l 1382 969 l 1065 0 l 939 0 l 703 753 l 696 753 l 460 0 l 333 0 l 17 969 l 149 969 l 393 169 l 397 169 l 644 969 l 754 969 l 1001 169 l 1006 169 l 1250 969 z "},"X":{"ha":929,"x_min":21,"x_max":911,"o":"m 536 486 l 911 0 l 754 0 l 464 389 l 457 389 l 171 0 l 21 0 l 393 485 l 21 969 l 179 969 l 464 583 l 471 583 l 754 969 l 907 969 l 536 486 z "},"Y":{"ha":896,"x_min":-10,"x_max":906,"o":"m 751 969 l 906 969 l 511 410 l 511 0 l 385 0 l 385 410 l -10 969 l 144 969 l 444 526 l 451 526 l 751 969 z "},"Z":{"ha":886,"x_min":65,"x_max":815,"o":"m 815 969 l 815 856 l 224 122 l 224 118 l 815 118 l 815 0 l 65 0 l 65 111 l 657 843 l 657 849 l 76 849 l 76 969 l 815 969 z "},"[":{"ha":447,"x_min":121,"x_max":400,"o":"m 400 917 l 231 917 l 231 -85 l 400 -85 l 400 -183 l 121 -183 l 121 1017 l 400 1017 l 400 917 z "},"\\":{"ha":615,"x_min":49,"x_max":565,"o":"m 49 1043 l 168 1043 l 565 -118 l 446 -118 l 49 1043 z "},"]":{"ha":447,"x_min":47,"x_max":326,"o":"m 217 917 l 47 917 l 47 1017 l 326 1017 l 326 -183 l 47 -183 l 47 -85 l 217 -85 l 217 917 z "},"^":{"ha":728,"x_min":90,"x_max":638,"o":"m 525 592 l 364 849 l 361 849 l 201 592 l 90 592 l 294 969 l 433 969 l 638 592 l 525 592 z "},"_":{"ha":921,"x_min":79,"x_max":842,"o":"m 842 -204 l 79 -204 l 79 -112 l 842 -112 l 842 -204 z "},"`":{"ha":342,"x_min":49,"x_max":292,"o":"m 49 988 l 186 988 l 292 803 l 206 803 l 49 988 z "},"a":{"ha":771,"x_min":53,"x_max":667,"o":"m 122 669 q 381 722 243 722 q 593 642 519 722 q 667 449 667 561 l 667 0 l 556 0 l 540 89 l 536 89 q 279 -14 436 -14 q 119 43 185 -14 q 53 199 53 100 q 134 358 53 297 q 372 419 215 419 l 540 419 l 540 431 q 495 563 540 522 q 339 603 450 603 q 131 556 228 603 l 122 556 l 122 669 m 540 201 l 540 318 l 389 318 q 179 208 179 318 q 326 97 179 97 q 444 127 388 97 q 540 201 501 157 z "},"b":{"ha":876,"x_min":110,"x_max":810,"o":"m 240 619 q 474 722 339 722 q 709 622 608 722 q 810 354 810 522 q 709 86 810 186 q 474 -14 608 -14 q 240 89 339 -14 l 236 89 l 221 0 l 110 0 l 110 1014 l 236 1014 l 236 619 l 240 619 m 456 104 q 621 169 558 104 q 683 354 683 235 q 621 539 683 474 q 456 604 558 604 q 236 500 331 604 l 236 208 q 456 104 331 104 z "},"c":{"ha":744,"x_min":64,"x_max":675,"o":"m 669 535 q 447 604 567 604 q 258 535 326 604 q 190 354 190 467 q 258 173 190 242 q 447 104 326 104 q 669 174 567 104 l 675 174 l 675 54 q 435 -14 560 -14 q 172 86 281 -14 q 64 354 64 186 q 172 622 64 522 q 435 722 281 722 q 675 654 560 722 l 675 535 l 669 535 z "},"d":{"ha":876,"x_min":67,"x_max":767,"o":"m 167 622 q 218 672 167 622 q 403 722 268 722 q 636 619 538 722 l 640 619 l 640 1014 l 767 1014 l 767 0 l 656 0 l 640 89 l 636 89 q 403 -14 538 -14 q 167 86 268 -14 q 67 354 67 186 q 167 622 67 522 m 421 104 q 640 208 546 104 l 640 500 q 421 604 546 604 q 256 539 318 604 q 193 354 193 474 q 256 169 193 235 q 421 104 318 104 z "},"e":{"ha":792,"x_min":68,"x_max":732,"o":"m 732 354 l 732 310 l 196 310 q 268 158 207 213 q 453 104 329 104 q 683 174 578 104 l 690 174 l 690 51 q 416 -14 574 -14 q 163 83 258 -14 q 68 344 68 179 q 153 615 68 508 q 400 722 238 722 q 647 615 563 722 q 732 354 732 508 m 196 413 l 606 413 q 538 564 600 513 q 400 615 476 615 q 263 564 324 615 q 196 413 201 513 z "},"f":{"ha":528,"x_min":33,"x_max":506,"o":"m 496 889 q 395 907 444 907 q 317 881 346 907 q 289 785 289 854 l 289 708 l 506 708 l 506 600 l 289 600 l 289 0 l 163 0 l 163 600 l 33 600 l 33 708 l 163 708 l 163 789 q 224 969 163 910 q 365 1028 286 1028 q 506 993 443 1028 l 506 889 l 496 889 z "},"g":{"ha":876,"x_min":67,"x_max":767,"o":"m 656 708 l 767 708 l 767 31 q 682 -239 767 -144 q 437 -333 597 -333 q 144 -262 276 -333 l 144 -137 l 151 -137 q 428 -214 269 -214 q 640 13 640 -214 l 640 103 l 636 103 q 407 0 540 0 q 170 95 274 0 q 67 361 67 190 q 170 627 67 532 q 407 722 274 722 q 636 619 540 722 l 640 619 l 656 708 m 640 218 l 640 504 q 433 607 540 607 q 259 544 325 607 q 193 361 193 481 q 259 178 193 242 q 433 115 325 115 q 640 218 540 115 z "},"h":{"ha":846,"x_min":110,"x_max":743,"o":"m 494 722 q 676 644 610 722 q 743 450 743 567 l 743 0 l 617 0 l 617 436 q 464 606 617 606 q 236 472 343 606 l 236 0 l 110 0 l 110 1014 l 236 1014 l 236 599 l 240 599 q 494 722 353 722 z "},"i":{"ha":357,"x_min":111,"x_max":247,"o":"m 115 0 l 115 708 l 242 708 l 242 0 l 115 0 m 247 994 l 247 858 l 111 858 l 111 994 l 247 994 z "},"j":{"ha":357,"x_min":-44,"x_max":247,"o":"m 111 994 l 247 994 l 247 858 l 111 858 l 111 994 m 115 -140 l 115 708 l 242 708 l 242 -143 q 198 -281 242 -229 q 60 -333 154 -333 q -44 -315 0 -333 l -44 -211 l -33 -211 q 37 -222 0 -222 q 94 -207 74 -222 q 115 -140 115 -192 z "},"k":{"ha":758,"x_min":110,"x_max":749,"o":"m 429 424 l 749 0 l 593 0 l 343 335 l 339 335 l 236 232 l 236 0 l 110 0 l 110 1014 l 236 1014 l 236 393 l 240 393 l 547 708 l 717 708 l 429 424 z "},"l":{"ha":368,"x_min":121,"x_max":247,"o":"m 247 1014 l 247 0 l 121 0 l 121 1014 l 247 1014 z "},"m":{"ha":1276,"x_min":110,"x_max":1172,"o":"m 940 722 q 1113 642 1054 722 q 1172 456 1172 561 l 1172 0 l 1046 0 l 1046 431 q 1013 563 1046 521 q 904 606 981 606 q 704 472 785 606 l 704 0 l 578 0 l 578 431 q 546 563 578 521 q 436 606 514 606 q 236 472 317 606 l 236 0 l 110 0 l 110 708 l 221 708 l 236 619 l 236 599 l 239 599 q 472 722 328 722 q 605 682 550 722 q 683 582 660 642 l 688 582 q 940 722 772 722 z "},"n":{"ha":846,"x_min":110,"x_max":743,"o":"m 494 722 q 676 644 610 722 q 743 450 743 567 l 743 0 l 617 0 l 617 436 q 464 606 617 606 q 236 472 343 606 l 236 0 l 110 0 l 110 708 l 221 708 l 236 619 l 236 599 l 239 599 q 494 722 351 722 z "},"o":{"ha":844,"x_min":67,"x_max":778,"o":"m 67 354 q 67 437 67 354 q 164 621 67 519 q 422 722 261 722 q 680 621 582 722 q 778 354 778 519 q 680 88 778 189 q 422 -14 582 -14 q 164 88 261 -14 q 67 354 67 189 m 262 165 q 296 133 262 165 q 422 101 331 101 q 583 165 514 101 q 651 355 651 228 q 583 544 651 482 q 422 607 514 607 q 262 544 331 607 q 193 355 193 482 q 262 165 193 228 z "},"p":{"ha":876,"x_min":110,"x_max":810,"o":"m 709 86 q 659 36 709 86 q 474 -14 608 -14 q 240 89 339 -14 l 236 89 l 236 -319 l 110 -319 l 110 708 l 221 708 l 236 619 l 240 619 q 474 722 339 722 q 709 622 608 722 q 810 354 810 522 q 709 86 810 186 m 456 604 q 236 500 331 604 l 236 208 q 456 104 331 104 q 621 169 558 104 q 683 354 683 235 q 621 539 683 474 q 456 604 558 604 z "},"q":{"ha":876,"x_min":67,"x_max":767,"o":"m 636 89 q 403 -14 538 -14 q 167 86 268 -14 q 67 354 67 186 q 167 622 67 522 q 403 722 268 722 q 636 619 538 722 l 640 619 l 656 708 l 767 708 l 767 -319 l 640 -319 l 640 89 l 636 89 m 421 604 q 256 539 318 604 q 193 354 193 474 q 256 169 193 235 q 421 104 318 104 q 640 208 546 104 l 640 500 q 421 604 546 604 z "},"r":{"ha":538,"x_min":110,"x_max":511,"o":"m 500 722 l 511 722 l 511 601 l 500 601 q 347 569 418 601 q 236 481 276 538 l 236 0 l 110 0 l 110 708 l 221 708 l 236 619 l 236 599 l 239 599 q 500 722 339 722 z "},"s":{"ha":667,"x_min":72,"x_max":611,"o":"m 367 607 q 322 607 367 607 q 235 580 278 607 q 193 512 193 553 q 236 449 193 471 q 341 413 279 426 q 464 381 403 400 q 568 314 525 361 q 611 185 611 267 q 541 44 611 103 q 333 -14 471 -14 q 81 49 194 -14 l 81 169 l 88 169 q 335 103 200 103 q 489 201 489 103 q 446 253 489 233 q 342 288 403 274 q 219 321 281 301 q 115 386 158 340 q 72 503 72 432 q 142 661 72 600 q 333 722 213 722 q 558 683 454 722 l 558 568 l 549 568 q 367 607 456 607 z "},"t":{"ha":533,"x_min":24,"x_max":483,"o":"m 483 600 l 282 600 l 282 181 q 314 108 282 122 q 382 97 340 97 q 474 119 424 97 l 483 119 l 483 17 q 358 -14 425 -14 q 156 169 156 -14 l 156 600 l 24 600 l 24 608 l 282 861 l 282 708 l 483 708 l 483 600 z "},"u":{"ha":847,"x_min":104,"x_max":738,"o":"m 353 -14 q 171 64 238 -14 q 104 258 104 142 l 104 708 l 231 708 l 231 272 q 383 103 231 103 q 611 236 504 103 l 611 708 l 738 708 l 738 0 l 626 0 l 611 89 l 611 110 l 608 110 q 353 -14 496 -14 z "},"v":{"ha":736,"x_min":8,"x_max":728,"o":"m 590 708 l 728 708 l 431 0 l 306 0 l 8 708 l 146 708 l 365 150 l 371 150 l 590 708 z "},"w":{"ha":1090,"x_min":15,"x_max":1075,"o":"m 942 708 l 1075 708 l 832 0 l 708 0 l 547 507 l 543 507 l 382 0 l 258 0 l 15 708 l 149 708 l 317 153 l 321 153 l 493 708 l 597 708 l 769 153 l 774 153 l 942 708 z "},"x":{"ha":753,"x_min":29,"x_max":724,"o":"m 724 708 l 450 358 l 724 0 l 565 0 l 375 251 l 368 251 l 188 0 l 29 0 l 301 350 l 29 708 l 188 708 l 375 456 l 382 456 l 565 708 l 724 708 z "},"y":{"ha":740,"x_min":7,"x_max":735,"o":"m 735 708 l 308 -319 l 181 -319 l 300 -11 l 7 708 l 143 708 l 365 149 l 371 149 l 599 708 l 735 708 z "},"z":{"ha":693,"x_min":64,"x_max":622,"o":"m 622 708 l 622 590 l 221 122 l 221 118 l 622 118 l 622 0 l 64 0 l 64 117 l 471 585 l 471 590 l 76 590 l 76 708 l 622 708 z "},"{":{"ha":478,"x_min":19,"x_max":432,"o":"m 288 590 q 163 426 288 472 l 163 425 q 288 263 288 379 l 288 -46 q 291 -73 288 -62 q 314 -94 294 -83 q 369 -104 333 -104 l 432 -104 l 432 -201 l 374 -201 q 230 -165 281 -201 q 179 -35 179 -129 l 179 258 q 176 297 179 282 q 158 329 172 311 q 19 375 129 364 l 19 478 q 158 524 129 489 q 176 556 172 542 q 179 594 179 571 l 179 888 q 230 1018 179 982 q 374 1054 281 1054 l 432 1054 l 432 957 l 369 957 q 314 947 333 957 q 291 926 294 936 q 288 899 288 915 l 288 590 z "},"|":{"ha":351,"x_min":119,"x_max":232,"o":"m 232 1022 l 232 -265 l 119 -265 l 119 1022 l 232 1022 z "},"}":{"ha":478,"x_min":46,"x_max":458,"o":"m 190 590 l 190 899 q 187 926 190 915 q 164 947 183 936 q 108 957 144 957 l 46 957 l 46 1054 l 104 1054 q 248 1018 197 1054 q 299 888 299 982 l 299 594 q 302 556 299 571 q 319 524 306 542 q 458 478 349 489 l 458 375 q 319 329 349 364 q 302 297 306 311 q 299 258 299 282 l 299 -35 q 248 -165 299 -129 q 104 -201 197 -201 l 46 -201 l 46 -104 l 108 -104 q 164 -94 144 -104 q 187 -73 183 -83 q 190 -46 190 -62 l 190 263 q 315 425 190 379 l 315 426 q 190 590 190 472 z "},"~":{"ha":886,"x_min":99,"x_max":793,"o":"m 724 499 l 793 499 q 732 340 781 394 q 616 286 683 286 q 485 313 549 286 q 366 365 421 339 q 269 392 311 392 q 168 299 188 392 l 99 299 q 159 456 110 401 q 276 510 208 510 q 407 483 343 510 q 526 431 471 457 q 622 404 582 404 q 724 499 704 404 z "}," ":{"ha":361,"x_min":0,"x_max":0,"o":""},"¡":{"ha":360,"x_min":101,"x_max":257,"o":"m 101 708 l 257 708 l 257 553 l 101 553 l 101 708 m 108 -261 l 108 -58 l 135 440 l 224 440 l 251 -58 l 251 -261 l 108 -261 z "},"¢":{"ha":765,"x_min":61,"x_max":672,"o":"m 667 535 q 543 590 604 575 l 379 110 q 443 104 406 104 q 667 174 564 104 l 672 174 l 672 54 q 432 -14 557 -14 q 340 -4 381 -14 l 285 -164 l 203 -164 l 267 21 q 117 150 174 64 q 61 354 61 236 q 169 622 61 522 q 432 722 278 722 q 504 717 460 722 l 551 854 l 633 854 l 581 697 q 672 654 622 683 l 672 535 l 667 535 m 465 603 l 443 604 q 256 535 324 604 q 188 354 188 467 q 306 135 188 199 l 465 603 z "},"£":{"ha":839,"x_min":61,"x_max":767,"o":"m 310 164 l 344 165 q 485 137 400 165 q 631 108 569 108 q 761 154 693 108 l 767 154 l 767 31 q 615 -14 683 -14 q 468 17 547 -14 q 329 49 389 49 q 158 -14 233 49 l 82 50 q 243 354 243 196 q 235 426 243 392 l 61 426 l 61 489 l 218 489 q 208 519 215 497 l 197 553 q 174 697 174 631 q 266 907 174 831 q 496 983 358 983 q 739 931 633 983 l 739 806 l 732 806 q 516 861 633 861 q 349 815 399 861 q 300 703 300 769 q 322 574 300 644 q 349 489 344 503 l 619 489 l 619 426 l 363 426 q 368 363 368 399 q 310 164 368 256 z "},"¤":{"ha":928,"x_min":97,"x_max":831,"o":"m 731 679 q 793 485 793 590 q 731 292 793 379 l 831 190 l 758 118 l 657 219 q 464 156 571 156 q 271 219 357 156 l 169 118 l 97 190 l 197 292 q 135 485 135 379 q 197 679 135 590 l 97 779 l 169 851 l 271 751 q 464 814 358 814 q 657 751 569 814 l 758 851 l 831 779 l 731 679 m 310 333 q 342 301 310 333 q 464 269 374 269 q 617 333 554 269 q 681 485 681 396 q 617 638 681 575 q 464 701 553 701 q 311 638 375 701 q 247 485 247 575 q 310 333 247 396 z "},"¥":{"ha":914,"x_min":51,"x_max":863,"o":"m 863 969 l 579 507 l 758 507 l 758 403 l 519 403 l 519 276 l 758 276 l 758 172 l 519 172 l 519 0 l 394 0 l 394 172 l 154 172 l 154 276 l 394 276 l 394 403 l 154 403 l 154 507 l 335 507 l 51 969 l 206 969 l 457 529 l 708 969 l 863 969 z "},"§":{"ha":735,"x_min":79,"x_max":665,"o":"m 246 769 q 356 671 246 710 q 556 583 474 628 q 634 511 603 557 q 665 406 665 465 q 528 229 665 274 q 618 71 618 168 q 548 -85 618 -26 q 340 -143 478 -143 q 88 -81 201 -143 l 88 40 l 94 40 q 342 -26 207 -26 q 499 71 499 -26 q 456 136 499 108 q 351 185 413 164 q 227 235 289 207 q 122 313 165 263 q 79 435 79 364 q 215 610 79 564 q 126 771 126 675 q 197 925 126 867 q 391 983 267 983 q 618 939 515 983 l 618 821 l 608 821 q 403 867 514 867 q 246 769 246 867 m 444 275 q 549 397 549 300 q 493 483 549 451 q 385 532 446 510 q 299 565 324 554 q 196 443 196 540 q 251 357 196 389 q 355 310 289 335 q 444 275 421 285 z "},"¨":{"ha":556,"x_min":92,"x_max":458,"o":"m 92 803 l 92 936 l 225 936 l 225 803 l 92 803 m 325 803 l 325 936 l 458 936 l 458 803 l 325 803 z "},"©":{"ha":1138,"x_min":71,"x_max":1068,"o":"m 217 838 q 291 910 217 838 q 569 983 364 983 q 922 838 775 983 q 1068 485 1068 692 q 922 132 1068 278 q 569 -14 775 -14 q 217 132 364 -14 q 71 485 71 278 q 217 838 71 692 m 143 485 q 143 398 143 485 q 268 184 143 310 q 569 58 393 58 q 870 183 744 58 q 996 485 996 308 q 870 786 996 661 q 569 911 744 911 q 268 786 393 911 q 143 485 143 661 m 578 286 q 736 393 693 286 l 829 393 q 739 253 806 304 q 578 201 672 201 q 384 279 458 201 q 310 485 310 357 q 384 690 310 613 q 566 768 458 768 q 740 717 674 768 q 829 576 806 667 l 736 576 q 578 683 693 683 q 449 626 494 683 q 403 485 403 569 q 449 343 403 400 q 578 286 494 286 z "},"ª":{"ha":674,"x_min":100,"x_max":554,"o":"m 274 471 q 160 511 207 471 q 113 621 113 551 q 169 729 113 690 q 336 768 225 768 l 442 768 l 442 771 q 413 861 442 833 q 316 889 383 889 q 164 853 249 889 l 158 853 l 158 944 q 345 983 251 983 q 490 926 439 983 q 542 790 542 869 l 542 481 l 451 481 l 442 536 l 439 536 q 274 471 382 471 m 347 693 q 213 627 213 693 q 306 561 213 561 q 442 626 382 561 l 442 693 l 347 693 m 100 396 l 554 396 l 554 318 l 100 318 l 100 396 z "},"«":{"ha":813,"x_min":51,"x_max":743,"o":"m 454 665 l 186 354 l 454 44 l 310 44 l 51 354 l 310 665 l 454 665 m 475 354 l 743 44 l 599 44 l 340 354 l 599 665 l 743 665 l 475 354 z "},"¬":{"ha":804,"x_min":108,"x_max":689,"o":"m 108 432 l 108 532 l 689 532 l 689 240 l 585 240 l 585 432 l 108 432 z "},"®":{"ha":1138,"x_min":71,"x_max":1068,"o":"m 217 838 q 291 910 217 838 q 569 983 364 983 q 922 838 775 983 q 1068 485 1068 692 q 922 132 1068 278 q 569 -14 775 -14 q 217 132 364 -14 q 71 485 71 278 q 217 838 71 692 m 143 485 q 143 398 143 485 q 268 184 143 310 q 569 58 393 58 q 870 183 744 58 q 996 485 996 308 q 870 786 996 661 q 569 911 744 911 q 268 786 393 911 q 143 485 143 661 m 796 267 q 813 214 796 243 l 813 208 l 719 208 q 701 263 701 235 l 701 274 q 681 381 701 351 q 600 415 654 415 l 456 415 l 456 208 l 363 208 l 363 761 l 585 761 q 749 715 694 761 q 803 594 803 669 q 701 461 803 500 l 701 460 q 768 403 740 446 q 796 286 796 361 l 796 267 m 581 497 q 676 522 640 497 q 711 592 711 546 q 578 681 711 681 l 456 681 l 456 497 l 581 497 z "},"¯":{"ha":433,"x_min":18,"x_max":413,"o":"m 413 900 l 413 817 l 18 817 l 18 900 l 413 900 z "},"°":{"ha":525,"x_min":72,"x_max":453,"o":"m 72 794 q 72 833 72 794 q 128 928 72 872 q 263 983 185 983 q 397 928 342 983 q 453 794 453 872 q 397 659 453 715 q 263 603 342 603 q 128 659 185 603 q 72 794 72 715 m 179 710 q 197 692 179 710 q 263 675 214 675 q 346 710 311 675 q 381 793 381 744 q 346 876 381 842 q 263 911 311 911 q 179 876 214 911 q 144 793 144 842 q 179 710 144 744 z "},"±":{"ha":842,"x_min":93,"x_max":749,"o":"m 93 0 l 93 107 l 749 107 l 749 0 l 93 0 m 93 475 l 93 582 l 367 582 l 367 849 l 475 849 l 475 582 l 749 582 l 749 475 l 475 475 l 475 208 l 367 208 l 367 475 l 93 475 z "},"²":{"ha":514,"x_min":60,"x_max":449,"o":"m 253 1181 q 299 1181 253 1181 q 397 1134 344 1181 q 449 1026 449 1088 q 410 915 449 965 q 322 835 371 865 q 158 713 179 743 l 158 708 l 440 708 l 440 626 l 60 626 l 60 681 q 107 784 60 735 q 211 864 154 833 q 361 1013 361 949 q 255 1096 361 1096 q 85 1042 149 1096 l 79 1042 l 79 1132 q 253 1181 163 1181 z "},"³":{"ha":514,"x_min":67,"x_max":447,"o":"m 428 1033 q 344 910 428 943 l 344 907 q 447 774 447 875 q 398 663 447 707 q 247 618 349 618 q 67 657 144 618 l 67 743 l 74 743 q 232 704 144 704 q 360 776 360 704 q 204 863 360 863 l 154 863 l 154 946 l 194 946 q 342 1026 342 946 q 233 1096 342 1096 q 79 1050 146 1096 l 72 1050 l 72 1133 q 244 1181 154 1181 q 381 1140 335 1181 q 428 1033 428 1099 z "},"´":{"ha":333,"x_min":49,"x_max":292,"o":"m 154 988 l 292 988 l 135 803 l 49 803 l 154 988 z "},"µ":{"ha":839,"x_min":117,"x_max":750,"o":"m 117 -296 l 117 708 l 243 708 l 243 272 q 396 103 243 103 q 624 236 517 103 l 624 708 l 750 708 l 750 0 l 639 0 l 624 89 l 624 110 l 621 110 q 513 18 567 50 q 381 -14 458 -14 q 247 22 304 -14 l 243 22 l 243 -296 l 117 -296 z "},"¶":{"ha":1017,"x_min":54,"x_max":949,"o":"m 949 969 l 949 860 l 836 860 l 836 -304 l 726 -304 l 726 860 l 571 860 l 571 -304 l 461 -304 l 461 256 l 411 256 q 159 360 264 256 q 54 613 54 464 q 159 865 54 761 q 411 969 264 969 l 949 969 z "},"·":{"ha":361,"x_min":103,"x_max":258,"o":"m 103 318 l 103 474 l 258 474 l 258 318 l 103 318 z "},"¸":{"ha":426,"x_min":67,"x_max":357,"o":"m 203 -87 q 261 -82 225 -82 q 327 -109 297 -82 q 357 -179 357 -136 q 203 -307 357 -307 q 67 -264 131 -307 l 89 -215 q 185 -247 140 -247 q 264 -183 264 -247 q 250 -151 264 -162 q 209 -140 236 -140 q 150 -157 182 -140 l 110 -135 l 208 24 l 267 24 l 203 -87 z "},"¹":{"ha":514,"x_min":117,"x_max":426,"o":"m 322 708 l 426 708 l 426 626 l 117 626 l 117 708 l 233 708 l 233 1067 l 228 1067 l 122 1015 l 122 1107 l 247 1172 l 322 1172 l 322 708 z "},"º":{"ha":714,"x_min":104,"x_max":610,"o":"m 177 913 q 211 948 177 913 q 357 983 244 983 q 537 913 469 983 q 604 728 604 843 q 537 542 604 613 q 357 471 469 471 q 177 542 244 471 q 110 728 110 613 q 177 913 110 843 m 254 602 q 276 581 254 602 q 357 560 299 560 q 460 602 415 560 q 504 728 504 644 q 460 854 504 813 q 357 896 415 896 q 254 854 299 896 q 210 728 210 813 q 254 602 210 644 m 104 396 l 610 396 l 610 318 l 104 318 l 104 396 z "},"»":{"ha":813,"x_min":69,"x_max":761,"o":"m 626 354 l 358 665 l 503 665 l 761 354 l 503 44 l 358 44 l 626 354 m 69 44 l 338 354 l 69 665 l 214 665 l 472 354 l 214 44 l 69 44 z "},"¼":{"ha":1306,"x_min":126,"x_max":1197,"o":"m 332 513 l 436 513 l 436 431 l 126 431 l 126 513 l 243 513 l 243 871 l 238 871 l 132 819 l 132 911 l 257 976 l 332 976 l 332 513 m 1010 986 l 400 -19 l 289 -19 l 899 986 l 1010 986 m 1113 215 l 1197 215 l 1197 133 l 1113 133 l 1113 0 l 1024 0 l 1024 133 l 754 133 l 754 211 l 1015 546 l 1113 546 l 1113 215 m 1024 215 l 1024 433 l 1021 433 l 856 218 l 856 215 l 1024 215 z "},"½":{"ha":1306,"x_min":118,"x_max":1196,"o":"m 1001 554 q 1046 554 1001 554 q 1144 508 1092 554 q 1196 400 1196 461 q 1157 289 1196 339 q 1069 208 1118 239 q 906 86 926 117 l 906 82 l 1188 82 l 1188 0 l 807 0 l 807 54 q 854 158 807 108 q 958 239 901 207 q 1108 386 1108 322 q 1002 469 1108 469 q 832 415 896 469 l 826 415 l 826 506 q 1001 554 910 554 m 1001 986 l 392 -19 l 281 -19 l 890 986 l 1001 986 m 324 513 l 428 513 l 428 431 l 118 431 l 118 513 l 235 513 l 235 871 l 229 871 l 124 819 l 124 911 l 249 976 l 324 976 l 324 513 z "},"¾":{"ha":1306,"x_min":104,"x_max":1217,"o":"m 1029 986 l 419 -19 l 308 -19 l 918 986 l 1029 986 m 1132 215 l 1217 215 l 1217 133 l 1132 133 l 1132 0 l 1043 0 l 1043 133 l 774 133 l 774 211 l 1035 546 l 1132 546 l 1132 215 m 1043 215 l 1043 433 l 1040 433 l 875 218 l 875 215 l 1043 215 m 465 838 q 382 714 465 747 l 382 711 q 485 578 485 679 q 435 467 485 511 q 284 422 386 422 q 104 461 182 422 l 104 547 l 111 547 q 269 508 182 508 q 397 581 397 508 q 242 667 397 667 l 192 667 l 192 750 l 232 750 q 379 831 379 750 q 271 900 379 900 q 117 854 183 900 l 110 854 l 110 938 q 282 985 192 985 q 419 944 372 985 q 465 838 465 903 z "},"¿":{"ha":678,"x_min":56,"x_max":625,"o":"m 456 708 l 456 553 l 300 553 l 300 708 l 456 708 m 625 -201 q 360 -275 493 -275 q 141 -204 226 -275 q 56 -12 56 -133 q 83 101 56 51 q 148 182 110 150 q 225 244 186 214 q 317 424 317 321 l 317 440 l 439 440 l 439 418 q 413 287 439 344 q 348 194 386 229 q 272 129 310 158 q 181 -6 181 60 q 379 -157 181 -157 q 619 -75 494 -157 l 625 -75 l 625 -201 z "},"À":{"ha":968,"x_min":7,"x_max":961,"o":"m 310 1226 l 447 1226 l 553 1042 l 467 1042 l 310 1226 m 824 0 l 719 249 l 249 249 l 144 0 l 7 0 l 418 969 l 550 969 l 961 0 l 824 0 m 299 371 l 299 364 l 669 364 l 669 371 l 486 814 l 483 814 l 299 371 z "},"Á":{"ha":968,"x_min":7,"x_max":961,"o":"m 521 1226 l 658 1226 l 501 1042 l 415 1042 l 521 1226 m 824 0 l 719 249 l 249 249 l 144 0 l 7 0 l 418 969 l 550 969 l 961 0 l 824 0 m 299 371 l 299 364 l 669 364 l 669 371 l 486 814 l 483 814 l 299 371 z "},"Â":{"ha":968,"x_min":7,"x_max":961,"o":"m 542 1213 l 699 1042 l 589 1042 l 485 1143 l 381 1042 l 271 1042 l 428 1213 l 542 1213 m 824 0 l 719 249 l 249 249 l 144 0 l 7 0 l 418 969 l 550 969 l 961 0 l 824 0 m 299 371 l 299 364 l 669 364 l 669 371 l 486 814 l 483 814 l 299 371 z "},"Ã":{"ha":968,"x_min":7,"x_max":961,"o":"m 651 1188 l 714 1188 q 676 1074 708 1113 q 598 1035 643 1035 q 484 1068 553 1035 q 381 1101 415 1101 q 321 1042 335 1101 l 260 1042 q 298 1156 265 1117 q 375 1196 331 1196 q 488 1163 419 1196 q 593 1131 556 1131 q 651 1188 640 1131 m 824 0 l 719 249 l 249 249 l 144 0 l 7 0 l 418 969 l 550 969 l 961 0 l 824 0 m 299 371 l 299 364 l 669 364 l 669 371 l 486 814 l 483 814 l 299 371 z "},"Ä":{"ha":968,"x_min":7,"x_max":961,"o":"m 824 0 l 719 249 l 249 249 l 144 0 l 7 0 l 418 969 l 550 969 l 961 0 l 824 0 m 299 371 l 299 364 l 669 364 l 669 371 l 486 814 l 483 814 l 299 371 m 301 1042 l 301 1175 l 435 1175 l 435 1042 l 301 1042 m 535 1042 l 535 1175 l 668 1175 l 668 1042 l 535 1042 z "},"Å":{"ha":968,"x_min":7,"x_max":961,"o":"m 392 1237 q 411 1256 392 1237 q 485 1275 431 1275 q 577 1237 539 1275 q 615 1144 615 1199 q 577 1052 615 1090 q 485 1014 539 1014 q 392 1052 431 1014 q 354 1144 354 1090 q 392 1237 354 1199 m 437 1097 q 447 1086 437 1097 q 485 1076 457 1076 q 533 1097 513 1076 q 553 1144 553 1117 q 533 1192 553 1172 q 485 1213 513 1213 q 437 1192 457 1213 q 417 1144 417 1172 q 437 1097 417 1117 m 824 0 l 719 249 l 249 249 l 144 0 l 7 0 l 418 969 l 550 969 l 961 0 l 824 0 m 299 371 l 299 364 l 669 364 l 669 371 l 486 814 l 483 814 l 299 371 z "},"Æ":{"ha":1444,"x_min":-46,"x_max":1365,"o":"m 1365 851 l 819 851 l 819 544 l 1315 544 l 1315 426 l 819 426 l 819 118 l 1365 118 l 1365 0 l 693 0 l 693 249 l 265 249 l 104 0 l -46 0 l 593 969 l 1365 969 l 1365 851 m 693 364 l 693 851 l 658 851 l 343 368 l 343 364 l 693 364 z "},"Ç":{"ha":969,"x_min":78,"x_max":893,"o":"m 529 -87 q 588 -82 551 -82 q 653 -109 624 -82 q 683 -179 683 -136 q 529 -307 683 -307 q 393 -264 457 -307 l 415 -215 q 511 -247 467 -247 q 590 -183 590 -247 q 576 -151 590 -162 q 535 -140 563 -140 q 476 -157 508 -140 l 436 -135 l 513 -11 q 199 139 321 6 q 78 492 78 272 q 215 848 78 713 q 564 983 351 983 q 893 893 743 983 l 893 768 l 886 768 q 571 863 743 863 q 301 757 399 863 q 204 485 204 651 q 301 213 204 318 q 571 107 399 107 q 886 201 743 107 l 893 201 l 893 76 q 571 -14 744 -12 l 529 -87 z "},"È":{"ha":886,"x_min":135,"x_max":807,"o":"m 807 851 l 261 851 l 261 544 l 757 544 l 757 426 l 261 426 l 261 118 l 807 118 l 807 0 l 135 0 l 135 969 l 807 969 l 807 851 m 303 1226 l 440 1226 l 546 1042 l 460 1042 l 303 1226 z "},"É":{"ha":886,"x_min":135,"x_max":807,"o":"m 807 851 l 261 851 l 261 544 l 757 544 l 757 426 l 261 426 l 261 118 l 807 118 l 807 0 l 135 0 l 135 969 l 807 969 l 807 851 m 507 1226 l 644 1226 l 488 1042 l 401 1042 l 507 1226 z "},"Ê":{"ha":886,"x_min":135,"x_max":807,"o":"m 807 851 l 261 851 l 261 544 l 757 544 l 757 426 l 261 426 l 261 118 l 807 118 l 807 0 l 135 0 l 135 969 l 807 969 l 807 851 m 542 1213 l 699 1042 l 589 1042 l 485 1143 l 381 1042 l 271 1042 l 428 1213 l 542 1213 z "},"Ë":{"ha":886,"x_min":135,"x_max":807,"o":"m 807 851 l 261 851 l 261 544 l 757 544 l 757 426 l 261 426 l 261 118 l 807 118 l 807 0 l 135 0 l 135 969 l 807 969 l 807 851 m 286 1042 l 286 1175 l 419 1175 l 419 1042 l 286 1042 m 519 1042 l 519 1175 l 653 1175 l 653 1042 l 519 1042 z "},"Ì":{"ha":396,"x_min":31,"x_max":274,"o":"m 261 969 l 261 0 l 135 0 l 135 969 l 261 969 m 31 1226 l 168 1226 l 274 1042 l 188 1042 l 31 1226 z "},"Í":{"ha":396,"x_min":122,"x_max":365,"o":"m 261 969 l 261 0 l 135 0 l 135 969 l 261 969 m 228 1226 l 365 1226 l 208 1042 l 122 1042 l 228 1226 z "},"Î":{"ha":396,"x_min":-17,"x_max":411,"o":"m 261 969 l 261 0 l 135 0 l 135 969 l 261 969 m 254 1213 l 411 1042 l 301 1042 l 197 1143 l 93 1042 l -17 1042 l 140 1213 l 254 1213 z "},"Ï":{"ha":396,"x_min":14,"x_max":381,"o":"m 261 969 l 261 0 l 135 0 l 135 969 l 261 969 m 14 1042 l 14 1175 l 147 1175 l 147 1042 l 14 1042 m 247 1042 l 247 1175 l 381 1175 l 381 1042 l 247 1042 z "},"Ð":{"ha":1051,"x_min":31,"x_max":976,"o":"m 31 438 l 31 531 l 144 531 l 144 969 l 486 969 q 702 927 606 969 q 857 814 799 885 q 976 485 976 671 q 900 214 976 336 q 664 28 814 79 q 486 0 582 0 l 144 0 l 144 438 l 31 438 m 471 118 q 747 219 643 118 q 851 485 851 321 q 747 750 851 649 q 471 851 643 851 l 271 851 l 271 531 l 474 531 l 474 438 l 271 438 l 271 118 l 471 118 z "},"Ñ":{"ha":1115,"x_min":135,"x_max":981,"o":"m 854 969 l 981 969 l 981 0 l 825 0 l 264 799 l 261 799 l 261 0 l 135 0 l 135 969 l 290 969 l 850 172 l 854 172 l 854 969 m 729 1188 l 792 1188 q 753 1074 786 1113 q 676 1035 721 1035 q 562 1068 631 1035 q 458 1101 493 1101 q 399 1042 413 1101 l 338 1042 q 376 1156 343 1117 q 453 1196 408 1196 q 565 1163 497 1196 q 671 1131 633 1131 q 729 1188 718 1131 z "},"Ò":{"ha":1126,"x_min":76,"x_max":1051,"o":"m 213 844 q 278 914 213 844 q 564 983 344 983 q 915 844 783 983 q 1051 485 1047 706 q 915 125 1047 264 q 564 -14 783 -14 q 213 125 344 -14 q 76 485 81 264 q 213 844 81 706 m 203 485 q 203 402 203 485 q 299 212 203 319 q 563 104 396 104 q 828 212 731 104 q 925 485 925 319 q 828 758 925 650 q 563 865 731 865 q 299 758 396 865 q 203 485 203 650 m 400 1226 l 538 1226 l 643 1042 l 557 1042 l 400 1226 z "},"Ó":{"ha":1126,"x_min":76,"x_max":1051,"o":"m 213 844 q 278 914 213 844 q 564 983 344 983 q 915 844 783 983 q 1051 485 1047 706 q 915 125 1047 264 q 564 -14 783 -14 q 213 125 344 -14 q 76 485 81 264 q 213 844 81 706 m 203 485 q 203 402 203 485 q 299 212 203 319 q 563 104 396 104 q 828 212 731 104 q 925 485 925 319 q 828 758 925 650 q 563 865 731 865 q 299 758 396 865 q 203 485 203 650 m 590 1226 l 728 1226 l 571 1042 l 485 1042 l 590 1226 z "},"Ô":{"ha":1126,"x_min":76,"x_max":1051,"o":"m 213 844 q 278 914 213 844 q 564 983 344 983 q 915 844 783 983 q 1051 485 1047 706 q 915 125 1047 264 q 564 -14 783 -14 q 213 125 344 -14 q 76 485 81 264 q 213 844 81 706 m 203 485 q 203 402 203 485 q 299 212 203 319 q 563 104 396 104 q 828 212 731 104 q 925 485 925 319 q 828 758 925 650 q 563 865 731 865 q 299 758 396 865 q 203 485 203 650 m 621 1213 l 778 1042 l 668 1042 l 564 1143 l 460 1042 l 350 1042 l 507 1213 l 621 1213 z "},"Õ":{"ha":1126,"x_min":76,"x_max":1051,"o":"m 213 844 q 278 914 213 844 q 564 983 344 983 q 915 844 783 983 q 1051 485 1047 706 q 915 125 1047 264 q 564 -14 783 -14 q 213 125 344 -14 q 76 485 81 264 q 213 844 81 706 m 203 485 q 203 402 203 485 q 299 212 203 319 q 563 104 396 104 q 828 212 731 104 q 925 485 925 319 q 828 758 925 650 q 563 865 731 865 q 299 758 396 865 q 203 485 203 650 m 729 1188 l 792 1188 q 753 1074 786 1113 q 676 1035 721 1035 q 562 1068 631 1035 q 458 1101 493 1101 q 399 1042 413 1101 l 338 1042 q 376 1156 343 1117 q 453 1196 408 1196 q 565 1163 497 1196 q 671 1131 633 1131 q 729 1188 718 1131 z "},"Ö":{"ha":1126,"x_min":76,"x_max":1051,"o":"m 213 844 q 278 914 213 844 q 564 983 344 983 q 915 844 783 983 q 1051 485 1047 706 q 915 125 1047 264 q 564 -14 783 -14 q 213 125 344 -14 q 76 485 81 264 q 213 844 81 706 m 203 485 q 203 402 203 485 q 299 212 203 319 q 563 104 396 104 q 828 212 731 104 q 925 485 925 319 q 828 758 925 650 q 563 865 731 865 q 299 758 396 865 q 203 485 203 650 m 381 1042 l 381 1175 l 514 1175 l 514 1042 l 381 1042 m 614 1042 l 614 1175 l 747 1175 l 747 1042 l 614 1042 z "},"×":{"ha":782,"x_min":78,"x_max":703,"o":"m 703 597 l 465 360 l 465 357 l 703 119 l 628 46 l 392 283 l 389 283 l 151 47 l 78 121 l 315 357 l 315 360 l 79 597 l 153 671 l 389 433 l 392 433 l 629 671 l 703 597 z "},"Ø":{"ha":1126,"x_min":76,"x_max":1051,"o":"m 882 876 q 1051 485 1047 738 q 915 125 1047 264 q 564 -14 783 -14 q 304 53 419 -14 l 238 -42 l 181 -1 l 247 93 q 76 485 83 229 q 213 844 81 706 q 564 983 344 983 q 825 917 713 983 l 892 1013 l 949 972 l 882 876 m 564 865 q 299 758 396 865 q 203 476 203 650 q 318 194 203 301 l 756 818 q 564 865 674 865 m 564 104 q 828 212 731 104 q 925 494 925 319 q 811 776 925 669 l 374 153 q 564 104 457 104 z "},"Ù":{"ha":1053,"x_min":128,"x_max":925,"o":"m 799 969 l 925 969 l 925 364 q 890 195 925 269 q 795 76 854 121 q 667 9 736 32 q 526 -14 599 -14 q 385 9 454 -14 q 258 76 317 32 q 163 195 199 121 q 128 364 128 269 l 128 969 l 254 969 l 254 360 q 335 169 254 238 q 526 101 415 101 q 718 169 638 101 q 799 360 799 238 l 799 969 m 371 1226 l 508 1226 l 614 1042 l 528 1042 l 371 1226 z "},"Ú":{"ha":1053,"x_min":128,"x_max":925,"o":"m 799 969 l 925 969 l 925 364 q 890 195 925 269 q 795 76 854 121 q 667 9 736 32 q 526 -14 599 -14 q 385 9 454 -14 q 258 76 317 32 q 163 195 199 121 q 128 364 128 269 l 128 969 l 254 969 l 254 360 q 335 169 254 238 q 526 101 415 101 q 718 169 638 101 q 799 360 799 238 l 799 969 m 544 1226 l 682 1226 l 525 1042 l 439 1042 l 544 1226 z "},"Û":{"ha":1053,"x_min":128,"x_max":925,"o":"m 799 969 l 925 969 l 925 364 q 890 195 925 269 q 795 76 854 121 q 667 9 736 32 q 526 -14 599 -14 q 385 9 454 -14 q 258 76 317 32 q 163 195 199 121 q 128 364 128 269 l 128 969 l 254 969 l 254 360 q 335 169 254 238 q 526 101 415 101 q 718 169 638 101 q 799 360 799 238 l 799 969 m 583 1213 l 740 1042 l 631 1042 l 526 1143 l 422 1042 l 313 1042 l 469 1213 l 583 1213 z "},"Ü":{"ha":1053,"x_min":128,"x_max":925,"o":"m 799 969 l 925 969 l 925 364 q 890 195 925 269 q 795 76 854 121 q 667 9 736 32 q 526 -14 599 -14 q 385 9 454 -14 q 258 76 317 32 q 163 195 199 121 q 128 364 128 269 l 128 969 l 254 969 l 254 360 q 335 169 254 238 q 526 101 415 101 q 718 169 638 101 q 799 360 799 238 l 799 969 m 343 1042 l 343 1175 l 476 1175 l 476 1042 l 343 1042 m 576 1042 l 576 1175 l 710 1175 l 710 1042 l 576 1042 z "},"Ý":{"ha":896,"x_min":-10,"x_max":906,"o":"m 751 969 l 906 969 l 511 410 l 511 0 l 385 0 l 385 410 l -10 969 l 144 969 l 444 526 l 451 526 l 751 969 m 479 1226 l 617 1226 l 460 1042 l 374 1042 l 479 1226 z "},"Þ":{"ha":932,"x_min":135,"x_max":885,"o":"m 514 814 q 689 787 614 814 q 805 714 764 760 q 865 616 846 668 q 885 506 885 564 q 865 395 885 447 q 805 297 846 343 q 689 224 764 251 q 514 197 614 197 l 261 197 l 261 0 l 135 0 l 135 969 l 261 969 l 261 814 l 514 814 m 501 317 q 701 371 643 317 q 758 506 758 425 q 701 640 758 586 q 501 694 643 694 l 261 694 l 261 317 l 501 317 z "},"ß":{"ha":847,"x_min":110,"x_max":782,"o":"m 576 488 q 711 419 650 471 q 782 239 782 358 q 704 53 782 119 q 523 -14 626 -14 q 339 18 419 -14 l 339 132 l 344 132 q 482 99 411 99 q 604 135 553 99 q 656 254 656 171 q 585 383 656 338 q 404 429 515 429 l 375 429 l 375 526 l 386 526 q 542 575 483 526 q 601 699 601 624 q 553 820 601 775 q 424 865 506 865 q 289 819 342 865 q 236 660 236 772 l 236 0 l 110 0 l 110 675 q 196 902 110 821 q 413 983 282 983 q 635 913 543 983 q 728 711 728 843 q 576 489 728 538 l 576 488 z "},"à":{"ha":771,"x_min":53,"x_max":667,"o":"m 122 669 q 381 722 243 722 q 593 642 519 722 q 667 449 667 561 l 667 0 l 556 0 l 540 89 l 536 89 q 279 -14 436 -14 q 119 43 185 -14 q 53 199 53 100 q 134 358 53 297 q 372 419 215 419 l 540 419 l 540 431 q 495 563 540 522 q 339 603 450 603 q 131 556 228 603 l 122 556 l 122 669 m 540 201 l 540 318 l 389 318 q 179 208 179 318 q 326 97 179 97 q 444 127 388 97 q 540 201 501 157 m 215 988 l 353 988 l 458 803 l 372 803 l 215 988 z "},"á":{"ha":771,"x_min":53,"x_max":667,"o":"m 122 669 q 381 722 243 722 q 593 642 519 722 q 667 449 667 561 l 667 0 l 556 0 l 540 89 l 536 89 q 279 -14 436 -14 q 119 43 185 -14 q 53 199 53 100 q 134 358 53 297 q 372 419 215 419 l 540 419 l 540 431 q 495 563 540 522 q 339 603 450 603 q 131 556 228 603 l 122 556 l 122 669 m 540 201 l 540 318 l 389 318 q 179 208 179 318 q 326 97 179 97 q 444 127 388 97 q 540 201 501 157 m 399 988 l 536 988 l 379 803 l 293 803 l 399 988 z "},"â":{"ha":771,"x_min":53,"x_max":667,"o":"m 122 669 q 381 722 243 722 q 593 642 519 722 q 667 449 667 561 l 667 0 l 556 0 l 540 89 l 536 89 q 279 -14 436 -14 q 119 43 185 -14 q 53 199 53 100 q 134 358 53 297 q 372 419 215 419 l 540 419 l 540 431 q 495 563 540 522 q 339 603 450 603 q 131 556 228 603 l 122 556 l 122 669 m 540 201 l 540 318 l 389 318 q 179 208 179 318 q 326 97 179 97 q 444 127 388 97 q 540 201 501 157 m 436 974 l 593 803 l 483 803 l 379 904 l 275 803 l 165 803 l 322 974 l 436 974 z "},"ã":{"ha":771,"x_min":53,"x_max":667,"o":"m 122 669 q 381 722 243 722 q 593 642 519 722 q 667 449 667 561 l 667 0 l 556 0 l 540 89 l 536 89 q 279 -14 436 -14 q 119 43 185 -14 q 53 199 53 100 q 134 358 53 297 q 372 419 215 419 l 540 419 l 540 431 q 495 563 540 522 q 339 603 450 603 q 131 556 228 603 l 122 556 l 122 669 m 540 201 l 540 318 l 389 318 q 179 208 179 318 q 326 97 179 97 q 444 127 388 97 q 540 201 501 157 m 540 949 l 603 949 q 565 835 597 874 q 487 796 532 796 q 373 829 442 796 q 269 863 304 863 q 210 803 224 863 l 149 803 q 187 917 154 878 q 264 957 219 957 q 376 924 308 957 q 482 892 444 892 q 540 949 529 892 z "},"ä":{"ha":771,"x_min":53,"x_max":667,"o":"m 122 669 q 381 722 243 722 q 593 642 519 722 q 667 449 667 561 l 667 0 l 556 0 l 540 89 l 536 89 q 279 -14 436 -14 q 119 43 185 -14 q 53 199 53 100 q 134 358 53 297 q 372 419 215 419 l 540 419 l 540 431 q 495 563 540 522 q 339 603 450 603 q 131 556 228 603 l 122 556 l 122 669 m 540 201 l 540 318 l 389 318 q 179 208 179 318 q 326 97 179 97 q 444 127 388 97 q 540 201 501 157 m 197 803 l 197 936 l 331 936 l 331 803 l 197 803 m 431 803 l 431 936 l 564 936 l 564 803 l 431 803 z "},"å":{"ha":771,"x_min":53,"x_max":667,"o":"m 122 669 q 381 722 243 722 q 593 642 519 722 q 667 449 667 561 l 667 0 l 556 0 l 540 89 l 536 89 q 279 -14 436 -14 q 119 43 185 -14 q 53 199 53 100 q 134 358 53 297 q 372 419 215 419 l 540 419 l 540 431 q 495 563 540 522 q 339 603 450 603 q 131 556 228 603 l 122 556 l 122 669 m 540 201 l 540 318 l 389 318 q 179 208 179 318 q 326 97 179 97 q 444 127 388 97 q 540 201 501 157 m 281 988 q 300 1007 281 988 q 374 1026 319 1026 q 466 988 428 1026 q 504 896 504 950 q 466 803 504 842 q 374 765 428 765 q 281 803 319 765 q 243 896 243 842 q 281 988 243 950 m 326 848 q 336 838 326 848 q 374 828 346 828 q 422 848 401 828 q 442 896 442 868 q 422 944 442 924 q 374 964 401 964 q 326 944 346 964 q 306 896 306 924 q 326 848 306 868 z "},"æ":{"ha":1256,"x_min":51,"x_max":1196,"o":"m 1196 354 l 1196 314 l 657 314 q 903 104 681 104 q 1150 175 1043 104 l 1154 175 l 1154 51 q 892 -14 1038 -14 q 610 107 703 -14 q 324 -14 531 -14 q 130 43 208 -14 q 51 198 51 100 q 133 356 51 296 q 371 415 214 415 l 539 415 l 539 431 q 494 563 539 522 q 338 603 449 603 q 126 554 226 603 l 121 554 l 121 669 q 375 722 242 722 q 613 606 542 722 q 863 722 700 722 q 1111 615 1026 722 q 1196 354 1196 508 m 539 235 l 539 314 l 388 314 q 178 208 178 314 q 223 129 178 161 q 348 97 268 97 q 483 128 428 97 q 539 235 539 158 m 657 415 l 1071 415 q 1003 565 1065 515 q 864 615 940 615 q 725 565 788 615 q 657 415 663 515 z "},"ç":{"ha":746,"x_min":65,"x_max":676,"o":"m 396 -87 q 454 -82 418 -82 q 520 -109 490 -82 q 550 -179 550 -136 q 396 -307 550 -307 q 260 -264 324 -307 l 282 -215 q 378 -247 333 -247 q 457 -183 457 -247 q 443 -151 457 -162 q 402 -140 429 -140 q 343 -157 375 -140 l 303 -135 l 381 -10 q 155 106 244 8 q 65 363 65 203 q 174 622 65 522 q 436 722 282 722 q 676 654 561 722 l 676 535 l 671 535 q 448 604 568 604 q 260 535 328 604 q 192 354 192 467 q 260 173 192 242 q 448 104 328 104 q 671 174 568 104 l 676 174 l 676 54 q 438 -14 564 -12 l 396 -87 z "},"è":{"ha":792,"x_min":68,"x_max":732,"o":"m 732 354 l 732 310 l 196 310 q 268 158 207 213 q 453 104 329 104 q 683 174 578 104 l 690 174 l 690 51 q 416 -14 574 -14 q 163 83 258 -14 q 68 344 68 179 q 153 615 68 508 q 400 722 238 722 q 647 615 563 722 q 732 354 732 508 m 196 413 l 606 413 q 538 564 600 513 q 400 615 476 615 q 263 564 324 615 q 196 413 201 513 m 243 988 l 381 988 l 486 803 l 400 803 l 243 988 z "},"é":{"ha":792,"x_min":68,"x_max":732,"o":"m 732 354 l 732 310 l 196 310 q 268 158 207 213 q 453 104 329 104 q 683 174 578 104 l 690 174 l 690 51 q 416 -14 574 -14 q 163 83 258 -14 q 68 344 68 179 q 153 615 68 508 q 400 722 238 722 q 647 615 563 722 q 732 354 732 508 m 196 413 l 606 413 q 538 564 600 513 q 400 615 476 615 q 263 564 324 615 q 196 413 201 513 m 418 988 l 556 988 l 399 803 l 313 803 l 418 988 z "},"ê":{"ha":792,"x_min":68,"x_max":732,"o":"m 732 354 l 732 310 l 196 310 q 268 158 207 213 q 453 104 329 104 q 683 174 578 104 l 690 174 l 690 51 q 416 -14 574 -14 q 163 83 258 -14 q 68 344 68 179 q 153 615 68 508 q 400 722 238 722 q 647 615 563 722 q 732 354 732 508 m 196 413 l 606 413 q 538 564 600 513 q 400 615 476 615 q 263 564 324 615 q 196 413 201 513 m 456 974 l 613 803 l 503 803 l 399 904 l 294 803 l 185 803 l 342 974 l 456 974 z "},"ë":{"ha":792,"x_min":68,"x_max":732,"o":"m 732 354 l 732 310 l 196 310 q 268 158 207 213 q 453 104 329 104 q 683 174 578 104 l 690 174 l 690 51 q 416 -14 574 -14 q 163 83 258 -14 q 68 344 68 179 q 153 615 68 508 q 400 722 238 722 q 647 615 563 722 q 732 354 732 508 m 196 413 l 606 413 q 538 564 600 513 q 400 615 476 615 q 263 564 324 615 q 196 413 201 513 m 215 803 l 215 936 l 349 936 l 349 803 l 215 803 m 449 803 l 449 936 l 582 936 l 582 803 l 449 803 z "},"ì":{"ha":357,"x_min":11,"x_max":254,"o":"m 115 0 l 115 708 l 242 708 l 242 0 l 115 0 m 11 988 l 149 988 l 254 803 l 168 803 l 11 988 z "},"í":{"ha":357,"x_min":103,"x_max":346,"o":"m 115 0 l 115 708 l 242 708 l 242 0 l 115 0 m 208 988 l 346 988 l 189 803 l 103 803 l 208 988 z "},"î":{"ha":357,"x_min":-36,"x_max":392,"o":"m 115 0 l 115 708 l 242 708 l 242 0 l 115 0 m 235 974 l 392 803 l 282 803 l 178 904 l 74 803 l -36 803 l 121 974 l 235 974 z "},"ï":{"ha":357,"x_min":-6,"x_max":361,"o":"m 115 0 l 115 708 l 242 708 l 242 0 l 115 0 m -6 803 l -6 936 l 128 936 l 128 803 l -6 803 m 228 803 l 228 936 l 361 936 l 361 803 l 228 803 z "},"ð":{"ha":832,"x_min":68,"x_max":758,"o":"m 503 885 q 758 381 758 654 q 674 97 758 207 q 423 -14 589 -14 q 163 85 257 -14 q 68 338 68 183 q 156 597 68 492 q 393 701 243 701 q 544 665 475 701 l 549 665 q 401 825 494 746 l 258 742 l 224 801 l 342 871 q 200 957 269 921 q 268 1053 267 1053 q 447 932 369 994 l 567 1004 l 603 944 l 503 885 m 257 160 q 290 129 257 160 q 413 97 324 97 q 569 160 501 97 q 636 349 636 224 q 569 537 636 475 q 413 599 501 599 q 257 537 324 599 q 190 349 190 475 q 257 160 190 224 z "},"ñ":{"ha":846,"x_min":110,"x_max":743,"o":"m 494 722 q 676 644 610 722 q 743 450 743 567 l 743 0 l 617 0 l 617 436 q 464 606 617 606 q 236 472 343 606 l 236 0 l 110 0 l 110 708 l 221 708 l 236 619 l 236 599 l 239 599 q 494 722 351 722 m 596 949 l 658 949 q 620 835 653 874 q 542 796 588 796 q 428 829 497 796 q 325 863 360 863 q 265 803 279 863 l 204 803 q 242 917 210 878 q 319 957 275 957 q 432 924 364 957 q 538 892 500 892 q 596 949 585 892 z "},"ò":{"ha":844,"x_min":67,"x_max":778,"o":"m 67 354 q 67 437 67 354 q 164 621 67 519 q 422 722 261 722 q 680 621 582 722 q 778 354 778 519 q 680 88 778 189 q 422 -14 582 -14 q 164 88 261 -14 q 67 354 67 189 m 262 165 q 296 133 262 165 q 422 101 331 101 q 583 165 514 101 q 651 355 651 228 q 583 544 651 482 q 422 607 514 607 q 262 544 331 607 q 193 355 193 482 q 262 165 193 228 m 256 988 l 393 988 l 499 803 l 413 803 l 256 988 z "},"ó":{"ha":844,"x_min":67,"x_max":778,"o":"m 67 354 q 67 437 67 354 q 164 621 67 519 q 422 722 261 722 q 680 621 582 722 q 778 354 778 519 q 680 88 778 189 q 422 -14 582 -14 q 164 88 261 -14 q 67 354 67 189 m 262 165 q 296 133 262 165 q 422 101 331 101 q 583 165 514 101 q 651 355 651 228 q 583 544 651 482 q 422 607 514 607 q 262 544 331 607 q 193 355 193 482 q 262 165 193 228 m 451 988 l 589 988 l 432 803 l 346 803 l 451 988 z "},"ô":{"ha":844,"x_min":67,"x_max":778,"o":"m 67 354 q 67 437 67 354 q 164 621 67 519 q 422 722 261 722 q 680 621 582 722 q 778 354 778 519 q 680 88 778 189 q 422 -14 582 -14 q 164 88 261 -14 q 67 354 67 189 m 262 165 q 296 133 262 165 q 422 101 331 101 q 583 165 514 101 q 651 355 651 228 q 583 544 651 482 q 422 607 514 607 q 262 544 331 607 q 193 355 193 482 q 262 165 193 228 m 479 974 l 636 803 l 526 803 l 422 904 l 318 803 l 208 803 l 365 974 l 479 974 z "},"õ":{"ha":844,"x_min":67,"x_max":778,"o":"m 67 354 q 67 437 67 354 q 164 621 67 519 q 422 722 261 722 q 680 621 582 722 q 778 354 778 519 q 680 88 778 189 q 422 -14 582 -14 q 164 88 261 -14 q 67 354 67 189 m 262 165 q 296 133 262 165 q 422 101 331 101 q 583 165 514 101 q 651 355 651 228 q 583 544 651 482 q 422 607 514 607 q 262 544 331 607 q 193 355 193 482 q 262 165 193 228 m 589 949 l 651 949 q 613 835 646 874 q 535 796 581 796 q 422 829 490 796 q 318 863 353 863 q 258 803 272 863 l 197 803 q 235 917 203 878 q 313 957 267 957 q 426 924 358 957 q 531 892 494 892 q 589 949 578 892 z "},"ö":{"ha":844,"x_min":67,"x_max":778,"o":"m 67 354 q 67 437 67 354 q 164 621 67 519 q 422 722 261 722 q 680 621 582 722 q 778 354 778 519 q 680 88 778 189 q 422 -14 582 -14 q 164 88 261 -14 q 67 354 67 189 m 262 165 q 296 133 262 165 q 422 101 331 101 q 583 165 514 101 q 651 355 651 228 q 583 544 651 482 q 422 607 514 607 q 262 544 331 607 q 193 355 193 482 q 262 165 193 228 m 239 803 l 239 936 l 372 936 l 372 803 l 239 803 m 472 803 l 472 936 l 606 936 l 606 803 l 472 803 z "},"÷":{"ha":989,"x_min":108,"x_max":881,"o":"m 108 517 l 881 517 l 881 404 l 108 404 l 108 517 m 431 139 l 431 267 l 558 267 l 558 139 l 431 139 m 558 781 l 558 653 l 431 653 l 431 781 l 558 781 z "},"ø":{"ha":844,"x_min":67,"x_max":778,"o":"m 663 638 q 778 361 778 533 q 680 88 778 189 q 422 -14 582 -14 q 238 32 318 -14 l 186 -42 l 129 -1 l 181 72 q 67 347 67 174 q 164 621 67 519 q 422 722 261 722 q 606 678 528 722 l 657 751 l 714 711 l 663 638 m 422 607 q 262 544 331 607 q 193 362 193 482 q 253 175 193 242 l 536 579 q 422 607 485 607 m 422 101 q 583 165 514 101 q 651 348 651 228 q 590 536 651 468 l 307 131 q 422 101 361 101 z "},"ù":{"ha":847,"x_min":104,"x_max":738,"o":"m 353 -14 q 171 64 238 -14 q 104 258 104 142 l 104 708 l 231 708 l 231 272 q 383 103 231 103 q 611 236 504 103 l 611 708 l 738 708 l 738 0 l 626 0 l 611 89 l 611 110 l 608 110 q 353 -14 496 -14 m 254 988 l 392 988 l 497 803 l 411 803 l 254 988 z "},"ú":{"ha":847,"x_min":104,"x_max":738,"o":"m 353 -14 q 171 64 238 -14 q 104 258 104 142 l 104 708 l 231 708 l 231 272 q 383 103 231 103 q 611 236 504 103 l 611 708 l 738 708 l 738 0 l 626 0 l 611 89 l 611 110 l 608 110 q 353 -14 496 -14 m 450 988 l 588 988 l 431 803 l 344 803 l 450 988 z "},"û":{"ha":847,"x_min":104,"x_max":738,"o":"m 353 -14 q 171 64 238 -14 q 104 258 104 142 l 104 708 l 231 708 l 231 272 q 383 103 231 103 q 611 236 504 103 l 611 708 l 738 708 l 738 0 l 626 0 l 611 89 l 611 110 l 608 110 q 353 -14 496 -14 m 478 974 l 635 803 l 525 803 l 421 904 l 317 803 l 207 803 l 364 974 l 478 974 z "},"ü":{"ha":847,"x_min":104,"x_max":738,"o":"m 353 -14 q 171 64 238 -14 q 104 258 104 142 l 104 708 l 231 708 l 231 272 q 383 103 231 103 q 611 236 504 103 l 611 708 l 738 708 l 738 0 l 626 0 l 611 89 l 611 110 l 608 110 q 353 -14 496 -14 m 238 803 l 238 936 l 371 936 l 371 803 l 238 803 m 471 803 l 471 936 l 604 936 l 604 803 l 471 803 z "},"ý":{"ha":740,"x_min":7,"x_max":735,"o":"m 735 708 l 308 -319 l 181 -319 l 300 -11 l 7 708 l 143 708 l 365 149 l 371 149 l 599 708 l 735 708 m 399 988 l 536 988 l 379 803 l 293 803 l 399 988 z "},"þ":{"ha":876,"x_min":110,"x_max":810,"o":"m 240 619 q 474 722 339 722 q 709 622 608 722 q 810 354 810 522 q 709 86 810 186 q 474 -14 608 -14 q 240 89 339 -14 l 236 89 l 236 -319 l 110 -319 l 110 1014 l 236 1014 l 236 619 l 240 619 m 456 104 q 621 169 558 104 q 683 354 683 235 q 621 539 683 474 q 456 604 558 604 q 236 500 331 604 l 236 208 q 456 104 331 104 z "},"ÿ":{"ha":740,"x_min":7,"x_max":735,"o":"m 735 708 l 308 -319 l 181 -319 l 300 -11 l 7 708 l 143 708 l 365 149 l 371 149 l 599 708 l 735 708 m 185 803 l 185 936 l 318 936 l 318 803 l 185 803 m 418 803 l 418 936 l 551 936 l 551 803 l 418 803 z "},"Ā":{"ha":968,"x_min":7,"x_max":961,"o":"m 682 1150 l 682 1067 l 288 1067 l 288 1150 l 682 1150 m 824 0 l 719 249 l 249 249 l 144 0 l 7 0 l 418 969 l 550 969 l 961 0 l 824 0 m 299 371 l 299 364 l 669 364 l 669 371 l 486 814 l 483 814 l 299 371 z "},"ā":{"ha":771,"x_min":53,"x_max":667,"o":"m 122 669 q 381 722 243 722 q 593 642 519 722 q 667 449 667 561 l 667 0 l 556 0 l 540 89 l 536 89 q 279 -14 436 -14 q 119 43 185 -14 q 53 199 53 100 q 134 358 53 297 q 372 419 215 419 l 540 419 l 540 431 q 495 563 540 522 q 339 603 450 603 q 131 556 228 603 l 122 556 l 122 669 m 540 201 l 540 318 l 389 318 q 179 208 179 318 q 326 97 179 97 q 444 127 388 97 q 540 201 501 157 m 568 900 l 568 817 l 174 817 l 174 900 l 568 900 z "},"Ă":{"ha":968,"x_min":7,"x_max":961,"o":"m 600 1200 l 689 1200 q 620 1083 675 1126 q 485 1039 565 1039 q 349 1083 404 1039 q 281 1200 294 1126 l 369 1200 q 485 1119 397 1119 q 600 1200 572 1119 m 824 0 l 719 249 l 249 249 l 144 0 l 7 0 l 418 969 l 550 969 l 961 0 l 824 0 m 299 371 l 299 364 l 669 364 l 669 371 l 486 814 l 483 814 l 299 371 z "},"ă":{"ha":771,"x_min":53,"x_max":667,"o":"m 122 669 q 381 722 243 722 q 593 642 519 722 q 667 449 667 561 l 667 0 l 556 0 l 540 89 l 536 89 q 279 -14 436 -14 q 119 43 185 -14 q 53 199 53 100 q 134 358 53 297 q 372 419 215 419 l 540 419 l 540 431 q 495 563 540 522 q 339 603 450 603 q 131 556 228 603 l 122 556 l 122 669 m 540 201 l 540 318 l 389 318 q 179 208 179 318 q 326 97 179 97 q 444 127 388 97 q 540 201 501 157 m 489 961 l 578 961 q 509 844 564 888 q 374 800 454 800 q 238 844 293 800 q 169 961 183 888 l 258 961 q 374 881 286 881 q 489 961 461 881 z "},"Ą":{"ha":968,"x_min":7,"x_max":961,"o":"m 961 0 q 806 -139 803 -58 q 876 -204 806 -204 q 960 -179 917 -204 l 960 -244 q 842 -282 904 -282 q 742 -250 781 -282 q 704 -165 704 -218 q 853 0 704 -61 l 824 0 l 719 249 l 249 249 l 144 0 l 7 0 l 418 969 l 550 969 l 961 0 m 299 371 l 299 364 l 669 364 l 669 371 l 486 814 l 483 814 l 299 371 z "},"ą":{"ha":771,"x_min":53,"x_max":667,"o":"m 667 0 q 511 -139 508 -58 q 582 -204 511 -204 q 665 -179 622 -204 l 665 -244 q 548 -282 610 -282 q 448 -250 486 -282 q 410 -165 410 -218 q 558 0 410 -61 l 540 0 l 540 92 q 279 -14 440 -14 q 119 43 185 -14 q 53 199 53 100 q 134 358 53 297 q 372 419 215 419 l 540 419 l 540 431 q 495 563 540 522 q 336 603 450 603 q 122 551 222 603 l 122 669 q 381 722 243 722 q 593 642 519 722 q 667 449 667 561 l 667 0 m 540 201 l 540 318 l 389 318 q 179 208 179 318 q 326 97 179 97 q 444 127 388 97 q 540 201 501 157 z "},"Ć":{"ha":969,"x_min":78,"x_max":893,"o":"m 886 768 q 571 863 743 863 q 301 757 399 863 q 204 485 204 651 q 301 213 204 318 q 571 107 399 107 q 886 201 743 107 l 893 201 l 893 76 q 564 -14 743 -14 q 215 122 351 -14 q 78 485 78 257 q 215 848 78 713 q 564 983 351 983 q 893 893 743 983 l 893 768 l 886 768 m 578 1226 l 715 1226 l 558 1042 l 472 1042 l 578 1226 z "},"ć":{"ha":744,"x_min":64,"x_max":675,"o":"m 669 535 q 447 604 567 604 q 258 535 326 604 q 190 354 190 467 q 258 173 190 242 q 447 104 326 104 q 669 174 567 104 l 675 174 l 675 54 q 435 -14 560 -14 q 172 86 281 -14 q 64 354 64 186 q 172 622 64 522 q 435 722 281 722 q 675 654 560 722 l 675 535 l 669 535 m 443 988 l 581 988 l 424 803 l 338 803 l 443 988 z "},"Ĉ":{"ha":969,"x_min":78,"x_max":893,"o":"m 886 768 q 571 863 743 863 q 301 757 399 863 q 204 485 204 651 q 301 213 204 318 q 571 107 399 107 q 886 201 743 107 l 893 201 l 893 76 q 564 -14 743 -14 q 215 122 351 -14 q 78 485 78 257 q 215 848 78 713 q 564 983 351 983 q 893 893 743 983 l 893 768 l 886 768 m 608 1213 l 765 1042 l 656 1042 l 551 1143 l 447 1042 l 338 1042 l 494 1213 l 608 1213 z "},"ĉ":{"ha":744,"x_min":64,"x_max":675,"o":"m 669 535 q 447 604 567 604 q 258 535 326 604 q 190 354 190 467 q 258 173 190 242 q 447 104 326 104 q 669 174 567 104 l 675 174 l 675 54 q 435 -14 560 -14 q 172 86 281 -14 q 64 354 64 186 q 172 622 64 522 q 435 722 281 722 q 675 654 560 722 l 675 535 l 669 535 m 469 974 l 626 803 l 517 803 l 413 904 l 308 803 l 199 803 l 356 974 l 469 974 z "},"Ċ":{"ha":969,"x_min":78,"x_max":893,"o":"m 886 768 q 571 863 743 863 q 301 757 399 863 q 204 485 204 651 q 301 213 204 318 q 571 107 399 107 q 886 201 743 107 l 893 201 l 893 76 q 564 -14 743 -14 q 215 122 351 -14 q 78 485 78 257 q 215 848 78 713 q 564 983 351 983 q 893 893 743 983 l 893 768 l 886 768 m 482 1042 l 482 1175 l 615 1175 l 615 1042 l 482 1042 z "},"ċ":{"ha":744,"x_min":64,"x_max":675,"o":"m 669 535 q 447 604 567 604 q 258 535 326 604 q 190 354 190 467 q 258 173 190 242 q 447 104 326 104 q 669 174 567 104 l 675 174 l 675 54 q 435 -14 560 -14 q 172 86 281 -14 q 64 354 64 186 q 172 622 64 522 q 435 722 281 722 q 675 654 560 722 l 675 535 l 669 535 m 351 803 l 351 936 l 485 936 l 485 803 l 351 803 z "},"Č":{"ha":969,"x_min":78,"x_max":893,"o":"m 886 768 q 571 863 743 863 q 301 757 399 863 q 204 485 204 651 q 301 213 204 318 q 571 107 399 107 q 886 201 743 107 l 893 201 l 893 76 q 564 -14 743 -14 q 215 122 351 -14 q 78 485 78 257 q 215 848 78 713 q 564 983 351 983 q 893 893 743 983 l 893 768 l 886 768 m 767 1213 l 610 1042 l 496 1042 l 339 1213 l 449 1213 l 553 1111 l 657 1213 l 767 1213 z "},"č":{"ha":744,"x_min":64,"x_max":675,"o":"m 669 535 q 447 604 567 604 q 258 535 326 604 q 190 354 190 467 q 258 173 190 242 q 447 104 326 104 q 669 174 567 104 l 675 174 l 675 54 q 435 -14 560 -14 q 172 86 281 -14 q 64 354 64 186 q 172 622 64 522 q 435 722 281 722 q 675 654 560 722 l 675 535 l 669 535 m 622 974 l 465 803 l 351 803 l 194 974 l 304 974 l 408 872 l 513 974 l 622 974 z "},"Ď":{"ha":1042,"x_min":135,"x_max":967,"o":"m 476 969 q 692 927 596 969 q 847 814 789 885 q 967 485 967 671 q 889 214 967 336 q 654 28 804 79 q 476 0 572 0 l 135 0 l 135 969 l 476 969 m 461 118 q 738 219 633 118 q 842 485 842 321 q 738 750 842 649 q 461 851 633 851 l 261 851 l 261 118 l 461 118 m 732 1213 l 575 1042 l 461 1042 l 304 1213 l 414 1213 l 518 1111 l 622 1213 l 732 1213 z "},"ď":{"ha":901,"x_min":67,"x_max":981,"o":"m 167 622 q 218 672 167 622 q 403 722 268 722 q 636 619 538 722 l 640 619 l 640 1014 l 767 1014 l 767 0 l 656 0 l 640 89 l 636 89 q 403 -14 538 -14 q 167 86 268 -14 q 67 354 67 186 q 167 622 67 522 m 421 104 q 640 208 546 104 l 640 500 q 421 604 546 604 q 256 539 318 604 q 193 354 193 474 q 256 169 193 235 q 421 104 318 104 m 849 1014 l 981 1014 l 981 883 q 849 694 981 751 l 849 771 q 914 883 914 806 l 849 883 l 849 1014 z "},"Đ":{"ha":1051,"x_min":31,"x_max":976,"o":"m 31 438 l 31 531 l 144 531 l 144 969 l 486 969 q 702 927 606 969 q 857 814 799 885 q 976 485 976 671 q 900 214 976 336 q 664 28 814 79 q 486 0 582 0 l 144 0 l 144 438 l 31 438 m 471 118 q 747 219 643 118 q 851 485 851 321 q 747 750 851 649 q 471 851 643 851 l 271 851 l 271 531 l 474 531 l 474 438 l 271 438 l 271 118 l 471 118 z "},"đ":{"ha":876,"x_min":67,"x_max":874,"o":"m 450 815 l 450 908 l 640 908 l 640 1014 l 767 1014 l 767 908 l 874 908 l 874 815 l 767 815 l 767 0 l 656 0 l 640 89 l 636 89 q 403 -14 538 -14 q 167 86 268 -14 q 67 354 67 186 q 167 622 67 522 q 403 722 268 722 q 636 619 538 722 l 640 619 l 640 815 l 450 815 m 421 104 q 640 208 546 104 l 640 500 q 421 604 546 604 q 256 539 318 604 q 193 354 193 474 q 256 169 193 235 q 421 104 318 104 z "},"Ē":{"ha":886,"x_min":135,"x_max":807,"o":"m 807 851 l 261 851 l 261 544 l 757 544 l 757 426 l 261 426 l 261 118 l 807 118 l 807 0 l 135 0 l 135 969 l 807 969 l 807 851 m 679 1150 l 679 1067 l 285 1067 l 285 1150 l 679 1150 z "},"ē":{"ha":792,"x_min":68,"x_max":732,"o":"m 732 354 l 732 310 l 196 310 q 268 158 207 213 q 453 104 329 104 q 683 174 578 104 l 690 174 l 690 51 q 416 -14 574 -14 q 163 83 258 -14 q 68 344 68 179 q 153 615 68 508 q 400 722 238 722 q 647 615 563 722 q 732 354 732 508 m 196 413 l 606 413 q 538 564 600 513 q 400 615 476 615 q 263 564 324 615 q 196 413 201 513 m 597 900 l 597 817 l 203 817 l 203 900 l 597 900 z "},"Ĕ":{"ha":886,"x_min":135,"x_max":807,"o":"m 807 851 l 261 851 l 261 544 l 757 544 l 757 426 l 261 426 l 261 118 l 807 118 l 807 0 l 135 0 l 135 969 l 807 969 l 807 851 m 594 1200 l 683 1200 q 615 1083 669 1126 q 479 1039 560 1039 q 344 1083 399 1039 q 275 1200 289 1126 l 364 1200 q 479 1119 392 1119 q 594 1200 567 1119 z "},"ĕ":{"ha":792,"x_min":68,"x_max":732,"o":"m 732 354 l 732 310 l 196 310 q 268 158 207 213 q 453 104 329 104 q 683 174 578 104 l 690 174 l 690 51 q 416 -14 574 -14 q 163 83 258 -14 q 68 344 68 179 q 153 615 68 508 q 400 722 238 722 q 647 615 563 722 q 732 354 732 508 m 196 413 l 606 413 q 538 564 600 513 q 400 615 476 615 q 263 564 324 615 q 196 413 201 513 m 510 961 l 599 961 q 530 844 585 888 q 394 800 475 800 q 259 844 314 800 q 190 961 204 888 l 279 961 q 394 881 307 881 q 510 961 482 881 z "},"Ė":{"ha":886,"x_min":135,"x_max":807,"o":"m 807 851 l 261 851 l 261 544 l 757 544 l 757 426 l 261 426 l 261 118 l 807 118 l 807 0 l 135 0 l 135 969 l 807 969 l 807 851 m 415 1042 l 415 1175 l 549 1175 l 549 1042 l 415 1042 z "},"ė":{"ha":792,"x_min":68,"x_max":732,"o":"m 732 354 l 732 310 l 196 310 q 268 158 207 213 q 453 104 329 104 q 683 174 578 104 l 690 174 l 690 51 q 416 -14 574 -14 q 163 83 258 -14 q 68 344 68 179 q 153 615 68 508 q 400 722 238 722 q 647 615 563 722 q 732 354 732 508 m 196 413 l 606 413 q 538 564 600 513 q 400 615 476 615 q 263 564 324 615 q 196 413 201 513 m 331 803 l 331 936 l 464 936 l 464 803 l 331 803 z "},"Ę":{"ha":886,"x_min":135,"x_max":807,"o":"m 807 0 q 651 -139 649 -58 q 722 -204 651 -204 q 806 -179 761 -204 l 806 -244 q 688 -282 750 -282 q 588 -250 626 -282 q 550 -165 550 -218 q 699 0 550 -61 l 135 0 l 135 969 l 807 969 l 807 851 l 261 851 l 261 544 l 757 544 l 757 426 l 261 426 l 261 118 l 807 118 l 807 0 z "},"ę":{"ha":793,"x_min":68,"x_max":732,"o":"m 732 354 l 732 310 l 193 310 q 267 159 204 214 q 453 104 329 104 q 683 174 578 104 l 690 174 l 690 51 q 555 -31 621 24 q 489 -139 489 -86 q 560 -204 489 -204 q 643 -179 600 -204 l 643 -244 q 526 -282 588 -282 q 426 -250 464 -282 q 388 -165 388 -218 q 497 -10 388 -75 q 428 -14 467 -14 q 163 83 258 -14 q 68 344 68 179 q 153 615 68 508 q 400 722 238 722 q 647 615 563 722 q 732 354 732 508 m 193 413 l 607 413 q 539 564 601 513 q 400 615 476 615 q 261 564 324 615 q 193 413 199 513 z "},"Ě":{"ha":886,"x_min":135,"x_max":807,"o":"m 807 851 l 261 851 l 261 544 l 757 544 l 757 426 l 261 426 l 261 118 l 807 118 l 807 0 l 135 0 l 135 969 l 807 969 l 807 851 m 685 1213 l 528 1042 l 414 1042 l 257 1213 l 367 1213 l 471 1111 l 575 1213 l 685 1213 z "},"ě":{"ha":792,"x_min":68,"x_max":732,"o":"m 732 354 l 732 310 l 196 310 q 268 158 207 213 q 453 104 329 104 q 683 174 578 104 l 690 174 l 690 51 q 416 -14 574 -14 q 163 83 258 -14 q 68 344 68 179 q 153 615 68 508 q 400 722 238 722 q 647 615 563 722 q 732 354 732 508 m 196 413 l 606 413 q 538 564 600 513 q 400 615 476 615 q 263 564 324 615 q 196 413 201 513 m 611 974 l 454 803 l 340 803 l 183 974 l 293 974 l 397 872 l 501 974 l 611 974 z "},"Ĝ":{"ha":1033,"x_min":76,"x_max":935,"o":"m 569 532 l 935 532 l 935 93 q 564 -14 756 -14 q 211 125 346 -14 q 76 485 76 264 q 215 844 76 706 q 549 983 354 983 q 919 876 744 983 l 919 746 l 914 746 q 577 861 743 861 q 307 761 411 861 q 203 490 203 661 q 304 212 203 318 q 581 106 406 106 q 824 167 711 106 l 824 418 l 569 418 l 569 532 m 611 1213 l 768 1042 l 658 1042 l 554 1143 l 450 1042 l 340 1042 l 497 1213 l 611 1213 z "},"ĝ":{"ha":876,"x_min":67,"x_max":767,"o":"m 656 708 l 767 708 l 767 31 q 682 -239 767 -144 q 437 -333 597 -333 q 144 -262 276 -333 l 144 -137 l 151 -137 q 428 -214 269 -214 q 640 13 640 -214 l 640 103 l 636 103 q 407 0 540 0 q 170 95 274 0 q 67 361 67 190 q 170 627 67 532 q 407 722 274 722 q 636 619 540 722 l 640 619 l 656 708 m 640 218 l 640 504 q 433 607 540 607 q 259 544 325 607 q 193 361 193 481 q 259 178 193 242 q 433 115 325 115 q 640 218 540 115 m 497 974 l 654 803 l 544 803 l 440 904 l 336 803 l 226 803 l 383 974 l 497 974 z "},"Ğ":{"ha":1033,"x_min":76,"x_max":935,"o":"m 569 532 l 935 532 l 935 93 q 564 -14 756 -14 q 211 125 346 -14 q 76 485 76 264 q 215 844 76 706 q 549 983 354 983 q 919 876 744 983 l 919 746 l 914 746 q 577 861 743 861 q 307 761 411 861 q 203 490 203 661 q 304 212 203 318 q 581 106 406 106 q 824 167 711 106 l 824 418 l 569 418 l 569 532 m 665 1200 l 754 1200 q 685 1083 740 1126 q 550 1039 631 1039 q 415 1083 469 1039 q 346 1200 360 1126 l 435 1200 q 550 1119 463 1119 q 665 1200 638 1119 z "},"ğ":{"ha":876,"x_min":67,"x_max":767,"o":"m 656 708 l 767 708 l 767 31 q 682 -239 767 -144 q 437 -333 597 -333 q 144 -262 276 -333 l 144 -137 l 151 -137 q 428 -214 269 -214 q 640 13 640 -214 l 640 103 l 636 103 q 407 0 540 0 q 170 95 274 0 q 67 361 67 190 q 170 627 67 532 q 407 722 274 722 q 636 619 540 722 l 640 619 l 656 708 m 640 218 l 640 504 q 433 607 540 607 q 259 544 325 607 q 193 361 193 481 q 259 178 193 242 q 433 115 325 115 q 640 218 540 115 m 553 961 l 642 961 q 573 844 628 888 q 438 800 518 800 q 302 844 357 800 q 233 961 247 888 l 322 961 q 438 881 350 881 q 553 961 525 881 z "},"Ġ":{"ha":1033,"x_min":76,"x_max":935,"o":"m 569 532 l 935 532 l 935 93 q 564 -14 756 -14 q 211 125 346 -14 q 76 485 76 264 q 215 844 76 706 q 549 983 354 983 q 919 876 744 983 l 919 746 l 914 746 q 577 861 743 861 q 307 761 411 861 q 203 490 203 661 q 304 212 203 318 q 581 106 406 106 q 824 167 711 106 l 824 418 l 569 418 l 569 532 m 476 1042 l 476 1175 l 610 1175 l 610 1042 l 476 1042 z "},"ġ":{"ha":876,"x_min":67,"x_max":767,"o":"m 656 708 l 767 708 l 767 31 q 682 -239 767 -144 q 437 -333 597 -333 q 144 -262 276 -333 l 144 -137 l 151 -137 q 428 -214 269 -214 q 640 13 640 -214 l 640 103 l 636 103 q 407 0 540 0 q 170 95 274 0 q 67 361 67 190 q 170 627 67 532 q 407 722 274 722 q 636 619 540 722 l 640 619 l 656 708 m 640 218 l 640 504 q 433 607 540 607 q 259 544 325 607 q 193 361 193 481 q 259 178 193 242 q 433 115 325 115 q 640 218 540 115 m 375 803 l 375 936 l 508 936 l 508 803 l 375 803 z "},"Ģ":{"ha":1033,"x_min":76,"x_max":935,"o":"m 569 532 l 935 532 l 935 93 q 564 -14 756 -14 q 211 125 346 -14 q 76 485 76 264 q 215 844 76 706 q 549 983 354 983 q 919 876 744 983 l 919 746 l 914 746 q 577 861 743 861 q 307 761 411 861 q 203 490 203 661 q 304 212 203 318 q 581 106 406 106 q 824 167 711 106 l 824 418 l 569 418 l 569 532 m 481 -74 l 613 -74 l 613 -204 q 481 -393 613 -336 l 481 -317 q 546 -204 546 -282 l 481 -204 l 481 -74 z "},"ģ":{"ha":876,"x_min":67,"x_max":767,"o":"m 508 803 l 378 803 l 378 933 q 508 1122 378 1065 l 508 1046 q 444 933 444 1011 l 508 933 l 508 803 m 656 708 l 767 708 l 767 31 q 682 -239 767 -144 q 437 -333 597 -333 q 144 -262 276 -333 l 144 -137 l 151 -137 q 428 -214 269 -214 q 640 13 640 -214 l 640 103 l 636 103 q 407 0 540 0 q 170 95 274 0 q 67 361 67 190 q 170 627 67 532 q 407 722 274 722 q 636 619 540 722 l 640 619 l 656 708 m 640 218 l 640 504 q 433 607 540 607 q 259 544 325 607 q 193 361 193 481 q 259 178 193 242 q 433 115 325 115 q 640 218 540 115 z "},"Ĥ":{"ha":1049,"x_min":135,"x_max":914,"o":"m 788 969 l 914 969 l 914 0 l 788 0 l 788 425 l 261 425 l 261 0 l 135 0 l 135 969 l 261 969 l 261 543 l 788 543 l 788 969 m 574 1213 l 731 1042 l 621 1042 l 517 1143 l 413 1042 l 303 1042 l 460 1213 l 574 1213 z "},"ĥ":{"ha":846,"x_min":-42,"x_max":743,"o":"m 494 722 q 676 644 610 722 q 743 450 743 567 l 743 0 l 617 0 l 617 436 q 464 606 617 606 q 236 472 343 606 l 236 0 l 110 0 l 110 1014 l 236 1014 l 236 599 l 240 599 q 494 722 353 722 m 229 1253 l 386 1082 l 276 1082 l 172 1183 l 68 1082 l -42 1082 l 115 1253 l 229 1253 z "},"Ħ":{"ha":1060,"x_min":38,"x_max":1022,"o":"m 1022 800 l 1022 707 l 919 707 l 919 0 l 793 0 l 793 425 l 267 425 l 267 0 l 140 0 l 140 707 l 38 707 l 38 800 l 140 800 l 140 969 l 267 969 l 267 800 l 793 800 l 793 969 l 919 969 l 919 800 l 1022 800 m 793 543 l 793 707 l 267 707 l 267 543 l 793 543 z "},"ħ":{"ha":846,"x_min":1,"x_max":743,"o":"m 1 815 l 1 908 l 110 908 l 110 1014 l 236 1014 l 236 908 l 426 908 l 426 815 l 236 815 l 236 599 l 240 599 q 494 722 353 722 q 676 644 610 722 q 743 450 743 567 l 743 0 l 617 0 l 617 436 q 464 606 617 606 q 236 472 343 606 l 236 0 l 110 0 l 110 815 l 1 815 z "},"Ĩ":{"ha":396,"x_min":-29,"x_max":425,"o":"m 261 969 l 261 0 l 135 0 l 135 969 l 261 969 m 363 1188 l 425 1188 q 387 1074 419 1113 q 309 1035 354 1035 q 195 1068 264 1035 q 92 1101 126 1101 q 32 1042 46 1101 l -29 1042 q 8 1156 -24 1117 q 85 1196 40 1196 q 199 1163 131 1196 q 304 1131 267 1131 q 363 1188 351 1131 z "},"ĩ":{"ha":357,"x_min":-49,"x_max":406,"o":"m 115 0 l 115 708 l 242 708 l 242 0 l 115 0 m 343 949 l 406 949 q 367 835 400 874 q 290 796 335 796 q 176 829 244 796 q 72 863 107 863 q 13 803 26 863 l -49 803 q -10 917 -43 878 q 67 957 22 957 q 180 924 111 957 q 285 892 249 892 q 343 949 332 892 z "},"Ī":{"ha":396,"x_min":0,"x_max":394,"o":"m 261 969 l 261 0 l 135 0 l 135 969 l 261 969 m 394 1150 l 394 1067 l 0 1067 l 0 1150 l 394 1150 z "},"ī":{"ha":357,"x_min":-19,"x_max":375,"o":"m 115 0 l 115 708 l 242 708 l 242 0 l 115 0 m 375 900 l 375 817 l -19 817 l -19 900 l 375 900 z "},"Ĭ":{"ha":396,"x_min":-7,"x_max":401,"o":"m 261 969 l 261 0 l 135 0 l 135 969 l 261 969 m 313 1200 l 401 1200 q 333 1083 388 1126 q 197 1039 278 1039 q 62 1083 117 1039 q -7 1200 7 1126 l 82 1200 q 197 1119 110 1119 q 313 1200 285 1119 z "},"ĭ":{"ha":357,"x_min":-26,"x_max":382,"o":"m 115 0 l 115 708 l 242 708 l 242 0 l 115 0 m 293 961 l 382 961 q 313 844 368 888 q 178 800 258 800 q 42 844 97 800 q -26 961 -12 888 l 63 961 q 178 881 90 881 q 293 961 265 881 z "},"Į":{"ha":396,"x_min":4,"x_max":261,"o":"m 261 0 q 106 -139 103 -58 q 176 -204 106 -204 q 260 -179 217 -204 l 260 -244 q 142 -282 204 -282 q 42 -250 81 -282 q 4 -165 4 -218 q 153 0 4 -61 l 135 0 l 135 969 l 261 969 l 261 0 z "},"į":{"ha":357,"x_min":-15,"x_max":247,"o":"m 242 0 q 86 -139 83 -58 q 157 -204 86 -204 q 240 -179 197 -204 l 240 -244 q 123 -282 185 -282 q 23 -250 61 -282 q -15 -165 -15 -218 q 133 0 -15 -61 l 115 0 l 115 708 l 242 708 l 242 0 m 247 994 l 247 858 l 111 858 l 111 994 l 247 994 z "},"İ":{"ha":396,"x_min":131,"x_max":264,"o":"m 261 969 l 261 0 l 135 0 l 135 969 l 261 969 m 131 1042 l 131 1175 l 264 1175 l 264 1042 l 131 1042 z "},"ı":{"ha":357,"x_min":115,"x_max":242,"o":"m 115 0 l 115 708 l 242 708 l 242 0 l 115 0 z "},"Ĳ":{"ha":1028,"x_min":135,"x_max":899,"o":"m 261 969 l 261 0 l 135 0 l 135 969 l 261 969 m 772 969 l 899 969 l 899 319 q 817 62 899 138 q 622 -14 736 -14 q 414 43 507 -14 l 414 168 l 419 168 q 592 106 504 106 q 726 149 679 106 q 772 311 772 192 l 772 969 z "},"ĳ":{"ha":701,"x_min":111,"x_max":592,"o":"m 115 0 l 115 708 l 242 708 l 242 0 l 115 0 m 247 994 l 247 858 l 111 858 l 111 994 l 247 994 m 456 994 l 592 994 l 592 858 l 456 858 l 456 994 m 460 -140 l 460 708 l 586 708 l 586 -143 q 542 -281 586 -229 q 404 -333 499 -333 q 300 -315 344 -333 l 300 -211 l 311 -211 q 381 -222 344 -222 q 439 -207 418 -222 q 460 -140 460 -192 z "},"Ĵ":{"ha":647,"x_min":33,"x_max":668,"o":"m 392 969 l 518 969 l 518 319 q 437 62 518 138 q 241 -14 356 -14 q 33 43 126 -14 l 33 168 l 39 168 q 211 106 124 106 q 345 149 299 106 q 392 311 392 192 l 392 969 m 511 1235 l 668 1064 l 558 1064 l 454 1165 l 350 1064 l 240 1064 l 397 1235 l 511 1235 z "},"ĵ":{"ha":357,"x_min":-44,"x_max":392,"o":"m 235 974 l 392 803 l 282 803 l 178 904 l 74 803 l -36 803 l 121 974 l 235 974 m 115 -140 l 115 708 l 242 708 l 242 -143 q 198 -281 242 -229 q 60 -333 154 -333 q -44 -315 0 -333 l -44 -211 l -33 -211 q 37 -222 0 -222 q 94 -207 74 -222 q 115 -140 115 -192 z "},"Ķ":{"ha":928,"x_min":135,"x_max":935,"o":"m 503 561 l 935 0 l 781 0 l 422 472 l 415 472 l 261 313 l 261 0 l 135 0 l 135 969 l 261 969 l 261 474 l 265 474 l 733 969 l 899 969 l 503 561 m 433 -74 l 565 -74 l 565 -204 q 433 -393 565 -336 l 433 -317 q 499 -204 499 -282 l 433 -204 l 433 -74 z "},"ķ":{"ha":757,"x_min":110,"x_max":749,"o":"m 429 424 l 749 0 l 593 0 l 343 335 l 339 335 l 236 232 l 236 0 l 110 0 l 110 1014 l 236 1014 l 236 393 l 240 393 l 547 708 l 717 708 l 429 424 m 336 -74 l 468 -74 l 468 -204 q 336 -393 468 -336 l 336 -317 q 401 -204 401 -282 l 336 -204 l 336 -74 z "},"ĸ":{"ha":758,"x_min":110,"x_max":749,"o":"m 429 424 l 749 0 l 593 0 l 343 335 l 339 335 l 236 232 l 236 0 l 110 0 l 110 708 l 236 708 l 236 393 l 240 393 l 547 708 l 717 708 l 429 424 z "},"Ĺ":{"ha":800,"x_min":135,"x_max":772,"o":"m 772 126 l 772 0 l 135 0 l 135 969 l 261 969 l 261 126 l 772 126 m 250 1226 l 388 1226 l 231 1042 l 144 1042 l 250 1226 z "},"ĺ":{"ha":368,"x_min":115,"x_max":358,"o":"m 247 1014 l 247 0 l 121 0 l 121 1014 l 247 1014 m 221 1271 l 358 1271 l 201 1086 l 115 1086 l 221 1271 z "},"Ļ":{"ha":799,"x_min":135,"x_max":772,"o":"m 772 126 l 772 0 l 135 0 l 135 969 l 261 969 l 261 126 l 772 126 m 388 -74 l 519 -74 l 519 -204 q 388 -393 519 -336 l 388 -317 q 453 -204 453 -282 l 388 -204 l 388 -74 z "},"ļ":{"ha":368,"x_min":118,"x_max":250,"o":"m 247 1014 l 247 0 l 121 0 l 121 1014 l 247 1014 m 118 -74 l 250 -74 l 250 -204 q 118 -393 250 -336 l 118 -317 q 183 -204 183 -282 l 118 -204 l 118 -74 z "},"Ľ":{"ha":800,"x_min":135,"x_max":772,"o":"m 772 126 l 772 0 l 135 0 l 135 969 l 261 969 l 261 126 l 772 126 m 428 969 l 560 969 l 560 839 q 428 650 560 707 l 428 726 q 493 839 493 761 l 428 839 l 428 969 z "},"ľ":{"ha":392,"x_min":121,"x_max":481,"o":"m 247 1014 l 247 0 l 121 0 l 121 1014 l 247 1014 m 349 1014 l 481 1014 l 481 883 q 349 694 481 751 l 349 771 q 414 883 414 806 l 349 883 l 349 1014 z "},"Ŀ":{"ha":800,"x_min":135,"x_max":772,"o":"m 772 126 l 772 0 l 135 0 l 135 969 l 261 969 l 261 126 l 772 126 m 428 439 l 428 572 l 561 572 l 561 439 l 428 439 z "},"ŀ":{"ha":525,"x_min":121,"x_max":494,"o":"m 247 1014 l 247 0 l 121 0 l 121 1014 l 247 1014 m 361 439 l 361 572 l 494 572 l 494 439 l 361 439 z "},"Ł":{"ha":822,"x_min":22,"x_max":779,"o":"m 283 126 l 779 126 l 779 0 l 157 0 l 157 357 l 22 281 l 22 388 l 157 464 l 157 969 l 283 969 l 283 536 l 542 683 l 542 576 l 283 429 l 283 126 z "},"ł":{"ha":425,"x_min":8,"x_max":417,"o":"m 268 571 l 417 657 l 417 549 l 268 464 l 268 0 l 142 0 l 142 392 l 8 317 l 8 424 l 142 500 l 142 1014 l 268 1014 l 268 571 z "},"Ń":{"ha":1115,"x_min":135,"x_max":981,"o":"m 854 969 l 981 969 l 981 0 l 825 0 l 264 799 l 261 799 l 261 0 l 135 0 l 135 969 l 290 969 l 850 172 l 854 172 l 854 969 m 621 1226 l 758 1226 l 601 1042 l 515 1042 l 621 1226 z "},"ń":{"ha":846,"x_min":110,"x_max":743,"o":"m 494 722 q 676 644 610 722 q 743 450 743 567 l 743 0 l 617 0 l 617 436 q 464 606 617 606 q 236 472 343 606 l 236 0 l 110 0 l 110 708 l 221 708 l 236 619 l 236 599 l 239 599 q 494 722 351 722 m 460 988 l 597 988 l 440 803 l 354 803 l 460 988 z "},"Ņ":{"ha":1115,"x_min":135,"x_max":981,"o":"m 854 969 l 981 969 l 981 0 l 825 0 l 264 799 l 261 799 l 261 0 l 135 0 l 135 969 l 290 969 l 850 172 l 854 172 l 854 969 m 472 -74 l 604 -74 l 604 -204 q 472 -393 604 -336 l 472 -317 q 538 -204 538 -282 l 472 -204 l 472 -74 z "},"ņ":{"ha":847,"x_min":110,"x_max":743,"o":"m 494 722 q 676 644 610 722 q 743 450 743 567 l 743 0 l 617 0 l 617 436 q 464 606 617 606 q 236 472 343 606 l 236 0 l 110 0 l 110 708 l 221 708 l 236 619 l 236 599 l 239 599 q 494 722 351 722 m 361 -74 l 493 -74 l 493 -204 q 361 -393 493 -336 l 361 -317 q 426 -204 426 -282 l 361 -204 l 361 -74 z "},"Ň":{"ha":1115,"x_min":135,"x_max":981,"o":"m 854 969 l 981 969 l 981 0 l 825 0 l 264 799 l 261 799 l 261 0 l 135 0 l 135 969 l 290 969 l 850 172 l 854 172 l 854 969 m 778 1213 l 621 1042 l 507 1042 l 350 1213 l 460 1213 l 564 1111 l 668 1213 l 778 1213 z "},"ň":{"ha":846,"x_min":110,"x_max":743,"o":"m 494 722 q 676 644 610 722 q 743 450 743 567 l 743 0 l 617 0 l 617 436 q 464 606 617 606 q 236 472 343 606 l 236 0 l 110 0 l 110 708 l 221 708 l 236 619 l 236 599 l 239 599 q 494 722 351 722 m 654 974 l 497 803 l 383 803 l 226 974 l 336 974 l 440 872 l 544 974 l 654 974 z "},"ŉ":{"ha":846,"x_min":90,"x_max":743,"o":"m 494 722 q 676 644 610 722 q 743 450 743 567 l 743 0 l 617 0 l 617 436 q 464 606 617 606 q 236 472 343 606 l 236 0 l 110 0 l 110 708 l 221 708 l 236 619 l 236 599 l 239 599 q 494 722 351 722 m 90 1088 l 222 1088 l 222 957 q 90 768 222 825 l 90 844 q 156 957 156 879 l 90 957 l 90 1088 z "},"Ŋ":{"ha":1115,"x_min":135,"x_max":981,"o":"m 854 -140 l 854 0 l 264 799 l 261 799 l 261 0 l 135 0 l 135 969 l 290 969 l 850 211 l 854 211 l 854 969 l 981 969 l 981 -143 q 937 -281 981 -229 q 799 -333 893 -333 q 694 -315 739 -333 l 694 -211 l 706 -211 q 776 -222 739 -222 q 833 -207 813 -222 q 854 -140 854 -192 z "},"ŋ":{"ha":846,"x_min":110,"x_max":743,"o":"m 617 -140 l 617 436 q 464 606 617 606 q 236 472 343 606 l 236 0 l 110 0 l 110 708 l 221 708 l 236 619 l 236 599 l 239 599 q 494 722 351 722 q 676 644 610 722 q 743 450 743 567 l 743 -143 q 699 -281 743 -229 q 561 -333 656 -333 q 457 -315 501 -333 l 457 -211 l 468 -211 q 538 -222 501 -222 q 596 -207 575 -222 q 617 -140 617 -192 z "},"Ō":{"ha":1126,"x_min":76,"x_max":1051,"o":"m 213 844 q 278 914 213 844 q 564 983 344 983 q 915 844 783 983 q 1051 485 1047 706 q 915 125 1047 264 q 564 -14 783 -14 q 213 125 344 -14 q 76 485 81 264 q 213 844 81 706 m 203 485 q 203 402 203 485 q 299 212 203 319 q 563 104 396 104 q 828 212 731 104 q 925 485 925 319 q 828 758 925 650 q 563 865 731 865 q 299 758 396 865 q 203 485 203 650 m 761 1150 l 761 1067 l 367 1067 l 367 1150 l 761 1150 z "},"ō":{"ha":844,"x_min":67,"x_max":778,"o":"m 67 354 q 67 437 67 354 q 164 621 67 519 q 422 722 261 722 q 680 621 582 722 q 778 354 778 519 q 680 88 778 189 q 422 -14 582 -14 q 164 88 261 -14 q 67 354 67 189 m 262 165 q 296 133 262 165 q 422 101 331 101 q 583 165 514 101 q 651 355 651 228 q 583 544 651 482 q 422 607 514 607 q 262 544 331 607 q 193 355 193 482 q 262 165 193 228 m 619 900 l 619 817 l 225 817 l 225 900 l 619 900 z "},"Ŏ":{"ha":1126,"x_min":76,"x_max":1051,"o":"m 213 844 q 278 914 213 844 q 564 983 344 983 q 915 844 783 983 q 1051 485 1047 706 q 915 125 1047 264 q 564 -14 783 -14 q 213 125 344 -14 q 76 485 81 264 q 213 844 81 706 m 203 485 q 203 402 203 485 q 299 212 203 319 q 563 104 396 104 q 828 212 731 104 q 925 485 925 319 q 828 758 925 650 q 563 865 731 865 q 299 758 396 865 q 203 485 203 650 m 679 1200 l 768 1200 q 699 1083 754 1126 q 564 1039 644 1039 q 428 1083 483 1039 q 360 1200 374 1126 l 449 1200 q 564 1119 476 1119 q 679 1200 651 1119 z "},"ŏ":{"ha":844,"x_min":67,"x_max":778,"o":"m 67 354 q 67 437 67 354 q 164 621 67 519 q 422 722 261 722 q 680 621 582 722 q 778 354 778 519 q 680 88 778 189 q 422 -14 582 -14 q 164 88 261 -14 q 67 354 67 189 m 262 165 q 296 133 262 165 q 422 101 331 101 q 583 165 514 101 q 651 355 651 228 q 583 544 651 482 q 422 607 514 607 q 262 544 331 607 q 193 355 193 482 q 262 165 193 228 m 538 961 l 626 961 q 558 844 613 888 q 422 800 503 800 q 287 844 342 800 q 218 961 232 888 l 307 961 q 422 881 335 881 q 538 961 510 881 z "},"Ő":{"ha":1126,"x_min":76,"x_max":1051,"o":"m 213 844 q 278 914 213 844 q 564 983 344 983 q 915 844 783 983 q 1051 485 1047 706 q 915 125 1047 264 q 564 -14 783 -14 q 213 125 344 -14 q 76 485 81 264 q 213 844 81 706 m 203 485 q 203 402 203 485 q 299 212 203 319 q 563 104 396 104 q 828 212 731 104 q 925 485 925 319 q 828 758 925 650 q 563 865 731 865 q 299 758 396 865 q 203 485 203 650 m 503 1226 l 640 1226 l 483 1042 l 397 1042 l 503 1226 m 718 1226 l 856 1226 l 697 1042 l 613 1042 l 718 1226 z "},"ő":{"ha":844,"x_min":67,"x_max":778,"o":"m 67 354 q 67 437 67 354 q 164 621 67 519 q 422 722 261 722 q 680 621 582 722 q 778 354 778 519 q 680 88 778 189 q 422 -14 582 -14 q 164 88 261 -14 q 67 354 67 189 m 262 165 q 296 133 262 165 q 422 101 331 101 q 583 165 514 101 q 651 355 651 228 q 583 544 651 482 q 422 607 514 607 q 262 544 331 607 q 193 355 193 482 q 262 165 193 228 m 349 988 l 486 988 l 329 803 l 243 803 l 349 988 m 564 988 l 701 988 l 543 803 l 458 803 l 564 988 z "},"Œ":{"ha":1542,"x_min":76,"x_max":1463,"o":"m 1463 851 l 917 851 l 917 544 l 1413 544 l 1413 425 l 917 425 l 917 118 l 1463 118 l 1463 0 l 790 0 l 790 49 q 564 -14 690 -14 q 213 125 344 -14 q 76 485 81 264 q 213 844 81 706 q 564 983 344 983 q 790 921 690 983 l 790 969 l 1463 969 l 1463 851 m 790 186 l 790 783 q 564 865 699 865 q 299 758 396 865 q 203 485 203 650 q 299 212 203 319 q 564 104 396 104 q 790 186 699 104 z "},"œ":{"ha":1371,"x_min":67,"x_max":1311,"o":"m 1311 354 l 1311 310 l 772 310 q 846 159 783 214 q 1033 104 908 104 q 1263 174 1157 104 l 1269 174 l 1269 51 q 1007 -14 1153 -14 q 711 132 797 -14 l 708 132 q 422 -14 618 -14 q 164 88 261 -14 q 67 354 67 189 q 164 621 67 519 q 422 722 261 722 q 708 575 618 722 l 711 575 q 979 722 793 722 q 1226 615 1142 722 q 1311 354 1311 508 m 262 165 q 296 133 262 165 q 422 101 331 101 q 583 165 514 101 q 651 355 651 228 q 583 544 651 482 q 422 607 514 607 q 262 544 331 607 q 193 355 193 482 q 262 165 193 228 m 772 413 l 1186 413 q 1118 564 1181 513 q 979 615 1056 615 q 840 564 903 615 q 772 413 778 513 z "},"Ŕ":{"ha":989,"x_min":135,"x_max":907,"o":"m 883 119 l 883 86 q 907 6 883 42 l 907 0 l 776 0 q 757 75 757 32 l 757 97 q 731 272 757 225 q 697 325 718 297 q 549 378 654 378 l 261 378 l 261 0 l 135 0 l 135 969 l 521 969 q 804 892 710 969 q 899 688 899 814 q 853 535 899 603 q 719 438 807 468 l 719 435 q 883 119 883 392 m 513 497 q 702 544 632 497 q 772 676 772 592 q 712 806 772 761 q 506 850 651 850 l 261 850 l 261 497 l 513 497 m 532 1226 l 669 1226 l 513 1042 l 426 1042 l 532 1226 z "},"ŕ":{"ha":538,"x_min":110,"x_max":511,"o":"m 500 722 l 511 722 l 511 601 l 500 601 q 347 569 418 601 q 236 481 276 538 l 236 0 l 110 0 l 110 708 l 221 708 l 236 619 l 236 599 l 239 599 q 500 722 339 722 m 339 988 l 476 988 l 319 803 l 233 803 l 339 988 z "},"Ŗ":{"ha":989,"x_min":135,"x_max":907,"o":"m 883 119 l 883 86 q 907 6 883 42 l 907 0 l 776 0 q 757 75 757 32 l 757 97 q 731 272 757 225 q 697 325 718 297 q 549 378 654 378 l 261 378 l 261 0 l 135 0 l 135 969 l 521 969 q 804 892 710 969 q 899 688 899 814 q 853 535 899 603 q 719 438 807 468 l 719 435 q 883 119 883 392 m 513 497 q 702 544 632 497 q 772 676 772 592 q 712 806 772 761 q 506 850 651 850 l 261 850 l 261 497 l 513 497 m 436 -74 l 568 -74 l 568 -204 q 436 -393 568 -336 l 436 -317 q 501 -204 501 -282 l 436 -204 l 436 -74 z "},"ŗ":{"ha":539,"x_min":107,"x_max":511,"o":"m 500 722 l 511 722 l 511 601 l 500 601 q 347 569 418 601 q 236 481 276 538 l 236 0 l 110 0 l 110 708 l 221 708 l 236 619 l 236 599 l 239 599 q 500 722 339 722 m 107 -74 l 239 -74 l 239 -204 q 107 -393 239 -336 l 107 -317 q 172 -204 172 -282 l 107 -204 l 107 -74 z "},"Ř":{"ha":989,"x_min":135,"x_max":907,"o":"m 883 119 l 883 86 q 907 6 883 42 l 907 0 l 776 0 q 757 75 757 32 l 757 97 q 731 272 757 225 q 697 325 718 297 q 549 378 654 378 l 261 378 l 261 0 l 135 0 l 135 969 l 521 969 q 804 892 710 969 q 899 688 899 814 q 853 535 899 603 q 719 438 807 468 l 719 435 q 883 119 883 392 m 513 497 q 702 544 632 497 q 772 676 772 592 q 712 806 772 761 q 506 850 651 850 l 261 850 l 261 497 l 513 497 m 717 1213 l 560 1042 l 446 1042 l 289 1213 l 399 1213 l 503 1111 l 607 1213 l 717 1213 z "},"ř":{"ha":538,"x_min":97,"x_max":525,"o":"m 500 722 l 511 722 l 511 601 l 500 601 q 347 569 418 601 q 236 481 276 538 l 236 0 l 110 0 l 110 708 l 221 708 l 236 619 l 236 599 l 239 599 q 500 722 339 722 m 525 974 l 368 803 l 254 803 l 97 974 l 207 974 l 311 872 l 415 974 l 525 974 z "},"Ś":{"ha":856,"x_min":81,"x_max":796,"o":"m 206 708 q 249 617 206 653 q 358 566 293 581 q 501 530 424 551 q 643 483 578 508 q 752 401 708 458 q 796 257 796 343 q 698 62 796 138 q 425 -14 600 -14 q 92 61 250 -14 l 92 185 l 99 185 q 428 104 243 104 q 671 265 671 104 q 553 382 671 344 q 439 414 501 399 q 313 450 376 429 q 198 499 250 471 q 113 578 146 528 q 81 699 81 629 q 176 901 81 819 q 433 983 271 983 q 725 933 594 983 l 725 815 l 715 815 q 465 868 585 868 q 275 826 344 868 q 206 708 206 783 m 464 1226 l 601 1226 l 444 1042 l 358 1042 l 464 1226 z "},"ś":{"ha":667,"x_min":72,"x_max":611,"o":"m 367 607 q 322 607 367 607 q 235 580 278 607 q 193 512 193 553 q 236 449 193 471 q 341 413 279 426 q 464 381 403 400 q 568 314 525 361 q 611 185 611 267 q 541 44 611 103 q 333 -14 471 -14 q 81 49 194 -14 l 81 169 l 88 169 q 335 103 200 103 q 489 201 489 103 q 446 253 489 233 q 342 288 403 274 q 219 321 281 301 q 115 386 158 340 q 72 503 72 432 q 142 661 72 600 q 333 722 213 722 q 558 683 454 722 l 558 568 l 549 568 q 367 607 456 607 m 358 988 l 496 988 l 339 803 l 253 803 l 358 988 z "},"Ŝ":{"ha":856,"x_min":81,"x_max":796,"o":"m 206 708 q 249 617 206 653 q 358 566 293 581 q 501 530 424 551 q 643 483 578 508 q 752 401 708 458 q 796 257 796 343 q 698 62 796 138 q 425 -14 600 -14 q 92 61 250 -14 l 92 185 l 99 185 q 428 104 243 104 q 671 265 671 104 q 553 382 671 344 q 439 414 501 399 q 313 450 376 429 q 198 499 250 471 q 113 578 146 528 q 81 699 81 629 q 176 901 81 819 q 433 983 271 983 q 725 933 594 983 l 725 815 l 715 815 q 465 868 585 868 q 275 826 344 868 q 206 708 206 783 m 492 1213 l 649 1042 l 539 1042 l 435 1143 l 331 1042 l 221 1042 l 378 1213 l 492 1213 z "},"ŝ":{"ha":667,"x_min":72,"x_max":611,"o":"m 367 607 q 322 607 367 607 q 235 580 278 607 q 193 512 193 553 q 236 449 193 471 q 341 413 279 426 q 464 381 403 400 q 568 314 525 361 q 611 185 611 267 q 541 44 611 103 q 333 -14 471 -14 q 81 49 194 -14 l 81 169 l 88 169 q 335 103 200 103 q 489 201 489 103 q 446 253 489 233 q 342 288 403 274 q 219 321 281 301 q 115 386 158 340 q 72 503 72 432 q 142 661 72 600 q 333 722 213 722 q 558 683 454 722 l 558 568 l 549 568 q 367 607 456 607 m 393 974 l 550 803 l 440 803 l 336 904 l 232 803 l 122 803 l 279 974 l 393 974 z "},"Ş":{"ha":857,"x_min":81,"x_max":796,"o":"m 419 -87 q 478 -82 442 -82 q 544 -109 514 -82 q 574 -179 574 -136 q 419 -307 574 -307 q 283 -264 347 -307 l 306 -215 q 401 -247 357 -247 q 481 -183 481 -247 q 467 -151 481 -162 q 426 -140 453 -140 q 367 -157 399 -140 l 326 -135 l 401 -14 q 92 61 226 -7 l 92 185 l 99 185 q 428 104 243 104 q 671 265 671 104 q 553 382 671 344 q 439 414 501 399 q 313 450 376 429 q 198 499 250 471 q 113 578 146 528 q 81 699 81 629 q 176 901 81 819 q 433 983 271 983 q 725 933 594 983 l 725 815 l 715 815 q 465 868 585 868 q 275 826 344 868 q 206 708 206 783 q 249 617 206 653 q 358 566 293 581 q 501 530 424 551 q 643 483 578 508 q 752 401 708 458 q 796 257 796 343 q 704 67 796 143 q 461 -14 613 -8 l 419 -87 z "},"ş":{"ha":669,"x_min":74,"x_max":613,"o":"m 314 -87 q 372 -82 336 -82 q 438 -109 408 -82 q 468 -179 468 -136 q 314 -307 468 -307 q 178 -264 242 -307 l 200 -215 q 296 -247 251 -247 q 375 -183 375 -247 q 361 -151 375 -162 q 320 -140 347 -140 q 261 -157 293 -140 l 221 -135 l 297 -12 q 82 49 172 -3 l 82 169 l 89 169 q 336 103 201 103 q 490 201 490 103 q 447 253 490 233 q 343 288 404 274 q 221 321 282 301 q 117 386 160 340 q 74 503 74 432 q 144 661 74 600 q 335 722 214 722 q 560 683 456 722 l 560 568 l 550 568 q 368 607 457 607 q 237 580 279 607 q 194 512 194 553 q 238 449 194 471 q 342 413 281 426 q 465 381 403 400 q 569 314 526 361 q 613 186 613 267 q 546 47 613 106 q 356 -14 479 -11 l 314 -87 z "},"Š":{"ha":856,"x_min":81,"x_max":796,"o":"m 206 708 q 249 617 206 653 q 358 566 293 581 q 501 530 424 551 q 643 483 578 508 q 752 401 708 458 q 796 257 796 343 q 698 62 796 138 q 425 -14 600 -14 q 92 61 250 -14 l 92 185 l 99 185 q 428 104 243 104 q 671 265 671 104 q 553 382 671 344 q 439 414 501 399 q 313 450 376 429 q 198 499 250 471 q 113 578 146 528 q 81 699 81 629 q 176 901 81 819 q 433 983 271 983 q 725 933 594 983 l 725 815 l 715 815 q 465 868 585 868 q 275 826 344 868 q 206 708 206 783 m 651 1213 l 494 1042 l 381 1042 l 224 1213 l 333 1213 l 438 1111 l 542 1213 l 651 1213 z "},"š":{"ha":667,"x_min":72,"x_max":611,"o":"m 367 607 q 322 607 367 607 q 235 580 278 607 q 193 512 193 553 q 236 449 193 471 q 341 413 279 426 q 464 381 403 400 q 568 314 525 361 q 611 185 611 267 q 541 44 611 103 q 333 -14 471 -14 q 81 49 194 -14 l 81 169 l 88 169 q 335 103 200 103 q 489 201 489 103 q 446 253 489 233 q 342 288 403 274 q 219 321 281 301 q 115 386 158 340 q 72 503 72 432 q 142 661 72 600 q 333 722 213 722 q 558 683 454 722 l 558 568 l 549 568 q 367 607 456 607 m 556 974 l 399 803 l 285 803 l 128 974 l 238 974 l 342 872 l 446 974 l 556 974 z "},"Ţ":{"ha":846,"x_min":25,"x_max":821,"o":"m 821 969 l 821 851 l 486 851 l 486 0 l 360 0 l 360 851 l 25 851 l 25 969 l 821 969 m 357 -74 l 489 -74 l 489 -204 q 357 -393 489 -336 l 357 -317 q 422 -204 422 -282 l 357 -204 l 357 -74 z "},"ţ":{"ha":532,"x_min":22,"x_max":482,"o":"m 482 600 l 281 600 l 281 181 q 314 108 281 122 q 381 97 339 97 q 472 119 422 97 l 482 119 l 482 17 q 357 -14 424 -14 q 154 169 154 -14 l 154 600 l 22 600 l 22 608 l 281 861 l 281 708 l 482 708 l 482 600 m 199 -74 l 331 -74 l 331 -204 q 199 -393 331 -336 l 199 -317 q 264 -204 264 -282 l 199 -204 l 199 -74 z "},"Ť":{"ha":849,"x_min":26,"x_max":822,"o":"m 822 969 l 822 851 l 488 851 l 488 0 l 361 0 l 361 851 l 26 851 l 26 969 l 822 969 m 638 1213 l 481 1042 l 367 1042 l 210 1213 l 319 1213 l 424 1111 l 528 1213 l 638 1213 z "},"ť":{"ha":533,"x_min":24,"x_max":514,"o":"m 483 600 l 282 600 l 282 181 q 314 108 282 122 q 382 97 340 97 q 474 119 424 97 l 483 119 l 483 17 q 358 -14 425 -14 q 156 169 156 -14 l 156 600 l 24 600 l 24 608 l 282 861 l 282 708 l 483 708 l 483 600 m 382 1085 l 514 1085 l 514 954 q 382 765 514 822 l 382 842 q 447 954 447 876 l 382 954 l 382 1085 z "},"Ŧ":{"ha":851,"x_min":28,"x_max":824,"o":"m 824 851 l 489 851 l 489 560 l 713 560 l 713 467 l 489 467 l 489 0 l 363 0 l 363 467 l 140 467 l 140 560 l 363 560 l 363 851 l 28 851 l 28 969 l 824 969 l 824 851 z "},"ŧ":{"ha":538,"x_min":26,"x_max":486,"o":"m 486 600 l 285 600 l 285 449 l 465 449 l 465 356 l 285 356 l 285 181 q 317 108 285 122 q 385 97 343 97 q 476 119 426 97 l 486 119 l 486 17 q 361 -14 428 -14 q 158 169 158 -14 l 158 356 l 49 356 l 49 449 l 158 449 l 158 600 l 26 600 l 26 608 l 285 861 l 285 708 l 486 708 l 486 600 z "},"Ũ":{"ha":1053,"x_min":128,"x_max":925,"o":"m 799 969 l 925 969 l 925 364 q 890 195 925 269 q 795 76 854 121 q 667 9 736 32 q 526 -14 599 -14 q 385 9 454 -14 q 258 76 317 32 q 163 195 199 121 q 128 364 128 269 l 128 969 l 254 969 l 254 360 q 335 169 254 238 q 526 101 415 101 q 718 169 638 101 q 799 360 799 238 l 799 969 m 696 1188 l 758 1188 q 720 1074 753 1113 q 642 1035 688 1035 q 528 1068 597 1035 q 425 1101 460 1101 q 365 1042 379 1101 l 304 1042 q 342 1156 310 1117 q 419 1196 375 1196 q 532 1163 464 1196 q 638 1131 600 1131 q 696 1188 685 1131 z "},"ũ":{"ha":847,"x_min":104,"x_max":738,"o":"m 353 -14 q 171 64 238 -14 q 104 258 104 142 l 104 708 l 231 708 l 231 272 q 383 103 231 103 q 611 236 504 103 l 611 708 l 738 708 l 738 0 l 626 0 l 611 89 l 611 110 l 608 110 q 353 -14 496 -14 m 594 949 l 657 949 q 619 835 651 874 q 541 796 586 796 q 427 829 496 796 q 324 863 358 863 q 264 803 278 863 l 203 803 q 240 917 208 878 q 318 957 272 957 q 432 924 364 957 q 536 892 500 892 q 594 949 583 892 z "},"Ū":{"ha":1053,"x_min":128,"x_max":925,"o":"m 799 969 l 925 969 l 925 364 q 890 195 925 269 q 795 76 854 121 q 667 9 736 32 q 526 -14 599 -14 q 385 9 454 -14 q 258 76 317 32 q 163 195 199 121 q 128 364 128 269 l 128 969 l 254 969 l 254 360 q 335 169 254 238 q 526 101 415 101 q 718 169 638 101 q 799 360 799 238 l 799 969 m 724 1150 l 724 1067 l 329 1067 l 329 1150 l 724 1150 z "},"ū":{"ha":847,"x_min":104,"x_max":738,"o":"m 353 -14 q 171 64 238 -14 q 104 258 104 142 l 104 708 l 231 708 l 231 272 q 383 103 231 103 q 611 236 504 103 l 611 708 l 738 708 l 738 0 l 626 0 l 611 89 l 611 110 l 608 110 q 353 -14 496 -14 m 618 900 l 618 817 l 224 817 l 224 900 l 618 900 z "},"Ŭ":{"ha":1053,"x_min":128,"x_max":925,"o":"m 799 969 l 925 969 l 925 364 q 890 195 925 269 q 795 76 854 121 q 667 9 736 32 q 526 -14 599 -14 q 385 9 454 -14 q 258 76 317 32 q 163 195 199 121 q 128 364 128 269 l 128 969 l 254 969 l 254 360 q 335 169 254 238 q 526 101 415 101 q 718 169 638 101 q 799 360 799 238 l 799 969 m 642 1200 l 731 1200 q 662 1083 717 1126 q 526 1039 607 1039 q 391 1083 446 1039 q 322 1200 336 1126 l 411 1200 q 526 1119 439 1119 q 642 1200 614 1119 z "},"ŭ":{"ha":847,"x_min":104,"x_max":738,"o":"m 353 -14 q 171 64 238 -14 q 104 258 104 142 l 104 708 l 231 708 l 231 272 q 383 103 231 103 q 611 236 504 103 l 611 708 l 738 708 l 738 0 l 626 0 l 611 89 l 611 110 l 608 110 q 353 -14 496 -14 m 536 961 l 625 961 q 556 844 611 888 q 421 800 501 800 q 285 844 340 800 q 217 961 231 888 l 306 961 q 421 881 333 881 q 536 961 508 881 z "},"Ů":{"ha":1053,"x_min":128,"x_max":925,"o":"m 799 969 l 925 969 l 925 364 q 890 195 925 269 q 795 76 854 121 q 667 9 736 32 q 526 -14 599 -14 q 385 9 454 -14 q 258 76 317 32 q 163 195 199 121 q 128 364 128 269 l 128 969 l 254 969 l 254 360 q 335 169 254 238 q 526 101 415 101 q 718 169 638 101 q 799 360 799 238 l 799 969 m 434 1237 q 453 1256 434 1237 q 526 1275 472 1275 q 619 1237 581 1275 q 657 1144 657 1199 q 619 1052 657 1090 q 526 1014 581 1014 q 434 1052 472 1014 q 396 1144 396 1090 q 434 1237 396 1199 m 478 1097 q 489 1086 478 1097 q 526 1076 499 1076 q 574 1097 554 1076 q 594 1144 594 1117 q 574 1192 594 1172 q 526 1213 554 1213 q 478 1192 499 1213 q 458 1144 458 1172 q 478 1097 458 1117 z "},"ů":{"ha":847,"x_min":104,"x_max":738,"o":"m 353 -14 q 171 64 238 -14 q 104 258 104 142 l 104 708 l 231 708 l 231 272 q 383 103 231 103 q 611 236 504 103 l 611 708 l 738 708 l 738 0 l 626 0 l 611 89 l 611 110 l 608 110 q 353 -14 496 -14 m 328 988 q 348 1007 328 988 q 421 1026 367 1026 q 513 988 475 1026 q 551 896 551 950 q 513 803 551 842 q 421 765 475 765 q 328 803 367 765 q 290 896 290 842 q 328 988 290 950 m 373 848 q 383 838 373 848 q 421 828 393 828 q 469 848 449 828 q 489 896 489 868 q 469 944 489 924 q 421 964 449 964 q 373 944 393 964 q 353 896 353 924 q 373 848 353 868 z "},"Ű":{"ha":1053,"x_min":128,"x_max":925,"o":"m 799 969 l 925 969 l 925 364 q 890 195 925 269 q 795 76 854 121 q 667 9 736 32 q 526 -14 599 -14 q 385 9 454 -14 q 258 76 317 32 q 163 195 199 121 q 128 364 128 269 l 128 969 l 254 969 l 254 360 q 335 169 254 238 q 526 101 415 101 q 718 169 638 101 q 799 360 799 238 l 799 969 m 457 1226 l 594 1226 l 438 1042 l 351 1042 l 457 1226 m 672 1226 l 810 1226 l 651 1042 l 567 1042 l 672 1226 z "},"ű":{"ha":847,"x_min":104,"x_max":738,"o":"m 353 -14 q 171 64 238 -14 q 104 258 104 142 l 104 708 l 231 708 l 231 272 q 383 103 231 103 q 611 236 504 103 l 611 708 l 738 708 l 738 0 l 626 0 l 611 89 l 611 110 l 608 110 q 353 -14 496 -14 m 350 988 l 488 988 l 331 803 l 244 803 l 350 988 m 565 988 l 703 988 l 544 803 l 460 803 l 565 988 z "},"Ų":{"ha":1053,"x_min":128,"x_max":925,"o":"m 799 969 l 925 969 l 925 364 q 874 166 925 249 q 736 38 822 83 q 642 -37 686 14 q 599 -137 597 -89 q 669 -204 599 -204 q 753 -179 710 -204 l 753 -244 q 635 -282 697 -282 q 535 -250 574 -282 q 497 -166 497 -218 q 525 -73 497 -114 q 599 -8 553 -32 q 510 -14 567 -14 q 385 9 454 -14 q 258 76 317 32 q 163 195 199 121 q 128 364 128 269 l 128 969 l 254 969 l 254 360 q 335 169 254 238 q 526 101 415 101 q 718 169 638 101 q 799 360 799 238 l 799 969 z "},"ų":{"ha":847,"x_min":104,"x_max":738,"o":"m 738 0 q 582 -139 579 -58 q 653 -204 582 -204 q 736 -179 692 -204 l 736 -244 q 619 -282 681 -282 q 519 -250 557 -282 q 481 -165 481 -218 q 629 0 481 -61 l 626 0 l 611 89 l 611 110 l 608 110 q 353 -14 497 -14 q 171 64 238 -14 q 104 258 104 142 l 104 708 l 231 708 l 231 272 q 383 103 231 103 q 611 236 504 103 l 611 708 l 738 708 l 738 0 z "},"Ŵ":{"ha":1399,"x_min":17,"x_max":1382,"o":"m 1250 969 l 1382 969 l 1065 0 l 939 0 l 703 753 l 696 753 l 460 0 l 333 0 l 17 969 l 149 969 l 393 169 l 397 169 l 644 969 l 754 969 l 1001 169 l 1006 169 l 1250 969 m 756 1213 l 913 1042 l 803 1042 l 699 1143 l 594 1042 l 485 1042 l 642 1213 l 756 1213 z "},"ŵ":{"ha":1090,"x_min":15,"x_max":1075,"o":"m 942 708 l 1075 708 l 832 0 l 708 0 l 547 507 l 543 507 l 382 0 l 258 0 l 15 708 l 149 708 l 317 153 l 321 153 l 493 708 l 597 708 l 769 153 l 774 153 l 942 708 m 601 974 l 758 803 l 649 803 l 544 904 l 440 803 l 331 803 l 488 974 l 601 974 z "},"Ŷ":{"ha":896,"x_min":-10,"x_max":906,"o":"m 751 969 l 906 969 l 511 410 l 511 0 l 385 0 l 385 410 l -10 969 l 144 969 l 444 526 l 451 526 l 751 969 m 504 1213 l 661 1042 l 551 1042 l 447 1143 l 343 1042 l 233 1042 l 390 1213 l 504 1213 z "},"ŷ":{"ha":740,"x_min":7,"x_max":735,"o":"m 735 708 l 308 -319 l 181 -319 l 300 -11 l 7 708 l 143 708 l 365 149 l 371 149 l 599 708 l 735 708 m 432 974 l 589 803 l 479 803 l 375 904 l 271 803 l 161 803 l 318 974 l 432 974 z "},"Ÿ":{"ha":896,"x_min":-10,"x_max":906,"o":"m 751 969 l 906 969 l 511 410 l 511 0 l 385 0 l 385 410 l -10 969 l 144 969 l 444 526 l 451 526 l 751 969 m 265 1042 l 265 1175 l 399 1175 l 399 1042 l 265 1042 m 499 1042 l 499 1175 l 632 1175 l 632 1042 l 499 1042 z "},"Ź":{"ha":886,"x_min":65,"x_max":815,"o":"m 815 969 l 815 856 l 224 122 l 224 118 l 815 118 l 815 0 l 65 0 l 65 111 l 657 843 l 657 849 l 76 849 l 76 969 l 815 969 m 464 1226 l 601 1226 l 444 1042 l 358 1042 l 464 1226 z "},"ź":{"ha":693,"x_min":64,"x_max":622,"o":"m 622 708 l 622 590 l 221 122 l 221 118 l 622 118 l 622 0 l 64 0 l 64 117 l 471 585 l 471 590 l 76 590 l 76 708 l 622 708 m 372 988 l 510 988 l 353 803 l 267 803 l 372 988 z "},"Ż":{"ha":886,"x_min":65,"x_max":815,"o":"m 815 969 l 815 856 l 224 122 l 224 118 l 815 118 l 815 0 l 65 0 l 65 111 l 657 843 l 657 849 l 76 849 l 76 969 l 815 969 m 388 1042 l 388 1175 l 521 1175 l 521 1042 l 388 1042 z "},"ż":{"ha":693,"x_min":64,"x_max":622,"o":"m 622 708 l 622 590 l 221 122 l 221 118 l 622 118 l 622 0 l 64 0 l 64 117 l 471 585 l 471 590 l 76 590 l 76 708 l 622 708 m 282 803 l 282 936 l 415 936 l 415 803 l 282 803 z "},"Ž":{"ha":886,"x_min":65,"x_max":815,"o":"m 815 969 l 815 856 l 224 122 l 224 118 l 815 118 l 815 0 l 65 0 l 65 111 l 657 843 l 657 849 l 76 849 l 76 969 l 815 969 m 658 1213 l 501 1042 l 388 1042 l 231 1213 l 340 1213 l 444 1111 l 549 1213 l 658 1213 z "},"ž":{"ha":693,"x_min":64,"x_max":622,"o":"m 622 708 l 622 590 l 221 122 l 221 118 l 622 118 l 622 0 l 64 0 l 64 117 l 471 585 l 471 590 l 76 590 l 76 708 l 622 708 m 561 974 l 404 803 l 290 803 l 133 974 l 243 974 l 347 872 l 451 974 l 561 974 z "},"ſ":{"ha":399,"x_min":33,"x_max":506,"o":"m 496 889 q 395 907 444 907 q 317 881 346 907 q 289 785 289 854 l 289 0 l 163 0 l 163 600 l 33 600 l 33 708 l 163 708 l 163 789 q 224 969 163 910 q 365 1028 286 1028 q 506 993 443 1028 l 506 889 l 496 889 z "},"ƒ":{"ha":560,"x_min":-61,"x_max":606,"o":"m 285 940 q 306 967 285 940 q 374 1015 326 994 q 490 1036 422 1036 q 606 1007 558 1036 l 590 903 l 581 903 q 485 921 538 921 q 401 894 433 921 q 360 799 369 868 l 331 593 l 536 593 l 524 507 l 319 507 l 250 17 q 197 -119 239 -65 q 8 -217 126 -217 l -61 -217 l -44 -101 l -7 -101 q 82 -75 50 -101 q 124 21 114 -49 l 192 507 l 42 507 l 53 593 l 204 593 l 233 803 q 285 940 244 885 z "},"Ơ":{"ha":1219,"x_min":76,"x_max":1204,"o":"m 1054 976 l 1204 976 l 1204 829 q 1165 648 1204 713 q 1044 561 1126 583 q 1051 485 1049 536 q 915 125 1047 264 q 564 -14 783 -14 q 213 125 344 -14 q 76 485 81 264 q 213 844 81 706 q 564 983 344 983 q 869 885 746 983 q 1033 622 993 788 q 1110 685 1089 639 q 1132 824 1132 731 l 1054 824 l 1054 976 m 203 485 q 203 402 203 485 q 299 212 203 319 q 563 104 396 104 q 828 212 731 104 q 925 485 925 319 q 828 758 925 650 q 563 865 731 865 q 299 758 396 865 q 203 485 203 650 z "},"ơ":{"ha":956,"x_min":67,"x_max":943,"o":"m 67 354 q 67 437 67 354 q 164 621 67 519 q 417 722 261 722 q 670 630 574 722 q 776 385 767 538 q 851 431 831 393 q 871 560 871 469 l 793 560 l 793 713 l 943 713 l 943 565 q 903 392 943 447 q 776 326 863 336 q 672 79 768 172 q 418 -14 575 -14 q 164 88 261 -14 q 67 354 67 189 m 262 165 q 296 133 262 165 q 422 101 331 101 q 583 165 514 101 q 651 355 651 228 q 583 544 651 482 q 422 607 514 607 q 262 544 331 607 q 193 355 193 482 q 262 165 193 228 z "},"Ư":{"ha":1171,"x_min":128,"x_max":1171,"o":"m 799 969 l 925 969 l 925 614 q 1063 659 1026 617 q 1099 817 1099 701 l 1021 817 l 1021 969 l 1171 969 l 1171 822 q 1113 619 1171 681 q 925 553 1054 557 l 925 364 q 890 195 925 269 q 795 76 854 121 q 667 9 736 32 q 526 -14 599 -14 q 385 9 454 -14 q 258 76 317 32 q 163 195 199 121 q 128 364 128 269 l 128 969 l 254 969 l 254 360 q 335 169 254 238 q 526 101 415 101 q 718 169 638 101 q 799 360 799 238 l 799 969 z "},"ư":{"ha":976,"x_min":104,"x_max":971,"o":"m 353 -14 q 171 64 238 -14 q 104 258 104 142 l 104 708 l 231 708 l 231 272 q 383 103 231 103 q 611 236 504 103 l 611 708 l 738 708 l 738 353 q 865 401 832 358 q 899 556 899 443 l 821 556 l 821 708 l 971 708 l 971 561 q 915 361 971 422 q 738 293 860 300 l 738 0 l 626 0 l 611 89 l 611 110 l 608 110 q 353 -14 497 -14 z "},"Ǽ":{"ha":1444,"x_min":-46,"x_max":1365,"o":"m 763 1226 l 900 1226 l 743 1042 l 657 1042 l 763 1226 m 1365 851 l 819 851 l 819 544 l 1315 544 l 1315 426 l 819 426 l 819 118 l 1365 118 l 1365 0 l 693 0 l 693 249 l 265 249 l 104 0 l -46 0 l 593 969 l 1365 969 l 1365 851 m 693 364 l 693 851 l 658 851 l 343 368 l 343 364 l 693 364 z "},"ǽ":{"ha":1256,"x_min":51,"x_max":1196,"o":"m 1196 354 l 1196 314 l 657 314 q 903 104 681 104 q 1150 175 1043 104 l 1154 175 l 1154 51 q 892 -14 1038 -14 q 610 107 703 -14 q 324 -14 531 -14 q 130 43 208 -14 q 51 198 51 100 q 133 356 51 296 q 371 415 214 415 l 539 415 l 539 431 q 494 563 539 522 q 338 603 449 603 q 126 554 226 603 l 121 554 l 121 669 q 375 722 242 722 q 613 606 542 722 q 863 722 700 722 q 1111 615 1026 722 q 1196 354 1196 508 m 539 235 l 539 314 l 388 314 q 178 208 178 314 q 223 129 178 161 q 348 97 268 97 q 483 128 428 97 q 539 235 539 158 m 657 415 l 1071 415 q 1003 565 1065 515 q 864 615 940 615 q 725 565 788 615 q 657 415 663 515 m 646 988 l 783 988 l 626 803 l 540 803 l 646 988 z "},"Ǿ":{"ha":1126,"x_min":76,"x_max":1051,"o":"m 882 876 q 1051 485 1047 738 q 915 125 1047 264 q 564 -14 783 -14 q 304 53 419 -14 l 238 -42 l 181 -1 l 247 93 q 76 485 83 229 q 213 844 81 706 q 564 983 344 983 q 825 917 713 983 l 892 1013 l 949 972 l 882 876 m 564 865 q 299 758 396 865 q 203 476 203 650 q 318 194 203 301 l 756 818 q 564 865 674 865 m 564 104 q 828 212 731 104 q 925 494 925 319 q 811 776 925 669 l 374 153 q 564 104 457 104 m 590 1226 l 728 1226 l 571 1042 l 485 1042 l 590 1226 z "},"ǿ":{"ha":844,"x_min":67,"x_max":778,"o":"m 663 638 q 778 361 778 533 q 680 88 778 189 q 422 -14 582 -14 q 238 32 318 -14 l 186 -42 l 129 -1 l 181 72 q 67 347 67 174 q 164 621 67 519 q 422 722 261 722 q 606 678 528 722 l 657 751 l 714 711 l 663 638 m 422 607 q 262 544 331 607 q 193 362 193 482 q 253 175 193 242 l 536 579 q 422 607 485 607 m 422 101 q 583 165 514 101 q 651 348 651 228 q 590 536 651 468 l 307 131 q 422 101 361 101 m 451 988 l 589 988 l 432 803 l 346 803 l 451 988 z "},"Ș":{"ha":857,"x_min":81,"x_max":796,"o":"m 206 708 q 249 617 206 653 q 358 566 293 581 q 501 530 424 551 q 643 483 578 508 q 752 401 708 458 q 796 257 796 343 q 698 62 796 138 q 425 -14 600 -14 q 92 61 250 -14 l 92 185 l 99 185 q 428 104 243 104 q 671 265 671 104 q 553 382 671 344 q 439 414 501 399 q 313 450 376 429 q 198 499 250 471 q 113 578 146 528 q 81 699 81 629 q 176 901 81 819 q 433 983 271 983 q 725 933 594 983 l 725 815 l 715 815 q 465 868 585 868 q 275 826 344 868 q 206 708 206 783 m 371 -74 l 503 -74 l 503 -204 q 371 -393 503 -336 l 371 -317 q 436 -204 436 -282 l 371 -204 l 371 -74 z "},"ș":{"ha":667,"x_min":72,"x_max":611,"o":"m 367 607 q 322 607 367 607 q 235 580 278 607 q 193 512 193 553 q 236 449 193 471 q 341 413 279 426 q 464 381 403 400 q 568 314 525 361 q 611 185 611 267 q 541 44 611 103 q 333 -14 471 -14 q 81 49 194 -14 l 81 169 l 88 169 q 335 103 200 103 q 489 201 489 103 q 446 253 489 233 q 342 288 403 274 q 219 321 281 301 q 115 386 158 340 q 72 503 72 432 q 142 661 72 600 q 333 722 213 722 q 558 683 454 722 l 558 568 l 549 568 q 367 607 456 607 m 275 -74 l 407 -74 l 407 -204 q 275 -393 407 -336 l 275 -317 q 340 -204 340 -282 l 275 -204 l 275 -74 z "},"Ț":{"ha":846,"x_min":25,"x_max":821,"o":"m 821 969 l 821 851 l 486 851 l 486 0 l 360 0 l 360 851 l 25 851 l 25 969 l 821 969 m 357 -74 l 489 -74 l 489 -204 q 357 -393 489 -336 l 357 -317 q 422 -204 422 -282 l 357 -204 l 357 -74 z "},"ț":{"ha":532,"x_min":22,"x_max":482,"o":"m 482 600 l 281 600 l 281 181 q 314 108 281 122 q 381 97 339 97 q 472 119 422 97 l 482 119 l 482 17 q 357 -14 424 -14 q 154 169 154 -14 l 154 600 l 22 600 l 22 608 l 281 861 l 281 708 l 482 708 l 482 600 m 199 -74 l 331 -74 l 331 -204 q 199 -393 331 -336 l 199 -317 q 264 -204 264 -282 l 199 -204 l 199 -74 z "},"ȷ":{"ha":357,"x_min":-44,"x_max":242,"o":"m 115 -140 l 115 708 l 242 708 l 242 -143 q 198 -281 242 -229 q 60 -333 154 -333 q -44 -315 0 -333 l -44 -211 l -33 -211 q 37 -222 0 -222 q 94 -207 74 -222 q 115 -140 115 -192 z "},"ˆ":{"ha":568,"x_min":68,"x_max":496,"o":"m 339 974 l 496 803 l 386 803 l 282 904 l 178 803 l 68 803 l 225 974 l 339 974 z "},"ˇ":{"ha":543,"x_min":68,"x_max":496,"o":"m 496 974 l 339 803 l 225 803 l 68 974 l 178 974 l 282 872 l 386 974 l 496 974 z "},"˘":{"ha":535,"x_min":63,"x_max":471,"o":"m 382 961 l 471 961 q 402 844 457 888 q 267 800 347 800 q 131 844 186 800 q 63 961 76 888 l 151 961 q 267 881 179 881 q 382 961 354 881 z "},"˙":{"ha":317,"x_min":92,"x_max":225,"o":"m 92 803 l 92 936 l 225 936 l 225 803 l 92 803 z "},"˚":{"ha":375,"x_min":60,"x_max":321,"o":"m 98 988 q 117 1007 98 988 q 190 1026 136 1026 q 283 988 244 1026 q 321 896 321 950 q 283 803 321 842 q 190 765 244 765 q 98 803 136 765 q 60 896 60 842 q 98 988 60 950 m 142 848 q 152 838 142 848 q 190 828 163 828 q 238 848 218 828 q 258 896 258 868 q 238 944 258 924 q 190 964 218 964 q 142 944 163 964 q 122 896 122 924 q 142 848 122 868 z "},"˛":{"ha":488,"x_min":96,"x_max":353,"o":"m 353 0 q 197 -139 194 -58 q 268 -204 197 -204 q 351 -179 307 -204 l 351 -244 q 234 -282 296 -282 q 134 -250 172 -282 q 96 -165 96 -218 q 244 0 96 -61 l 353 0 z "},"˜":{"ha":600,"x_min":74,"x_max":528,"o":"m 465 949 l 528 949 q 490 835 522 874 q 412 796 457 796 q 298 829 367 796 q 194 863 229 863 q 135 803 149 863 l 74 803 q 112 917 79 878 q 189 957 144 957 q 301 924 233 957 q 407 892 369 892 q 465 949 454 892 z "},"˝":{"ha":554,"x_min":49,"x_max":507,"o":"m 154 988 l 292 988 l 135 803 l 49 803 l 154 988 m 369 988 l 507 988 l 349 803 l 264 803 l 369 988 z "},"̉":{"ha":0,"x_min":-339,"x_max":-122,"o":"m -282 940 q -122 831 -122 940 q -226 731 -122 751 l -226 706 l -301 706 l -301 768 q -240 783 -272 769 q -208 824 -208 796 q -303 874 -208 874 q -339 872 -326 874 l -339 936 q -282 940 -315 940 z "},"̛":{"ha":0,"x_min":-390,"x_max":-121,"o":"m -271 969 l -121 969 l -121 822 q -185 608 -121 674 q -390 543 -250 543 l -390 604 q -234 649 -275 604 q -193 817 -193 694 l -271 817 l -271 969 z "},"̣":{"ha":0,"x_min":-221,"x_max":-87,"o":"m -221 -217 l -221 -83 l -87 -83 l -87 -217 l -221 -217 z "},"Ω":{"ha":1097,"x_min":82,"x_max":1015,"o":"m 1015 108 l 1015 0 l 650 0 l 650 104 q 797 214 725 136 q 863 332 838 258 q 888 497 888 406 q 795 751 888 646 q 549 857 703 857 q 302 751 394 857 q 210 497 210 646 q 235 332 210 406 q 300 214 260 258 q 447 104 372 136 l 447 0 l 82 0 l 82 108 l 268 108 l 268 110 q 96 513 96 251 q 149 734 96 628 q 308 912 201 840 q 549 983 414 983 q 790 912 683 983 q 949 734 896 840 q 1001 513 1001 628 q 829 110 1001 254 l 829 108 l 1015 108 z "},"π":{"ha":881,"x_min":39,"x_max":849,"o":"m 203 708 l 849 708 l 849 599 l 717 599 l 717 0 l 597 0 l 597 599 l 353 599 q 257 0 343 261 l 128 0 q 233 599 221 240 l 203 599 q 39 564 111 599 l 39 669 q 203 708 103 708 z "},"Ạ":{"ha":965,"x_min":6,"x_max":960,"o":"m 417 -217 l 417 -83 l 550 -83 l 550 -217 l 417 -217 m 822 0 l 718 249 l 247 249 l 143 0 l 6 0 l 417 969 l 549 969 l 960 0 l 822 0 m 297 371 l 297 364 l 668 364 l 668 371 l 485 814 l 482 814 l 297 371 z "},"ạ":{"ha":771,"x_min":53,"x_max":667,"o":"m 122 669 q 381 722 243 722 q 593 642 519 722 q 667 449 667 561 l 667 0 l 556 0 l 540 89 l 536 89 q 279 -14 436 -14 q 119 43 185 -14 q 53 199 53 100 q 134 358 53 297 q 372 419 215 419 l 540 419 l 540 431 q 495 563 540 522 q 339 603 450 603 q 131 556 228 603 l 122 556 l 122 669 m 540 201 l 540 318 l 389 318 q 179 208 179 318 q 326 97 179 97 q 444 127 388 97 q 540 201 501 157 m 307 -229 l 307 -96 l 440 -96 l 440 -229 l 307 -229 z "},"Ả":{"ha":968,"x_min":7,"x_max":961,"o":"m 463 1281 q 622 1171 622 1281 q 518 1071 622 1092 l 518 1046 l 443 1046 l 443 1108 q 504 1123 472 1110 q 536 1164 536 1136 q 442 1214 536 1214 q 406 1213 418 1214 l 406 1276 q 463 1281 429 1281 m 824 0 l 719 249 l 249 249 l 144 0 l 7 0 l 418 969 l 550 969 l 961 0 l 824 0 m 299 371 l 299 364 l 669 364 l 669 371 l 486 814 l 483 814 l 299 371 z "},"ả":{"ha":771,"x_min":53,"x_max":667,"o":"m 122 669 q 381 722 243 722 q 593 642 519 722 q 667 449 667 561 l 667 0 l 556 0 l 540 89 l 536 89 q 279 -14 436 -14 q 119 43 185 -14 q 53 199 53 100 q 134 358 53 297 q 372 419 215 419 l 540 419 l 540 431 q 495 563 540 522 q 339 603 450 603 q 131 556 228 603 l 122 556 l 122 669 m 540 201 l 540 318 l 389 318 q 179 208 179 318 q 326 97 179 97 q 444 127 388 97 q 540 201 501 157 m 344 1038 q 504 928 504 1038 q 400 828 504 849 l 400 803 l 325 803 l 325 865 q 386 880 354 867 q 418 921 418 893 q 324 971 418 971 q 288 969 300 971 l 288 1033 q 344 1038 311 1038 z "},"Ấ":{"ha":968,"x_min":7,"x_max":961,"o":"m 542 1190 l 699 1019 l 589 1019 l 485 1121 l 381 1019 l 271 1019 l 428 1190 l 542 1190 m 733 1328 l 871 1328 l 714 1143 l 628 1143 l 733 1328 m 824 0 l 719 249 l 249 249 l 144 0 l 7 0 l 418 969 l 550 969 l 961 0 l 824 0 m 299 371 l 299 364 l 669 364 l 669 371 l 486 814 l 483 814 l 299 371 z "},"ấ":{"ha":771,"x_min":53,"x_max":765,"o":"m 122 669 q 381 722 243 722 q 593 642 519 722 q 667 449 667 561 l 667 0 l 556 0 l 540 89 l 536 89 q 279 -14 436 -14 q 119 43 185 -14 q 53 199 53 100 q 134 358 53 297 q 372 419 215 419 l 540 419 l 540 431 q 495 563 540 522 q 339 603 450 603 q 131 556 228 603 l 122 556 l 122 669 m 540 201 l 540 318 l 389 318 q 179 208 179 318 q 326 97 179 97 q 444 127 388 97 q 540 201 501 157 m 436 974 l 593 803 l 483 803 l 379 904 l 275 803 l 165 803 l 322 974 l 436 974 m 628 1111 l 765 1111 l 608 926 l 522 926 l 628 1111 z "},"Ầ":{"ha":968,"x_min":7,"x_max":961,"o":"m 542 1190 l 699 1019 l 589 1019 l 485 1121 l 381 1019 l 271 1019 l 428 1190 l 542 1190 m 99 1328 l 236 1328 l 342 1143 l 256 1143 l 99 1328 m 824 0 l 719 249 l 249 249 l 144 0 l 7 0 l 418 969 l 550 969 l 961 0 l 824 0 m 299 371 l 299 364 l 669 364 l 669 371 l 486 814 l 483 814 l 299 371 z "},"ầ":{"ha":771,"x_min":-3,"x_max":667,"o":"m 122 669 q 381 722 243 722 q 593 642 519 722 q 667 449 667 561 l 667 0 l 556 0 l 540 89 l 536 89 q 279 -14 436 -14 q 119 43 185 -14 q 53 199 53 100 q 134 358 53 297 q 372 419 215 419 l 540 419 l 540 431 q 495 563 540 522 q 339 603 450 603 q 131 556 228 603 l 122 556 l 122 669 m 540 201 l 540 318 l 389 318 q 179 208 179 318 q 326 97 179 97 q 444 127 388 97 q 540 201 501 157 m 440 974 l 597 803 l 488 803 l 383 904 l 279 803 l 169 803 l 326 974 l 440 974 m -3 1111 l 135 1111 l 240 926 l 154 926 l -3 1111 z "},"Ẩ":{"ha":968,"x_min":7,"x_max":961,"o":"m 542 1190 l 699 1019 l 589 1019 l 485 1121 l 381 1019 l 271 1019 l 428 1190 l 542 1190 m 700 1331 q 860 1221 860 1331 q 756 1121 860 1142 l 756 1096 l 681 1096 l 681 1158 q 742 1173 710 1160 q 774 1214 774 1186 q 679 1264 774 1264 q 643 1263 656 1264 l 643 1326 q 700 1331 667 1331 m 824 0 l 719 249 l 249 249 l 144 0 l 7 0 l 418 969 l 550 969 l 961 0 l 824 0 m 299 371 l 299 364 l 669 364 l 669 371 l 486 814 l 483 814 l 299 371 z "},"ẩ":{"ha":771,"x_min":53,"x_max":754,"o":"m 122 669 q 381 722 243 722 q 593 642 519 722 q 667 449 667 561 l 667 0 l 556 0 l 540 89 l 536 89 q 279 -14 436 -14 q 119 43 185 -14 q 53 199 53 100 q 134 358 53 297 q 372 419 215 419 l 540 419 l 540 431 q 495 563 540 522 q 339 603 450 603 q 131 556 228 603 l 122 556 l 122 669 m 540 201 l 540 318 l 389 318 q 179 208 179 318 q 326 97 179 97 q 444 127 388 97 q 540 201 501 157 m 436 974 l 593 803 l 483 803 l 379 904 l 275 803 l 165 803 l 322 974 l 436 974 m 594 1114 q 754 1004 754 1114 q 650 904 754 925 l 650 879 l 575 879 l 575 942 q 636 956 604 943 q 668 997 668 969 q 574 1047 668 1047 q 538 1046 550 1047 l 538 1110 q 594 1114 561 1114 z "},"Ẫ":{"ha":968,"x_min":7,"x_max":961,"o":"m 542 1183 l 699 1013 l 589 1013 l 485 1114 l 381 1013 l 271 1013 l 428 1183 l 542 1183 m 651 1365 l 714 1365 q 676 1251 708 1290 q 598 1213 643 1213 q 484 1246 553 1213 q 381 1279 415 1279 q 321 1219 335 1279 l 260 1219 q 298 1334 265 1294 q 375 1374 331 1374 q 488 1341 419 1374 q 593 1308 556 1308 q 651 1365 640 1308 m 824 0 l 719 249 l 249 249 l 144 0 l 7 0 l 418 969 l 550 969 l 961 0 l 824 0 m 299 371 l 299 364 l 669 364 l 669 371 l 486 814 l 483 814 l 299 371 z "},"ẫ":{"ha":771,"x_min":53,"x_max":667,"o":"m 122 669 q 381 722 243 722 q 593 642 519 722 q 667 449 667 561 l 667 0 l 556 0 l 540 89 l 536 89 q 279 -14 436 -14 q 119 43 185 -14 q 53 199 53 100 q 134 358 53 297 q 372 419 215 419 l 540 419 l 540 431 q 495 563 540 522 q 339 603 450 603 q 131 556 228 603 l 122 556 l 122 669 m 540 201 l 540 318 l 389 318 q 179 208 179 318 q 326 97 179 97 q 444 127 388 97 q 540 201 501 157 m 438 967 l 594 796 l 485 796 l 381 897 l 276 796 l 167 796 l 324 967 l 438 967 m 547 1149 l 610 1149 q 572 1035 604 1074 q 494 996 539 996 q 380 1029 449 996 q 276 1063 311 1063 q 217 1003 231 1063 l 156 1003 q 193 1117 161 1078 q 271 1157 225 1157 q 385 1124 317 1157 q 489 1092 453 1092 q 547 1149 536 1092 z "},"Ậ":{"ha":965,"x_min":6,"x_max":960,"o":"m 540 1210 l 697 1039 l 588 1039 l 483 1140 l 379 1039 l 269 1039 l 426 1210 l 540 1210 m 417 -217 l 417 -83 l 550 -83 l 550 -217 l 417 -217 m 822 0 l 718 249 l 247 249 l 143 0 l 6 0 l 417 969 l 549 969 l 960 0 l 822 0 m 297 371 l 297 364 l 668 364 l 668 371 l 485 814 l 482 814 l 297 371 z "},"ậ":{"ha":771,"x_min":53,"x_max":667,"o":"m 122 669 q 381 722 243 722 q 593 642 519 722 q 667 449 667 561 l 667 0 l 556 0 l 540 89 l 536 89 q 279 -14 436 -14 q 119 43 185 -14 q 53 199 53 100 q 134 358 53 297 q 372 419 215 419 l 540 419 l 540 431 q 495 563 540 522 q 339 603 450 603 q 131 556 228 603 l 122 556 l 122 669 m 540 201 l 540 318 l 389 318 q 179 208 179 318 q 326 97 179 97 q 444 127 388 97 q 540 201 501 157 m 436 974 l 593 803 l 483 803 l 379 904 l 275 803 l 165 803 l 322 974 l 436 974 m 307 -229 l 307 -96 l 440 -96 l 440 -229 l 307 -229 z "},"Ắ":{"ha":968,"x_min":7,"x_max":961,"o":"m 600 1182 l 689 1182 q 620 1065 675 1108 q 485 1021 565 1021 q 349 1065 404 1021 q 281 1182 294 1108 l 369 1182 q 485 1101 397 1101 q 600 1182 572 1101 m 529 1368 l 667 1368 l 510 1183 l 424 1183 l 529 1368 m 824 0 l 719 249 l 249 249 l 144 0 l 7 0 l 418 969 l 550 969 l 961 0 l 824 0 m 299 371 l 299 364 l 669 364 l 669 371 l 486 814 l 483 814 l 299 371 z "},"ắ":{"ha":771,"x_min":53,"x_max":667,"o":"m 122 669 q 381 722 243 722 q 593 642 519 722 q 667 449 667 561 l 667 0 l 556 0 l 540 89 l 536 89 q 279 -14 436 -14 q 119 43 185 -14 q 53 199 53 100 q 134 358 53 297 q 372 419 215 419 l 540 419 l 540 431 q 495 563 540 522 q 339 603 450 603 q 131 556 228 603 l 122 556 l 122 669 m 540 201 l 540 318 l 389 318 q 179 208 179 318 q 326 97 179 97 q 444 127 388 97 q 540 201 501 157 m 489 961 l 578 961 q 509 844 564 888 q 374 800 454 800 q 238 844 293 800 q 169 961 183 888 l 258 961 q 374 881 286 881 q 489 961 461 881 m 418 1147 l 556 1147 l 399 963 l 313 963 l 418 1147 z "},"Ằ":{"ha":968,"x_min":7,"x_max":961,"o":"m 600 1182 l 689 1182 q 620 1065 675 1108 q 485 1021 565 1021 q 349 1065 404 1021 q 281 1182 294 1108 l 369 1182 q 485 1101 397 1101 q 600 1182 572 1101 m 303 1368 l 440 1368 l 546 1183 l 460 1183 l 303 1368 m 824 0 l 719 249 l 249 249 l 144 0 l 7 0 l 418 969 l 550 969 l 961 0 l 824 0 m 299 371 l 299 364 l 669 364 l 669 371 l 486 814 l 483 814 l 299 371 z "},"ằ":{"ha":771,"x_min":53,"x_max":667,"o":"m 122 669 q 381 722 243 722 q 593 642 519 722 q 667 449 667 561 l 667 0 l 556 0 l 540 89 l 536 89 q 279 -14 436 -14 q 119 43 185 -14 q 53 199 53 100 q 134 358 53 297 q 372 419 215 419 l 540 419 l 540 431 q 495 563 540 522 q 339 603 450 603 q 131 556 228 603 l 122 556 l 122 669 m 540 201 l 540 318 l 389 318 q 179 208 179 318 q 326 97 179 97 q 444 127 388 97 q 540 201 501 157 m 489 961 l 578 961 q 509 844 564 888 q 374 800 454 800 q 238 844 293 800 q 169 961 183 888 l 258 961 q 374 881 286 881 q 489 961 461 881 m 192 1147 l 329 1147 l 435 963 l 349 963 l 192 1147 z "},"Ẳ":{"ha":968,"x_min":7,"x_max":961,"o":"m 458 1410 q 618 1300 618 1410 q 514 1200 618 1221 l 514 1175 l 439 1175 l 439 1238 q 500 1252 468 1239 q 532 1293 532 1265 q 438 1343 532 1343 q 401 1342 414 1343 l 401 1406 q 458 1410 425 1410 m 600 1182 l 689 1182 q 620 1065 675 1108 q 485 1021 565 1021 q 349 1065 404 1021 q 281 1182 294 1108 l 369 1182 q 485 1101 397 1101 q 600 1182 572 1101 m 824 0 l 719 249 l 249 249 l 144 0 l 7 0 l 418 969 l 550 969 l 961 0 l 824 0 m 299 371 l 299 364 l 669 364 l 669 371 l 486 814 l 483 814 l 299 371 z "},"ẳ":{"ha":771,"x_min":53,"x_max":667,"o":"m 122 669 q 381 722 243 722 q 593 642 519 722 q 667 449 667 561 l 667 0 l 556 0 l 540 89 l 536 89 q 279 -14 436 -14 q 119 43 185 -14 q 53 199 53 100 q 134 358 53 297 q 372 419 215 419 l 540 419 l 540 431 q 495 563 540 522 q 339 603 450 603 q 131 556 228 603 l 122 556 l 122 669 m 540 201 l 540 318 l 389 318 q 179 208 179 318 q 326 97 179 97 q 444 127 388 97 q 540 201 501 157 m 347 1189 q 507 1079 507 1189 q 403 979 507 1000 l 403 954 l 328 954 l 328 1017 q 389 1031 357 1018 q 421 1072 421 1044 q 326 1122 421 1122 q 290 1121 303 1122 l 290 1185 q 347 1189 314 1189 m 489 961 l 578 961 q 509 844 564 888 q 374 800 454 800 q 238 844 293 800 q 169 961 183 888 l 258 961 q 374 881 286 881 q 489 961 461 881 z "},"Ẵ":{"ha":968,"x_min":7,"x_max":961,"o":"m 600 1179 l 689 1179 q 620 1062 675 1106 q 485 1018 565 1018 q 349 1062 404 1018 q 281 1179 294 1106 l 369 1179 q 485 1099 397 1099 q 600 1179 572 1099 m 651 1365 l 714 1365 q 676 1251 708 1290 q 598 1213 643 1213 q 484 1246 553 1213 q 381 1279 415 1279 q 321 1219 335 1279 l 260 1219 q 298 1334 265 1294 q 375 1374 331 1374 q 488 1341 419 1374 q 593 1308 556 1308 q 651 1365 640 1308 m 824 0 l 719 249 l 249 249 l 144 0 l 7 0 l 418 969 l 550 969 l 961 0 l 824 0 m 299 371 l 299 364 l 669 364 l 669 371 l 486 814 l 483 814 l 299 371 z "},"ẵ":{"ha":771,"x_min":53,"x_max":667,"o":"m 122 669 q 381 722 243 722 q 593 642 519 722 q 667 449 667 561 l 667 0 l 556 0 l 540 89 l 536 89 q 279 -14 436 -14 q 119 43 185 -14 q 53 199 53 100 q 134 358 53 297 q 372 419 215 419 l 540 419 l 540 431 q 495 563 540 522 q 339 603 450 603 q 131 556 228 603 l 122 556 l 122 669 m 540 201 l 540 318 l 389 318 q 179 208 179 318 q 326 97 179 97 q 444 127 388 97 q 540 201 501 157 m 489 961 l 578 961 q 509 844 564 888 q 374 800 454 800 q 238 844 293 800 q 169 961 183 888 l 258 961 q 374 881 286 881 q 489 961 461 881 m 540 1147 l 603 1147 q 565 1033 597 1072 q 487 994 532 994 q 373 1028 442 994 q 269 1061 304 1061 q 210 1001 224 1061 l 149 1001 q 187 1116 154 1076 q 264 1156 219 1156 q 376 1123 308 1156 q 482 1090 444 1090 q 540 1147 529 1090 z "},"Ặ":{"ha":965,"x_min":6,"x_max":960,"o":"m 599 1193 l 688 1193 q 619 1076 674 1119 q 483 1032 564 1032 q 348 1076 403 1032 q 279 1193 293 1119 l 368 1193 q 483 1113 396 1113 q 599 1193 571 1113 m 417 -217 l 417 -83 l 550 -83 l 550 -217 l 417 -217 m 822 0 l 718 249 l 247 249 l 143 0 l 6 0 l 417 969 l 549 969 l 960 0 l 822 0 m 297 371 l 297 364 l 668 364 l 668 371 l 485 814 l 482 814 l 297 371 z "},"ặ":{"ha":771,"x_min":53,"x_max":667,"o":"m 122 669 q 381 722 243 722 q 593 642 519 722 q 667 449 667 561 l 667 0 l 556 0 l 540 89 l 536 89 q 279 -14 436 -14 q 119 43 185 -14 q 53 199 53 100 q 134 358 53 297 q 372 419 215 419 l 540 419 l 540 431 q 495 563 540 522 q 339 603 450 603 q 131 556 228 603 l 122 556 l 122 669 m 540 201 l 540 318 l 389 318 q 179 208 179 318 q 326 97 179 97 q 444 127 388 97 q 540 201 501 157 m 492 954 l 581 954 q 512 837 567 881 q 376 793 457 793 q 241 837 296 793 q 172 954 186 881 l 261 954 q 376 874 289 874 q 492 954 464 874 m 307 -229 l 307 -96 l 440 -96 l 440 -229 l 307 -229 z "},"Ẹ":{"ha":886,"x_min":135,"x_max":807,"o":"m 807 851 l 261 851 l 261 544 l 757 544 l 757 426 l 261 426 l 261 118 l 807 118 l 807 0 l 135 0 l 135 969 l 807 969 l 807 851 m 410 -217 l 410 -83 l 543 -83 l 543 -217 l 410 -217 z "},"ẹ":{"ha":792,"x_min":68,"x_max":732,"o":"m 732 354 l 732 310 l 196 310 q 268 158 207 213 q 453 104 329 104 q 683 174 578 104 l 690 174 l 690 51 q 416 -14 574 -14 q 163 83 258 -14 q 68 344 68 179 q 153 615 68 508 q 400 722 238 722 q 647 615 563 722 q 732 354 732 508 m 196 413 l 606 413 q 538 564 600 513 q 400 615 476 615 q 263 564 324 615 q 196 413 201 513 m 343 -229 l 343 -96 l 476 -96 l 476 -229 l 343 -229 z "},"Ẻ":{"ha":886,"x_min":135,"x_max":807,"o":"m 807 851 l 261 851 l 261 544 l 757 544 l 757 426 l 261 426 l 261 118 l 807 118 l 807 0 l 135 0 l 135 969 l 807 969 l 807 851 m 456 1281 q 615 1171 615 1281 q 511 1071 615 1092 l 511 1046 l 436 1046 l 436 1108 q 497 1123 465 1110 q 529 1164 529 1136 q 435 1214 529 1214 q 399 1213 411 1214 l 399 1276 q 456 1281 422 1281 z "},"ẻ":{"ha":792,"x_min":68,"x_max":732,"o":"m 732 354 l 732 310 l 196 310 q 268 158 207 213 q 453 104 329 104 q 683 174 578 104 l 690 174 l 690 51 q 416 -14 574 -14 q 163 83 258 -14 q 68 344 68 179 q 153 615 68 508 q 400 722 238 722 q 647 615 563 722 q 732 354 732 508 m 196 413 l 606 413 q 538 564 600 513 q 400 615 476 615 q 263 564 324 615 q 196 413 201 513 m 375 1038 q 535 928 535 1038 q 431 828 535 849 l 431 803 l 356 803 l 356 865 q 417 880 385 867 q 449 921 449 893 q 354 971 449 971 q 318 969 331 971 l 318 1033 q 375 1038 342 1038 z "},"Ẽ":{"ha":886,"x_min":135,"x_max":807,"o":"m 807 851 l 261 851 l 261 544 l 757 544 l 757 426 l 261 426 l 261 118 l 807 118 l 807 0 l 135 0 l 135 969 l 807 969 l 807 851 m 651 1188 l 714 1188 q 676 1074 708 1113 q 598 1035 643 1035 q 484 1068 553 1035 q 381 1101 415 1101 q 321 1042 335 1101 l 260 1042 q 298 1156 265 1117 q 375 1196 331 1196 q 488 1163 419 1196 q 593 1131 556 1131 q 651 1188 640 1131 z "},"ẽ":{"ha":792,"x_min":68,"x_max":732,"o":"m 732 354 l 732 310 l 196 310 q 268 158 207 213 q 453 104 329 104 q 683 174 578 104 l 690 174 l 690 51 q 416 -14 574 -14 q 163 83 258 -14 q 68 344 68 179 q 153 615 68 508 q 400 722 238 722 q 647 615 563 722 q 732 354 732 508 m 196 413 l 606 413 q 538 564 600 513 q 400 615 476 615 q 263 564 324 615 q 196 413 201 513 m 567 949 l 629 949 q 591 835 624 874 q 513 796 558 796 q 399 829 468 796 q 296 863 331 863 q 236 803 250 863 l 175 803 q 213 917 181 878 q 290 957 244 957 q 403 924 335 957 q 508 892 472 892 q 567 949 556 892 z "},"Ế":{"ha":886,"x_min":135,"x_max":858,"o":"m 807 851 l 261 851 l 261 544 l 757 544 l 757 426 l 261 426 l 261 118 l 807 118 l 807 0 l 135 0 l 135 969 l 807 969 l 807 851 m 529 1190 l 686 1019 l 576 1019 l 472 1121 l 368 1019 l 258 1019 l 415 1190 l 529 1190 m 721 1328 l 858 1328 l 701 1143 l 615 1143 l 721 1328 z "},"ế":{"ha":792,"x_min":68,"x_max":785,"o":"m 732 354 l 732 310 l 196 310 q 268 158 207 213 q 453 104 329 104 q 683 174 578 104 l 690 174 l 690 51 q 416 -14 574 -14 q 163 83 258 -14 q 68 344 68 179 q 153 615 68 508 q 400 722 238 722 q 647 615 563 722 q 732 354 732 508 m 196 413 l 606 413 q 538 564 600 513 q 400 615 476 615 q 263 564 324 615 q 196 413 201 513 m 456 974 l 613 803 l 503 803 l 399 904 l 294 803 l 185 803 l 342 974 l 456 974 m 647 1111 l 785 1111 l 628 926 l 542 926 l 647 1111 z "},"Ề":{"ha":886,"x_min":99,"x_max":807,"o":"m 807 851 l 261 851 l 261 544 l 757 544 l 757 426 l 261 426 l 261 118 l 807 118 l 807 0 l 135 0 l 135 969 l 807 969 l 807 851 m 542 1190 l 699 1019 l 589 1019 l 485 1121 l 381 1019 l 271 1019 l 428 1190 l 542 1190 m 99 1328 l 236 1328 l 342 1143 l 256 1143 l 99 1328 z "},"ề":{"ha":792,"x_min":13,"x_max":732,"o":"m 732 354 l 732 310 l 196 310 q 268 158 207 213 q 453 104 329 104 q 683 174 578 104 l 690 174 l 690 51 q 416 -14 574 -14 q 163 83 258 -14 q 68 344 68 179 q 153 615 68 508 q 400 722 238 722 q 647 615 563 722 q 732 354 732 508 m 196 413 l 606 413 q 538 564 600 513 q 400 615 476 615 q 263 564 324 615 q 196 413 201 513 m 456 974 l 613 803 l 503 803 l 399 904 l 294 803 l 185 803 l 342 974 l 456 974 m 13 1111 l 150 1111 l 256 926 l 169 926 l 13 1111 z "},"Ể":{"ha":886,"x_min":135,"x_max":847,"o":"m 807 851 l 261 851 l 261 544 l 757 544 l 757 426 l 261 426 l 261 118 l 807 118 l 807 0 l 135 0 l 135 969 l 807 969 l 807 851 m 529 1190 l 686 1019 l 576 1019 l 472 1121 l 368 1019 l 258 1019 l 415 1190 l 529 1190 m 688 1331 q 847 1221 847 1331 q 743 1121 847 1142 l 743 1096 l 668 1096 l 668 1158 q 729 1173 697 1160 q 761 1214 761 1186 q 667 1264 761 1264 q 631 1263 643 1264 l 631 1326 q 688 1331 654 1331 z "},"ể":{"ha":792,"x_min":68,"x_max":774,"o":"m 732 354 l 732 310 l 196 310 q 268 158 207 213 q 453 104 329 104 q 683 174 578 104 l 690 174 l 690 51 q 416 -14 574 -14 q 163 83 258 -14 q 68 344 68 179 q 153 615 68 508 q 400 722 238 722 q 647 615 563 722 q 732 354 732 508 m 196 413 l 606 413 q 538 564 600 513 q 400 615 476 615 q 263 564 324 615 q 196 413 201 513 m 456 974 l 613 803 l 503 803 l 399 904 l 294 803 l 185 803 l 342 974 l 456 974 m 614 1114 q 774 1004 774 1114 q 669 904 774 925 l 669 879 l 594 879 l 594 942 q 656 956 624 943 q 688 997 688 969 q 593 1047 688 1047 q 557 1046 569 1047 l 557 1110 q 614 1114 581 1114 z "},"Ễ":{"ha":886,"x_min":135,"x_max":807,"o":"m 807 851 l 261 851 l 261 544 l 757 544 l 757 426 l 261 426 l 261 118 l 807 118 l 807 0 l 135 0 l 135 969 l 807 969 l 807 851 m 542 1183 l 699 1013 l 589 1013 l 485 1114 l 381 1013 l 271 1013 l 428 1183 l 542 1183 m 651 1365 l 714 1365 q 676 1251 708 1290 q 598 1213 643 1213 q 484 1246 553 1213 q 381 1279 415 1279 q 321 1219 335 1279 l 260 1219 q 298 1334 265 1294 q 375 1374 331 1374 q 488 1341 419 1374 q 593 1308 556 1308 q 651 1365 640 1308 z "},"ễ":{"ha":792,"x_min":68,"x_max":732,"o":"m 732 354 l 732 310 l 196 310 q 268 158 207 213 q 453 104 329 104 q 683 174 578 104 l 690 174 l 690 51 q 416 -14 574 -14 q 163 83 258 -14 q 68 344 68 179 q 153 615 68 508 q 400 722 238 722 q 647 615 563 722 q 732 354 732 508 m 196 413 l 606 413 q 538 564 600 513 q 400 615 476 615 q 263 564 324 615 q 196 413 201 513 m 456 967 l 613 796 l 503 796 l 399 897 l 294 796 l 185 796 l 342 967 l 456 967 m 565 1149 l 628 1149 q 590 1035 622 1074 q 512 996 557 996 q 398 1029 467 996 q 294 1063 329 1063 q 235 1003 249 1063 l 174 1003 q 212 1117 179 1078 q 290 1157 244 1157 q 403 1124 335 1157 q 507 1092 471 1092 q 565 1149 554 1092 z "},"Ệ":{"ha":886,"x_min":135,"x_max":807,"o":"m 807 851 l 261 851 l 261 544 l 757 544 l 757 426 l 261 426 l 261 118 l 807 118 l 807 0 l 135 0 l 135 969 l 807 969 l 807 851 m 546 1210 l 703 1039 l 593 1039 l 489 1140 l 385 1039 l 275 1039 l 432 1210 l 546 1210 m 422 -217 l 422 -83 l 556 -83 l 556 -217 l 422 -217 z "},"ệ":{"ha":792,"x_min":68,"x_max":732,"o":"m 732 354 l 732 310 l 196 310 q 268 158 207 213 q 453 104 329 104 q 683 174 578 104 l 690 174 l 690 51 q 416 -14 574 -14 q 163 83 258 -14 q 68 344 68 179 q 153 615 68 508 q 400 722 238 722 q 647 615 563 722 q 732 354 732 508 m 196 413 l 606 413 q 538 564 600 513 q 400 615 476 615 q 263 564 324 615 q 196 413 201 513 m 456 974 l 613 803 l 503 803 l 399 904 l 294 803 l 185 803 l 342 974 l 456 974 m 343 -229 l 343 -96 l 476 -96 l 476 -229 l 343 -229 z "},"Ỉ":{"ha":396,"x_min":114,"x_max":331,"o":"m 261 969 l 261 0 l 135 0 l 135 969 l 261 969 m 171 1281 q 331 1171 331 1281 q 226 1071 331 1092 l 226 1046 l 151 1046 l 151 1108 q 213 1123 181 1110 q 244 1164 244 1136 q 150 1214 244 1214 q 114 1213 126 1214 l 114 1276 q 171 1281 138 1281 z "},"ỉ":{"ha":357,"x_min":94,"x_max":311,"o":"m 151 1038 q 311 928 311 1038 q 207 828 311 849 l 207 803 l 132 803 l 132 865 q 193 880 161 867 q 225 921 225 893 q 131 971 225 971 q 94 969 107 971 l 94 1033 q 151 1038 118 1038 m 115 0 l 115 708 l 242 708 l 242 0 l 115 0 z "},"Ị":{"ha":396,"x_min":131,"x_max":264,"o":"m 261 969 l 261 0 l 135 0 l 135 969 l 261 969 m 131 -217 l 131 -83 l 264 -83 l 264 -217 l 131 -217 z "},"ị":{"ha":357,"x_min":111,"x_max":247,"o":"m 115 0 l 115 708 l 242 708 l 242 0 l 115 0 m 247 994 l 247 858 l 111 858 l 111 994 l 247 994 m 113 -217 l 113 -83 l 246 -83 l 246 -217 l 113 -217 z "},"Ọ":{"ha":1126,"x_min":76,"x_max":1051,"o":"m 213 844 q 278 914 213 844 q 564 983 344 983 q 915 844 783 983 q 1051 485 1047 706 q 915 125 1047 264 q 564 -14 783 -14 q 213 125 344 -14 q 76 485 81 264 q 213 844 81 706 m 203 485 q 203 402 203 485 q 299 212 203 319 q 563 104 396 104 q 828 212 731 104 q 925 485 925 319 q 828 758 925 650 q 563 865 731 865 q 299 758 396 865 q 203 485 203 650 m 497 -229 l 497 -96 l 631 -96 l 631 -229 l 497 -229 z "},"ọ":{"ha":844,"x_min":67,"x_max":778,"o":"m 67 354 q 67 437 67 354 q 164 621 67 519 q 422 722 261 722 q 680 621 582 722 q 778 354 778 519 q 680 88 778 189 q 422 -14 582 -14 q 164 88 261 -14 q 67 354 67 189 m 262 165 q 296 133 262 165 q 422 101 331 101 q 583 165 514 101 q 651 355 651 228 q 583 544 651 482 q 422 607 514 607 q 262 544 331 607 q 193 355 193 482 q 262 165 193 228 m 356 -229 l 356 -96 l 489 -96 l 489 -229 l 356 -229 z "},"Ỏ":{"ha":1126,"x_min":76,"x_max":1051,"o":"m 213 844 q 278 914 213 844 q 564 983 344 983 q 915 844 783 983 q 1051 485 1047 706 q 915 125 1047 264 q 564 -14 783 -14 q 213 125 344 -14 q 76 485 81 264 q 213 844 81 706 m 203 485 q 203 402 203 485 q 299 212 203 319 q 563 104 396 104 q 828 212 731 104 q 925 485 925 319 q 828 758 925 650 q 563 865 731 865 q 299 758 396 865 q 203 485 203 650 m 531 1281 q 690 1171 690 1281 q 586 1071 690 1092 l 586 1046 l 511 1046 l 511 1108 q 572 1123 540 1110 q 604 1164 604 1136 q 510 1214 604 1214 q 474 1213 486 1214 l 474 1276 q 531 1281 497 1281 z "},"ỏ":{"ha":844,"x_min":67,"x_max":778,"o":"m 67 354 q 67 437 67 354 q 164 621 67 519 q 422 722 261 722 q 680 621 582 722 q 778 354 778 519 q 680 88 778 189 q 422 -14 582 -14 q 164 88 261 -14 q 67 354 67 189 m 262 165 q 296 133 262 165 q 422 101 331 101 q 583 165 514 101 q 651 355 651 228 q 583 544 651 482 q 422 607 514 607 q 262 544 331 607 q 193 355 193 482 q 262 165 193 228 m 400 1038 q 560 928 560 1038 q 456 828 560 849 l 456 803 l 381 803 l 381 865 q 442 880 410 867 q 474 921 474 893 q 379 971 474 971 q 343 969 356 971 l 343 1033 q 400 1038 367 1038 z "},"Ố":{"ha":1126,"x_min":76,"x_max":1051,"o":"m 213 844 q 278 914 213 844 q 564 983 344 983 q 915 844 783 983 q 1051 485 1047 706 q 915 125 1047 264 q 564 -14 783 -14 q 213 125 344 -14 q 76 485 81 264 q 213 844 81 706 m 203 485 q 203 402 203 485 q 299 212 203 319 q 563 104 396 104 q 828 212 731 104 q 925 485 925 319 q 828 758 925 650 q 563 865 731 865 q 299 758 396 865 q 203 485 203 650 m 621 1190 l 778 1019 l 668 1019 l 564 1121 l 460 1019 l 350 1019 l 507 1190 l 621 1190 m 813 1328 l 950 1328 l 793 1143 l 707 1143 l 813 1328 z "},"ố":{"ha":844,"x_min":67,"x_max":808,"o":"m 67 354 q 67 437 67 354 q 164 621 67 519 q 422 722 261 722 q 680 621 582 722 q 778 354 778 519 q 680 88 778 189 q 422 -14 582 -14 q 164 88 261 -14 q 67 354 67 189 m 262 165 q 296 133 262 165 q 422 101 331 101 q 583 165 514 101 q 651 355 651 228 q 583 544 651 482 q 422 607 514 607 q 262 544 331 607 q 193 355 193 482 q 262 165 193 228 m 479 974 l 636 803 l 526 803 l 422 904 l 318 803 l 208 803 l 365 974 l 479 974 m 671 1111 l 808 1111 l 651 926 l 565 926 l 671 1111 z "},"Ồ":{"ha":1126,"x_min":76,"x_max":1051,"o":"m 213 844 q 278 914 213 844 q 564 983 344 983 q 915 844 783 983 q 1051 485 1047 706 q 915 125 1047 264 q 564 -14 783 -14 q 213 125 344 -14 q 76 485 81 264 q 213 844 81 706 m 203 485 q 203 402 203 485 q 299 212 203 319 q 563 104 396 104 q 828 212 731 104 q 925 485 925 319 q 828 758 925 650 q 563 865 731 865 q 299 758 396 865 q 203 485 203 650 m 621 1190 l 778 1019 l 668 1019 l 564 1121 l 460 1019 l 350 1019 l 507 1190 l 621 1190 m 178 1328 l 315 1328 l 421 1143 l 335 1143 l 178 1328 z "},"ồ":{"ha":844,"x_min":36,"x_max":778,"o":"m 67 354 q 67 437 67 354 q 164 621 67 519 q 422 722 261 722 q 680 621 582 722 q 778 354 778 519 q 680 88 778 189 q 422 -14 582 -14 q 164 88 261 -14 q 67 354 67 189 m 262 165 q 296 133 262 165 q 422 101 331 101 q 583 165 514 101 q 651 355 651 228 q 583 544 651 482 q 422 607 514 607 q 262 544 331 607 q 193 355 193 482 q 262 165 193 228 m 479 974 l 636 803 l 526 803 l 422 904 l 318 803 l 208 803 l 365 974 l 479 974 m 36 1111 l 174 1111 l 279 926 l 193 926 l 36 1111 z "},"Ổ":{"ha":1126,"x_min":76,"x_max":1051,"o":"m 213 844 q 278 914 213 844 q 564 983 344 983 q 915 844 783 983 q 1051 485 1047 706 q 915 125 1047 264 q 564 -14 783 -14 q 213 125 344 -14 q 76 485 81 264 q 213 844 81 706 m 203 485 q 203 402 203 485 q 299 212 203 319 q 563 104 396 104 q 828 212 731 104 q 925 485 925 319 q 828 758 925 650 q 563 865 731 865 q 299 758 396 865 q 203 485 203 650 m 621 1190 l 778 1019 l 668 1019 l 564 1121 l 460 1019 l 350 1019 l 507 1190 l 621 1190 m 779 1331 q 939 1221 939 1331 q 835 1121 939 1142 l 835 1096 l 760 1096 l 760 1158 q 821 1173 789 1160 q 853 1214 853 1186 q 758 1264 853 1264 q 722 1263 735 1264 l 722 1326 q 779 1331 746 1331 z "},"ổ":{"ha":844,"x_min":67,"x_max":797,"o":"m 67 354 q 67 437 67 354 q 164 621 67 519 q 422 722 261 722 q 680 621 582 722 q 778 354 778 519 q 680 88 778 189 q 422 -14 582 -14 q 164 88 261 -14 q 67 354 67 189 m 262 165 q 296 133 262 165 q 422 101 331 101 q 583 165 514 101 q 651 355 651 228 q 583 544 651 482 q 422 607 514 607 q 262 544 331 607 q 193 355 193 482 q 262 165 193 228 m 479 974 l 636 803 l 526 803 l 422 904 l 318 803 l 208 803 l 365 974 l 479 974 m 638 1114 q 797 1004 797 1114 q 693 904 797 925 l 693 879 l 618 879 l 618 942 q 679 956 647 943 q 711 997 711 969 q 617 1047 711 1047 q 581 1046 593 1047 l 581 1110 q 638 1114 604 1114 z "},"Ỗ":{"ha":1126,"x_min":76,"x_max":1051,"o":"m 213 844 q 278 914 213 844 q 564 983 344 983 q 915 844 783 983 q 1051 485 1047 706 q 915 125 1047 264 q 564 -14 783 -14 q 213 125 344 -14 q 76 485 81 264 q 213 844 81 706 m 203 485 q 203 402 203 485 q 299 212 203 319 q 563 104 396 104 q 828 212 731 104 q 925 485 925 319 q 828 758 925 650 q 563 865 731 865 q 299 758 396 865 q 203 485 203 650 m 621 1183 l 778 1013 l 668 1013 l 564 1114 l 460 1013 l 350 1013 l 507 1183 l 621 1183 m 731 1365 l 793 1365 q 755 1251 788 1290 q 677 1213 722 1213 q 563 1246 632 1213 q 460 1279 494 1279 q 400 1219 414 1279 l 339 1219 q 376 1334 344 1294 q 454 1374 408 1374 q 568 1341 500 1374 q 672 1308 636 1308 q 731 1365 719 1308 z "},"ỗ":{"ha":844,"x_min":67,"x_max":778,"o":"m 67 354 q 67 437 67 354 q 164 621 67 519 q 422 722 261 722 q 680 621 582 722 q 778 354 778 519 q 680 88 778 189 q 422 -14 582 -14 q 164 88 261 -14 q 67 354 67 189 m 262 165 q 296 133 262 165 q 422 101 331 101 q 583 165 514 101 q 651 355 651 228 q 583 544 651 482 q 422 607 514 607 q 262 544 331 607 q 193 355 193 482 q 262 165 193 228 m 479 967 l 636 796 l 526 796 l 422 897 l 318 796 l 208 796 l 365 967 l 479 967 m 589 1149 l 651 1149 q 613 1035 646 1074 q 535 996 581 996 q 422 1029 490 996 q 318 1063 353 1063 q 258 1003 272 1063 l 197 1003 q 235 1117 203 1078 q 313 1157 267 1157 q 426 1124 358 1157 q 531 1092 494 1092 q 589 1149 578 1092 z "},"Ộ":{"ha":1126,"x_min":76,"x_max":1051,"o":"m 213 844 q 278 914 213 844 q 564 983 344 983 q 915 844 783 983 q 1051 485 1047 706 q 915 125 1047 264 q 564 -14 783 -14 q 213 125 344 -14 q 76 485 81 264 q 213 844 81 706 m 203 485 q 203 402 203 485 q 299 212 203 319 q 563 104 396 104 q 828 212 731 104 q 925 485 925 319 q 828 758 925 650 q 563 865 731 865 q 299 758 396 865 q 203 485 203 650 m 621 1210 l 778 1039 l 668 1039 l 564 1140 l 460 1039 l 350 1039 l 507 1210 l 621 1210 m 497 -217 l 497 -83 l 631 -83 l 631 -217 l 497 -217 z "},"ộ":{"ha":844,"x_min":67,"x_max":778,"o":"m 67 354 q 67 437 67 354 q 164 621 67 519 q 422 722 261 722 q 680 621 582 722 q 778 354 778 519 q 680 88 778 189 q 422 -14 582 -14 q 164 88 261 -14 q 67 354 67 189 m 262 165 q 296 133 262 165 q 422 101 331 101 q 583 165 514 101 q 651 355 651 228 q 583 544 651 482 q 422 607 514 607 q 262 544 331 607 q 193 355 193 482 q 262 165 193 228 m 479 974 l 636 803 l 526 803 l 422 904 l 318 803 l 208 803 l 365 974 l 479 974 m 356 -229 l 356 -96 l 489 -96 l 489 -229 l 356 -229 z "},"Ớ":{"ha":1219,"x_min":76,"x_max":1204,"o":"m 1054 976 l 1204 976 l 1204 829 q 1165 648 1204 713 q 1044 561 1126 583 q 1051 485 1049 536 q 915 125 1047 264 q 564 -14 783 -14 q 213 125 344 -14 q 76 485 81 264 q 213 844 81 706 q 564 983 344 983 q 869 885 746 983 q 1033 622 993 788 q 1110 685 1089 639 q 1132 824 1132 731 l 1054 824 l 1054 976 m 203 485 q 203 402 203 485 q 299 212 203 319 q 563 104 396 104 q 828 212 731 104 q 925 485 925 319 q 828 758 925 650 q 563 865 731 865 q 299 758 396 865 q 203 485 203 650 m 590 1226 l 728 1226 l 571 1042 l 485 1042 l 590 1226 z "},"ớ":{"ha":956,"x_min":67,"x_max":943,"o":"m 67 354 q 67 437 67 354 q 164 621 67 519 q 417 722 261 722 q 670 630 574 722 q 776 385 767 538 q 851 431 831 393 q 871 560 871 469 l 793 560 l 793 713 l 943 713 l 943 565 q 903 392 943 447 q 776 326 863 336 q 672 79 768 172 q 418 -14 575 -14 q 164 88 261 -14 q 67 354 67 189 m 262 165 q 296 133 262 165 q 422 101 331 101 q 583 165 514 101 q 651 355 651 228 q 583 544 651 482 q 422 607 514 607 q 262 544 331 607 q 193 355 193 482 q 262 165 193 228 m 451 988 l 589 988 l 432 803 l 346 803 l 451 988 z "},"Ờ":{"ha":1219,"x_min":76,"x_max":1204,"o":"m 1054 976 l 1204 976 l 1204 829 q 1165 648 1204 713 q 1044 561 1126 583 q 1051 485 1049 536 q 915 125 1047 264 q 564 -14 783 -14 q 213 125 344 -14 q 76 485 81 264 q 213 844 81 706 q 564 983 344 983 q 869 885 746 983 q 1033 622 993 788 q 1110 685 1089 639 q 1132 824 1132 731 l 1054 824 l 1054 976 m 203 485 q 203 402 203 485 q 299 212 203 319 q 563 104 396 104 q 828 212 731 104 q 925 485 925 319 q 828 758 925 650 q 563 865 731 865 q 299 758 396 865 q 203 485 203 650 m 400 1226 l 538 1226 l 643 1042 l 557 1042 l 400 1226 z "},"ờ":{"ha":956,"x_min":67,"x_max":943,"o":"m 67 354 q 67 437 67 354 q 164 621 67 519 q 417 722 261 722 q 670 630 574 722 q 776 385 767 538 q 851 431 831 393 q 871 560 871 469 l 793 560 l 793 713 l 943 713 l 943 565 q 903 392 943 447 q 776 326 863 336 q 672 79 768 172 q 418 -14 575 -14 q 164 88 261 -14 q 67 354 67 189 m 262 165 q 296 133 262 165 q 422 101 331 101 q 583 165 514 101 q 651 355 651 228 q 583 544 651 482 q 422 607 514 607 q 262 544 331 607 q 193 355 193 482 q 262 165 193 228 m 256 988 l 393 988 l 499 803 l 413 803 l 256 988 z "},"Ở":{"ha":1219,"x_min":76,"x_max":1204,"o":"m 1054 976 l 1204 976 l 1204 829 q 1165 648 1204 713 q 1044 561 1126 583 q 1051 485 1049 536 q 915 125 1047 264 q 564 -14 783 -14 q 213 125 344 -14 q 76 485 81 264 q 213 844 81 706 q 564 983 344 983 q 869 885 746 983 q 1033 622 993 788 q 1110 685 1089 639 q 1132 824 1132 731 l 1054 824 l 1054 976 m 203 485 q 203 402 203 485 q 299 212 203 319 q 563 104 396 104 q 828 212 731 104 q 925 485 925 319 q 828 758 925 650 q 563 865 731 865 q 299 758 396 865 q 203 485 203 650 m 531 1281 q 690 1171 690 1281 q 586 1071 690 1092 l 586 1046 l 511 1046 l 511 1108 q 572 1123 540 1110 q 604 1164 604 1136 q 510 1214 604 1214 q 474 1213 486 1214 l 474 1276 q 531 1281 497 1281 z "},"ở":{"ha":956,"x_min":67,"x_max":943,"o":"m 67 354 q 67 437 67 354 q 164 621 67 519 q 417 722 261 722 q 670 630 574 722 q 776 385 767 538 q 851 431 831 393 q 871 560 871 469 l 793 560 l 793 713 l 943 713 l 943 565 q 903 392 943 447 q 776 326 863 336 q 672 79 768 172 q 418 -14 575 -14 q 164 88 261 -14 q 67 354 67 189 m 262 165 q 296 133 262 165 q 422 101 331 101 q 583 165 514 101 q 651 355 651 228 q 583 544 651 482 q 422 607 514 607 q 262 544 331 607 q 193 355 193 482 q 262 165 193 228 m 400 1038 q 560 928 560 1038 q 456 828 560 849 l 456 803 l 381 803 l 381 865 q 442 880 410 867 q 474 921 474 893 q 379 971 474 971 q 343 969 356 971 l 343 1033 q 400 1038 367 1038 z "},"Ỡ":{"ha":1219,"x_min":76,"x_max":1204,"o":"m 1054 976 l 1204 976 l 1204 829 q 1165 648 1204 713 q 1044 561 1126 583 q 1051 485 1049 536 q 915 125 1047 264 q 564 -14 783 -14 q 213 125 344 -14 q 76 485 81 264 q 213 844 81 706 q 564 983 344 983 q 869 885 746 983 q 1033 622 993 788 q 1110 685 1089 639 q 1132 824 1132 731 l 1054 824 l 1054 976 m 203 485 q 203 402 203 485 q 299 212 203 319 q 563 104 396 104 q 828 212 731 104 q 925 485 925 319 q 828 758 925 650 q 563 865 731 865 q 299 758 396 865 q 203 485 203 650 m 728 1188 l 790 1188 q 752 1074 785 1113 q 674 1035 719 1035 q 560 1068 629 1035 q 457 1101 492 1101 q 397 1042 411 1101 l 336 1042 q 374 1156 342 1117 q 451 1196 406 1196 q 565 1163 497 1196 q 669 1131 633 1131 q 728 1188 717 1131 z "},"ỡ":{"ha":956,"x_min":67,"x_max":943,"o":"m 67 354 q 67 437 67 354 q 164 621 67 519 q 417 722 261 722 q 670 630 574 722 q 776 385 767 538 q 851 431 831 393 q 871 560 871 469 l 793 560 l 793 713 l 943 713 l 943 565 q 903 392 943 447 q 776 326 863 336 q 672 79 768 172 q 418 -14 575 -14 q 164 88 261 -14 q 67 354 67 189 m 262 165 q 296 133 262 165 q 422 101 331 101 q 583 165 514 101 q 651 355 651 228 q 583 544 651 482 q 422 607 514 607 q 262 544 331 607 q 193 355 193 482 q 262 165 193 228 m 589 949 l 651 949 q 613 835 646 874 q 535 796 581 796 q 422 829 490 796 q 318 863 353 863 q 258 803 272 863 l 197 803 q 235 917 203 878 q 313 957 267 957 q 426 924 358 957 q 531 892 494 892 q 589 949 578 892 z "},"Ợ":{"ha":1219,"x_min":76,"x_max":1204,"o":"m 1054 976 l 1204 976 l 1204 829 q 1165 648 1204 713 q 1044 561 1126 583 q 1051 485 1049 536 q 915 125 1047 264 q 564 -14 783 -14 q 213 125 344 -14 q 76 485 81 264 q 213 844 81 706 q 564 983 344 983 q 869 885 746 983 q 1033 622 993 788 q 1110 685 1089 639 q 1132 824 1132 731 l 1054 824 l 1054 976 m 203 485 q 203 402 203 485 q 299 212 203 319 q 563 104 396 104 q 828 212 731 104 q 925 485 925 319 q 828 758 925 650 q 563 865 731 865 q 299 758 396 865 q 203 485 203 650 m 497 -229 l 497 -96 l 631 -96 l 631 -229 l 497 -229 z "},"ợ":{"ha":956,"x_min":67,"x_max":943,"o":"m 67 354 q 67 437 67 354 q 164 621 67 519 q 417 722 261 722 q 670 630 574 722 q 776 385 767 538 q 851 431 831 393 q 871 560 871 469 l 793 560 l 793 713 l 943 713 l 943 565 q 903 392 943 447 q 776 326 863 336 q 672 79 768 172 q 418 -14 575 -14 q 164 88 261 -14 q 67 354 67 189 m 262 165 q 296 133 262 165 q 422 101 331 101 q 583 165 514 101 q 651 355 651 228 q 583 544 651 482 q 422 607 514 607 q 262 544 331 607 q 193 355 193 482 q 262 165 193 228 m 356 -229 l 356 -96 l 489 -96 l 489 -229 l 356 -229 z "},"Ụ":{"ha":1053,"x_min":128,"x_max":925,"o":"m 799 969 l 925 969 l 925 364 q 890 195 925 269 q 795 76 854 121 q 667 9 736 32 q 526 -14 599 -14 q 385 9 454 -14 q 258 76 317 32 q 163 195 199 121 q 128 364 128 269 l 128 969 l 254 969 l 254 360 q 335 169 254 238 q 526 101 415 101 q 718 169 638 101 q 799 360 799 238 l 799 969 m 460 -229 l 460 -96 l 593 -96 l 593 -229 l 460 -229 z "},"ụ":{"ha":847,"x_min":104,"x_max":738,"o":"m 353 -14 q 171 64 238 -14 q 104 258 104 142 l 104 708 l 231 708 l 231 272 q 383 103 231 103 q 611 236 504 103 l 611 708 l 738 708 l 738 0 l 626 0 l 611 89 l 611 110 l 608 110 q 353 -14 496 -14 m 367 -229 l 367 -96 l 500 -96 l 500 -229 l 367 -229 z "},"Ủ":{"ha":1053,"x_min":128,"x_max":925,"o":"m 799 969 l 925 969 l 925 364 q 890 195 925 269 q 795 76 854 121 q 667 9 736 32 q 526 -14 599 -14 q 385 9 454 -14 q 258 76 317 32 q 163 195 199 121 q 128 364 128 269 l 128 969 l 254 969 l 254 360 q 335 169 254 238 q 526 101 415 101 q 718 169 638 101 q 799 360 799 238 l 799 969 m 489 1281 q 649 1171 649 1281 q 544 1071 649 1092 l 544 1046 l 469 1046 l 469 1108 q 531 1123 499 1110 q 563 1164 563 1136 q 468 1214 563 1214 q 432 1213 444 1214 l 432 1276 q 489 1281 456 1281 z "},"ủ":{"ha":847,"x_min":104,"x_max":738,"o":"m 353 -14 q 171 64 238 -14 q 104 258 104 142 l 104 708 l 231 708 l 231 272 q 383 103 231 103 q 611 236 504 103 l 611 708 l 738 708 l 738 0 l 626 0 l 611 89 l 611 110 l 608 110 q 353 -14 496 -14 m 369 1038 q 529 928 529 1038 q 425 828 529 849 l 425 803 l 350 803 l 350 865 q 411 880 379 867 q 443 921 443 893 q 349 971 443 971 q 313 969 325 971 l 313 1033 q 369 1038 336 1038 z "},"Ứ":{"ha":1171,"x_min":128,"x_max":1171,"o":"m 799 969 l 925 969 l 925 614 q 1063 659 1026 617 q 1099 817 1099 701 l 1021 817 l 1021 969 l 1171 969 l 1171 822 q 1113 619 1171 681 q 925 553 1054 557 l 925 364 q 890 195 925 269 q 795 76 854 121 q 667 9 736 32 q 526 -14 599 -14 q 385 9 454 -14 q 258 76 317 32 q 163 195 199 121 q 128 364 128 269 l 128 969 l 254 969 l 254 360 q 335 169 254 238 q 526 101 415 101 q 718 169 638 101 q 799 360 799 238 l 799 969 m 544 1226 l 682 1226 l 525 1042 l 439 1042 l 544 1226 z "},"ứ":{"ha":976,"x_min":104,"x_max":971,"o":"m 353 -14 q 171 64 238 -14 q 104 258 104 142 l 104 708 l 231 708 l 231 272 q 383 103 231 103 q 611 236 504 103 l 611 708 l 738 708 l 738 353 q 865 401 832 358 q 899 556 899 443 l 821 556 l 821 708 l 971 708 l 971 561 q 915 361 971 422 q 738 293 860 300 l 738 0 l 626 0 l 611 89 l 611 110 l 608 110 q 353 -14 497 -14 m 450 988 l 588 988 l 431 803 l 344 803 l 450 988 z "},"Ừ":{"ha":1171,"x_min":128,"x_max":1171,"o":"m 799 969 l 925 969 l 925 614 q 1063 659 1026 617 q 1099 817 1099 701 l 1021 817 l 1021 969 l 1171 969 l 1171 822 q 1113 619 1171 681 q 925 553 1054 557 l 925 364 q 890 195 925 269 q 795 76 854 121 q 667 9 736 32 q 526 -14 599 -14 q 385 9 454 -14 q 258 76 317 32 q 163 195 199 121 q 128 364 128 269 l 128 969 l 254 969 l 254 360 q 335 169 254 238 q 526 101 415 101 q 718 169 638 101 q 799 360 799 238 l 799 969 m 371 1226 l 508 1226 l 614 1042 l 528 1042 l 371 1226 z "},"ừ":{"ha":976,"x_min":104,"x_max":971,"o":"m 353 -14 q 171 64 238 -14 q 104 258 104 142 l 104 708 l 231 708 l 231 272 q 383 103 231 103 q 611 236 504 103 l 611 708 l 738 708 l 738 353 q 865 401 832 358 q 899 556 899 443 l 821 556 l 821 708 l 971 708 l 971 561 q 915 361 971 422 q 738 293 860 300 l 738 0 l 626 0 l 611 89 l 611 110 l 608 110 q 353 -14 497 -14 m 254 988 l 392 988 l 497 803 l 411 803 l 254 988 z "},"Ử":{"ha":1171,"x_min":128,"x_max":1171,"o":"m 799 969 l 925 969 l 925 614 q 1063 659 1026 617 q 1099 817 1099 701 l 1021 817 l 1021 969 l 1171 969 l 1171 822 q 1113 619 1171 681 q 925 553 1054 557 l 925 364 q 890 195 925 269 q 795 76 854 121 q 667 9 736 32 q 526 -14 599 -14 q 385 9 454 -14 q 258 76 317 32 q 163 195 199 121 q 128 364 128 269 l 128 969 l 254 969 l 254 360 q 335 169 254 238 q 526 101 415 101 q 718 169 638 101 q 799 360 799 238 l 799 969 m 489 1281 q 649 1171 649 1281 q 544 1071 649 1092 l 544 1046 l 469 1046 l 469 1108 q 531 1123 499 1110 q 563 1164 563 1136 q 468 1214 563 1214 q 432 1213 444 1214 l 432 1276 q 489 1281 456 1281 z "},"ử":{"ha":976,"x_min":104,"x_max":971,"o":"m 353 -14 q 171 64 238 -14 q 104 258 104 142 l 104 708 l 231 708 l 231 272 q 383 103 231 103 q 611 236 504 103 l 611 708 l 738 708 l 738 353 q 865 401 832 358 q 899 556 899 443 l 821 556 l 821 708 l 971 708 l 971 561 q 915 361 971 422 q 738 293 860 300 l 738 0 l 626 0 l 611 89 l 611 110 l 608 110 q 353 -14 497 -14 m 369 1038 q 529 928 529 1038 q 425 828 529 849 l 425 803 l 350 803 l 350 865 q 411 880 379 867 q 443 921 443 893 q 349 971 443 971 q 313 969 325 971 l 313 1033 q 369 1038 336 1038 z "},"Ữ":{"ha":1171,"x_min":128,"x_max":1171,"o":"m 799 969 l 925 969 l 925 614 q 1063 659 1026 617 q 1099 817 1099 701 l 1021 817 l 1021 969 l 1171 969 l 1171 822 q 1113 619 1171 681 q 925 553 1054 557 l 925 364 q 890 195 925 269 q 795 76 854 121 q 667 9 736 32 q 526 -14 599 -14 q 385 9 454 -14 q 258 76 317 32 q 163 195 199 121 q 128 364 128 269 l 128 969 l 254 969 l 254 360 q 335 169 254 238 q 526 101 415 101 q 718 169 638 101 q 799 360 799 238 l 799 969 m 696 1188 l 758 1188 q 720 1074 753 1113 q 642 1035 688 1035 q 528 1068 597 1035 q 425 1101 460 1101 q 365 1042 379 1101 l 304 1042 q 342 1156 310 1117 q 419 1196 375 1196 q 532 1163 464 1196 q 638 1131 600 1131 q 696 1188 685 1131 z "},"ữ":{"ha":976,"x_min":104,"x_max":971,"o":"m 353 -14 q 171 64 238 -14 q 104 258 104 142 l 104 708 l 231 708 l 231 272 q 383 103 231 103 q 611 236 504 103 l 611 708 l 738 708 l 738 353 q 865 401 832 358 q 899 556 899 443 l 821 556 l 821 708 l 971 708 l 971 561 q 915 361 971 422 q 738 293 860 300 l 738 0 l 626 0 l 611 89 l 611 110 l 608 110 q 353 -14 497 -14 m 582 949 l 644 949 q 606 835 639 874 q 528 796 574 796 q 415 829 483 796 q 311 863 346 863 q 251 803 265 863 l 190 803 q 228 917 196 878 q 306 957 261 957 q 419 924 351 957 q 524 892 488 892 q 582 949 571 892 z "},"Ự":{"ha":1171,"x_min":128,"x_max":1171,"o":"m 799 969 l 925 969 l 925 614 q 1063 659 1026 617 q 1099 817 1099 701 l 1021 817 l 1021 969 l 1171 969 l 1171 822 q 1113 619 1171 681 q 925 553 1054 557 l 925 364 q 890 195 925 269 q 795 76 854 121 q 667 9 736 32 q 526 -14 599 -14 q 385 9 454 -14 q 258 76 317 32 q 163 195 199 121 q 128 364 128 269 l 128 969 l 254 969 l 254 360 q 335 169 254 238 q 526 101 415 101 q 718 169 638 101 q 799 360 799 238 l 799 969 m 460 -229 l 460 -96 l 593 -96 l 593 -229 l 460 -229 z "},"ự":{"ha":976,"x_min":104,"x_max":971,"o":"m 353 -14 q 171 64 238 -14 q 104 258 104 142 l 104 708 l 231 708 l 231 272 q 383 103 231 103 q 611 236 504 103 l 611 708 l 738 708 l 738 353 q 865 401 832 358 q 899 556 899 443 l 821 556 l 821 708 l 971 708 l 971 561 q 915 361 971 422 q 738 293 860 300 l 738 0 l 626 0 l 611 89 l 611 110 l 608 110 q 353 -14 497 -14 m 367 -229 l 367 -96 l 500 -96 l 500 -229 l 367 -229 z "},"Ỳ":{"ha":896,"x_min":-10,"x_max":906,"o":"m 751 969 l 906 969 l 511 410 l 511 0 l 385 0 l 385 410 l -10 969 l 144 969 l 444 526 l 451 526 l 751 969 m 279 1226 l 417 1226 l 522 1042 l 436 1042 l 279 1226 z "},"ỳ":{"ha":740,"x_min":7,"x_max":735,"o":"m 735 708 l 308 -319 l 181 -319 l 300 -11 l 7 708 l 143 708 l 365 149 l 371 149 l 599 708 l 735 708 m 206 988 l 343 988 l 449 803 l 363 803 l 206 988 z "},"Ỵ":{"ha":893,"x_min":-11,"x_max":904,"o":"m 750 969 l 904 969 l 510 410 l 510 0 l 383 0 l 383 410 l -11 969 l 143 969 l 443 526 l 450 526 l 750 969 m 381 -217 l 381 -83 l 514 -83 l 514 -217 l 381 -217 z "},"ỵ":{"ha":740,"x_min":7,"x_max":735,"o":"m 735 708 l 308 -319 l 181 -319 l 300 -11 l 7 708 l 143 708 l 365 149 l 371 149 l 599 708 l 735 708 m 524 -217 l 524 -83 l 657 -83 l 657 -217 l 524 -217 z "},"Ỷ":{"ha":896,"x_min":-10,"x_max":906,"o":"m 751 969 l 906 969 l 511 410 l 511 0 l 385 0 l 385 410 l -10 969 l 144 969 l 444 526 l 451 526 l 751 969 m 421 1281 q 581 1171 581 1281 q 476 1071 581 1092 l 476 1046 l 401 1046 l 401 1108 q 463 1123 431 1110 q 494 1164 494 1136 q 400 1214 494 1214 q 364 1213 376 1214 l 364 1276 q 421 1281 388 1281 z "},"ỷ":{"ha":740,"x_min":7,"x_max":735,"o":"m 735 708 l 308 -319 l 181 -319 l 300 -11 l 7 708 l 143 708 l 365 149 l 371 149 l 599 708 l 735 708 m 322 1038 q 482 928 482 1038 q 378 828 482 849 l 378 803 l 303 803 l 303 865 q 364 880 332 867 q 396 921 396 893 q 301 971 396 971 q 265 969 278 971 l 265 1033 q 322 1038 289 1038 z "},"Ỹ":{"ha":896,"x_min":-10,"x_max":906,"o":"m 751 969 l 906 969 l 511 410 l 511 0 l 385 0 l 385 410 l -10 969 l 144 969 l 444 526 l 451 526 l 751 969 m 617 1188 l 679 1188 q 641 1074 674 1113 q 563 1035 608 1035 q 449 1068 518 1035 q 346 1101 381 1101 q 286 1042 300 1101 l 225 1042 q 263 1156 231 1117 q 341 1196 296 1196 q 454 1163 386 1196 q 558 1131 522 1131 q 617 1188 606 1131 z "},"ỹ":{"ha":740,"x_min":7,"x_max":735,"o":"m 735 708 l 308 -319 l 181 -319 l 300 -11 l 7 708 l 143 708 l 365 149 l 371 149 l 599 708 l 735 708 m 536 949 l 599 949 q 560 835 593 874 q 483 796 528 796 q 369 829 438 796 q 265 863 300 863 q 206 803 219 863 l 144 803 q 182 917 150 878 q 260 957 214 957 q 374 924 306 957 q 478 892 442 892 q 536 949 525 892 z "},"–":{"ha":950,"x_min":103,"x_max":847,"o":"m 847 333 l 103 333 l 103 446 l 847 446 l 847 333 z "},"—":{"ha":1238,"x_min":103,"x_max":1135,"o":"m 1135 333 l 103 333 l 103 446 l 1135 446 l 1135 333 z "},"‘":{"ha":354,"x_min":99,"x_max":254,"o":"m 254 646 l 99 646 l 99 801 q 254 1028 99 963 l 254 938 q 178 801 178 896 l 254 801 l 254 646 z "},"’":{"ha":331,"x_min":101,"x_max":257,"o":"m 101 1028 l 257 1028 l 257 872 q 101 646 257 711 l 101 736 q 178 872 178 778 l 101 872 l 101 1028 z "},"‚":{"ha":361,"x_min":103,"x_max":258,"o":"m 103 156 l 258 156 l 258 0 q 103 -226 258 -161 l 103 -136 q 179 0 179 -94 l 103 0 l 103 156 z "},"“":{"ha":607,"x_min":99,"x_max":507,"o":"m 507 646 l 351 646 l 351 801 q 507 1028 351 963 l 507 938 q 431 801 431 896 l 507 801 l 507 646 m 254 646 l 99 646 l 99 801 q 254 1028 99 963 l 254 938 q 178 801 178 896 l 254 801 l 254 646 z "},"”":{"ha":583,"x_min":101,"x_max":510,"o":"m 101 1028 l 257 1028 l 257 872 q 101 646 257 711 l 101 736 q 178 872 178 778 l 101 872 l 101 1028 m 354 1028 l 510 1028 l 510 872 q 354 646 510 711 l 354 736 q 431 872 431 778 l 354 872 l 354 1028 z "},"„":{"ha":614,"x_min":103,"x_max":511,"o":"m 103 156 l 258 156 l 258 0 q 103 -226 258 -161 l 103 -136 q 179 0 179 -94 l 103 0 l 103 156 m 356 156 l 511 156 l 511 0 q 356 -226 511 -161 l 356 -136 q 432 0 432 -94 l 356 0 l 356 156 z "},"†":{"ha":701,"x_min":49,"x_max":653,"o":"m 607 676 l 653 650 l 653 613 l 606 588 l 496 588 l 378 606 l 396 488 l 378 -82 l 368 -129 l 333 -129 l 324 -82 l 306 488 l 324 606 l 206 588 l 96 588 l 49 613 l 49 650 l 94 676 l 206 676 l 324 657 l 306 775 l 306 888 l 333 935 l 368 935 l 396 888 l 396 775 l 378 657 l 496 676 l 607 676 z "},"‡":{"ha":738,"x_min":67,"x_max":671,"o":"m 624 588 l 514 588 l 396 606 l 417 403 l 396 200 l 514 218 l 624 218 l 671 193 l 671 156 l 625 129 l 514 129 l 396 149 l 414 31 l 414 -82 l 386 -129 l 351 -129 l 324 -82 l 324 31 l 342 149 l 224 129 l 113 129 l 67 156 l 67 193 l 114 218 l 224 218 l 342 200 l 319 403 l 342 606 l 224 588 l 114 588 l 67 613 l 67 650 l 113 676 l 224 676 l 342 657 l 324 775 l 324 888 l 351 935 l 386 935 l 414 888 l 414 775 l 396 657 l 514 676 l 625 676 l 671 650 l 671 613 l 624 588 z "},"•":{"ha":524,"x_min":78,"x_max":446,"o":"m 132 676 q 159 703 132 676 q 263 731 186 731 q 392 676 339 731 q 446 546 446 622 q 392 415 446 469 q 263 361 339 361 q 132 415 186 361 q 78 546 78 469 q 132 676 78 622 z "},"…":{"ha":1344,"x_min":103,"x_max":1242,"o":"m 594 0 l 594 156 l 750 156 l 750 0 l 594 0 m 1086 156 l 1242 156 l 1242 0 l 1086 0 l 1086 156 m 103 0 l 103 156 l 258 156 l 258 0 l 103 0 z "},"‰":{"ha":1508,"x_min":67,"x_max":1453,"o":"m 435 928 q 463 895 435 928 q 490 761 490 863 q 435 594 490 660 q 278 529 379 529 q 122 594 178 529 q 67 761 67 660 q 122 928 67 863 q 278 993 178 993 q 435 928 379 993 m 279 908 q 251 908 279 908 q 190 867 222 908 q 158 762 158 826 q 190 656 158 697 q 279 614 222 614 q 367 656 336 614 q 399 762 399 697 q 367 867 399 826 q 279 908 336 908 m 750 438 q 801 438 750 438 q 907 373 851 438 q 963 206 963 308 q 907 40 963 104 q 750 -25 851 -25 q 593 40 649 -25 q 538 207 538 106 q 593 373 538 308 q 750 438 649 438 m 750 354 q 722 354 750 354 q 662 313 693 354 q 631 206 631 271 q 662 100 631 142 q 750 58 693 58 q 839 100 807 58 q 871 206 871 142 q 839 313 871 271 q 750 354 807 354 m 1397 373 q 1425 341 1397 373 q 1453 207 1453 308 q 1397 40 1453 106 q 1240 -25 1342 -25 q 1083 40 1139 -25 q 1028 206 1028 104 q 1083 373 1028 308 q 1240 438 1139 438 q 1397 373 1342 438 m 1240 354 q 1212 354 1240 354 q 1151 313 1183 354 q 1119 206 1119 271 q 1151 100 1119 142 q 1240 58 1183 58 q 1328 100 1297 58 q 1360 206 1360 142 q 1328 313 1360 271 q 1240 354 1297 354 m 767 974 l 875 974 l 263 -6 l 154 -6 l 767 974 z "},"‹":{"ha":524,"x_min":51,"x_max":454,"o":"m 454 665 l 186 354 l 454 44 l 310 44 l 51 354 l 310 665 l 454 665 z "},"›":{"ha":524,"x_min":69,"x_max":472,"o":"m 338 354 l 69 665 l 214 665 l 472 354 l 214 44 l 69 44 l 338 354 z "},"⁄":{"ha":278,"x_min":-222,"x_max":499,"o":"m 499 986 l -111 -19 l -222 -19 l 388 986 l 499 986 z "},"⁰":{"ha":514,"x_min":42,"x_max":472,"o":"m 42 899 q 42 965 42 899 q 98 1106 42 1031 q 256 1181 154 1181 q 415 1106 358 1181 q 472 899 472 1031 q 415 693 472 768 q 256 618 358 618 q 98 693 154 618 q 42 899 42 768 m 131 899 q 131 849 131 899 q 165 749 131 800 q 256 697 199 697 q 348 749 314 697 q 382 899 382 800 q 348 1049 382 997 q 256 1101 314 1101 q 165 1049 199 1101 q 131 899 131 997 z "},"⁴":{"ha":514,"x_min":32,"x_max":475,"o":"m 390 842 l 475 842 l 475 760 l 390 760 l 390 626 l 301 626 l 301 760 l 32 760 l 32 838 l 293 1172 l 390 1172 l 390 842 m 301 842 l 301 1060 l 299 1060 l 133 844 l 133 842 l 301 842 z "},"⁵":{"ha":514,"x_min":63,"x_max":461,"o":"m 275 979 q 414 927 367 979 q 461 795 461 875 q 404 667 461 715 q 243 618 347 618 q 65 674 139 618 l 65 769 l 69 769 q 228 704 147 704 q 341 728 310 704 q 372 801 372 753 q 340 872 372 850 q 267 894 307 894 q 133 847 185 894 l 63 879 l 106 1172 l 425 1172 l 425 1089 l 181 1089 l 163 957 l 167 957 q 275 979 211 979 z "},"⁶":{"ha":514,"x_min":54,"x_max":468,"o":"m 144 939 q 283 988 199 988 q 418 934 368 988 q 468 801 468 881 q 415 670 468 722 q 271 618 361 618 q 54 899 54 618 q 115 1101 54 1022 q 283 1181 176 1181 q 433 1138 365 1181 l 433 1049 l 428 1049 q 296 1093 364 1093 q 188 1051 228 1093 q 142 939 149 1008 l 144 939 m 144 849 q 185 733 153 764 q 269 703 218 703 q 349 732 319 703 q 378 801 378 761 q 353 873 378 842 q 275 904 329 904 q 144 849 192 904 z "},"⁷":{"ha":514,"x_min":61,"x_max":456,"o":"m 61 1172 l 456 1172 l 456 1099 l 226 626 l 124 626 l 350 1081 l 350 1086 l 61 1086 l 61 1172 z "},"⁸":{"ha":514,"x_min":44,"x_max":468,"o":"m 443 1032 q 374 918 443 956 l 374 915 q 468 775 468 874 q 416 665 468 713 q 256 618 364 618 q 96 665 147 618 q 44 775 44 713 q 138 917 44 876 l 138 919 q 69 1032 69 957 q 115 1135 69 1089 q 256 1181 161 1181 q 397 1135 351 1181 q 443 1032 443 1089 m 162 726 q 177 711 162 726 q 256 697 192 697 q 350 726 319 697 q 381 792 381 754 q 344 854 381 829 q 256 879 308 879 q 168 854 204 879 q 132 792 132 829 q 162 726 132 754 m 356 1028 q 356 1043 356 1028 q 330 1079 356 1058 q 256 1100 304 1100 q 183 1079 208 1100 q 157 1028 157 1058 q 181 975 157 997 q 256 953 204 953 q 331 975 307 953 q 356 1028 356 997 z "},"⁹":{"ha":514,"x_min":46,"x_max":460,"o":"m 369 860 q 231 811 315 811 q 96 865 146 811 q 46 997 46 918 q 99 1128 46 1076 q 243 1181 153 1181 q 460 900 460 1181 q 399 697 460 776 q 231 618 338 618 q 81 661 149 618 l 81 750 l 86 750 q 218 706 150 706 q 326 748 286 706 q 372 860 365 790 l 369 860 m 369 950 q 328 1065 361 1035 q 245 1096 296 1096 q 165 1067 194 1096 q 136 997 136 1038 q 160 926 136 957 q 239 894 185 894 q 369 950 322 894 z "},"⁽":{"ha":340,"x_min":82,"x_max":288,"o":"m 288 1254 l 288 1250 q 169 900 169 1090 q 288 550 169 710 l 288 546 l 194 546 q 82 900 82 703 q 194 1254 82 1097 l 288 1254 z "},"⁾":{"ha":340,"x_min":51,"x_max":257,"o":"m 51 1250 l 51 1254 l 144 1254 q 257 900 257 1097 q 144 546 257 703 l 51 546 l 51 550 q 169 900 169 710 q 51 1250 169 1090 z "},"₀":{"ha":514,"x_min":42,"x_max":472,"o":"m 42 20 q 42 86 42 20 q 98 226 42 151 q 256 301 154 301 q 415 226 358 301 q 472 20 472 151 q 415 -186 472 -111 q 256 -261 358 -261 q 98 -186 154 -261 q 42 20 42 -111 m 131 19 q 131 -30 131 19 q 165 -131 131 -79 q 256 -182 199 -182 q 348 -131 314 -182 q 382 19 382 -79 q 348 170 382 118 q 256 222 314 222 q 165 170 199 222 q 131 19 131 118 z "},"₁":{"ha":514,"x_min":117,"x_max":426,"o":"m 322 -171 l 426 -171 l 426 -253 l 117 -253 l 117 -171 l 233 -171 l 233 188 l 228 188 l 122 136 l 122 228 l 247 293 l 322 293 l 322 -171 z "},"₂":{"ha":514,"x_min":58,"x_max":447,"o":"m 252 301 q 298 301 252 301 q 395 255 343 301 q 447 147 447 208 q 408 36 447 86 q 322 -44 369 -14 q 157 -167 178 -136 l 157 -171 l 439 -171 l 439 -253 l 58 -253 l 58 -199 q 106 -95 58 -144 q 208 -14 153 -46 q 360 133 360 69 q 253 217 360 217 q 83 163 147 217 l 78 163 l 78 253 q 252 301 161 301 z "},"₃":{"ha":514,"x_min":67,"x_max":447,"o":"m 428 154 q 344 31 428 64 l 344 28 q 447 -106 447 -4 q 398 -217 447 -172 q 247 -261 349 -261 q 67 -222 144 -261 l 67 -136 l 74 -136 q 232 -175 144 -175 q 360 -103 360 -175 q 204 -17 360 -17 l 154 -17 l 154 67 l 194 67 q 342 147 342 67 q 233 217 342 217 q 79 171 146 217 l 72 171 l 72 254 q 244 301 154 301 q 381 260 335 301 q 428 154 428 219 z "},"₄":{"ha":514,"x_min":32,"x_max":475,"o":"m 390 -37 l 475 -37 l 475 -119 l 390 -119 l 390 -253 l 301 -253 l 301 -119 l 32 -119 l 32 -42 l 293 293 l 390 293 l 390 -37 m 301 -37 l 301 181 l 299 181 l 133 -35 l 133 -37 l 301 -37 z "},"₅":{"ha":514,"x_min":63,"x_max":461,"o":"m 275 100 q 414 48 367 100 q 461 -84 461 -4 q 404 -212 461 -164 q 243 -261 347 -261 q 65 -206 139 -261 l 65 -110 l 69 -110 q 228 -175 147 -175 q 341 -151 310 -175 q 372 -78 372 -126 q 340 -7 372 -29 q 267 15 307 15 q 133 -32 185 15 l 63 0 l 106 293 l 425 293 l 425 210 l 181 210 l 163 78 l 167 78 q 275 100 211 100 z "},"₆":{"ha":514,"x_min":54,"x_max":468,"o":"m 144 60 q 283 108 199 108 q 418 55 368 108 q 468 -78 468 1 q 415 -209 468 -157 q 271 -261 361 -261 q 54 19 54 -261 q 115 222 54 143 q 283 301 176 301 q 433 258 365 301 l 433 169 l 428 169 q 296 214 364 214 q 188 172 228 214 q 142 60 149 129 l 144 60 m 144 -31 q 185 -146 153 -115 q 269 -176 218 -176 q 349 -147 319 -176 q 378 -78 378 -118 q 353 -6 378 -37 q 275 25 329 25 q 144 -31 192 25 z "},"₇":{"ha":514,"x_min":63,"x_max":457,"o":"m 63 293 l 457 293 l 457 219 l 228 -253 l 125 -253 l 351 201 l 351 207 l 63 207 l 63 293 z "},"₈":{"ha":514,"x_min":46,"x_max":469,"o":"m 444 153 q 375 39 444 76 l 375 36 q 469 -104 469 -6 q 417 -214 469 -167 q 257 -261 365 -261 q 97 -214 149 -261 q 46 -104 46 -167 q 139 38 46 -3 l 139 40 q 71 153 71 78 q 117 256 71 210 q 258 301 163 301 q 399 256 353 301 q 444 153 444 210 m 163 -153 q 178 -168 163 -153 q 257 -182 193 -182 q 351 -153 321 -182 q 382 -87 382 -125 q 346 -25 382 -50 q 258 0 310 0 q 169 -25 206 0 q 133 -87 133 -50 q 163 -153 133 -125 m 357 149 q 357 164 357 149 q 331 200 357 179 q 258 221 306 221 q 184 200 210 221 q 158 149 158 179 q 182 96 158 118 q 257 74 206 74 q 333 96 308 74 q 357 149 357 118 z "},"₉":{"ha":514,"x_min":46,"x_max":460,"o":"m 369 -19 q 231 -68 315 -68 q 96 -15 146 -68 q 46 118 46 39 q 99 249 46 197 q 243 301 153 301 q 460 21 460 301 q 399 -182 460 -103 q 231 -261 338 -261 q 81 -218 149 -261 l 81 -129 l 86 -129 q 218 -174 150 -174 q 326 -131 286 -174 q 372 -19 365 -89 l 369 -19 m 369 71 q 328 186 361 156 q 245 217 296 217 q 165 188 194 217 q 136 118 136 158 q 160 47 136 78 q 239 15 185 15 q 369 71 322 15 z "},"₍":{"ha":340,"x_min":82,"x_max":288,"o":"m 288 375 l 288 371 q 169 21 169 211 q 288 -329 169 -169 l 288 -333 l 194 -333 q 82 21 82 -176 q 194 375 82 218 l 288 375 z "},"₎":{"ha":340,"x_min":53,"x_max":258,"o":"m 53 371 l 53 375 l 146 375 q 258 21 258 218 q 146 -333 258 -176 l 53 -333 l 53 -329 q 171 21 171 -169 q 53 371 171 211 z "},"₡":{"ha":961,"x_min":61,"x_max":876,"o":"m 871 768 q 768 822 824 801 l 528 108 q 560 107 539 107 q 869 201 725 107 l 876 201 l 876 76 q 547 -14 726 -14 q 488 -11 526 -14 l 443 -146 l 376 -146 l 425 0 q 333 29 378 11 l 275 -146 l 208 -146 l 278 60 q 119 232 176 122 q 61 485 61 342 q 198 848 61 713 q 547 983 335 983 q 588 982 575 983 l 633 1115 l 699 1115 l 651 975 q 746 953 707 965 l 801 1115 l 867 1115 l 804 931 q 876 893 842 915 l 876 768 l 871 768 m 318 182 l 547 863 q 281 753 375 858 q 188 485 188 649 q 318 182 188 285 m 465 117 l 710 843 q 613 860 664 856 l 374 147 q 465 117 411 128 z "},"₣":{"ha":886,"x_min":64,"x_max":825,"o":"m 825 851 l 310 851 l 310 544 l 776 544 l 776 426 l 310 426 l 310 272 l 585 272 l 585 210 l 310 210 l 310 0 l 183 0 l 183 210 l 64 210 l 64 272 l 183 272 l 183 969 l 825 969 l 825 851 z "},"₤":{"ha":839,"x_min":67,"x_max":772,"o":"m 315 164 l 350 165 q 490 137 406 165 q 624 108 575 108 q 767 154 701 108 l 772 154 l 772 31 q 621 -14 689 -14 q 474 17 553 -14 q 335 49 394 49 q 164 -14 239 49 l 88 50 q 249 335 238 185 l 67 335 l 67 397 l 246 397 q 228 476 242 422 l 67 476 l 67 539 l 207 539 q 179 697 179 633 q 272 907 179 831 q 501 983 364 983 q 744 931 639 983 l 744 806 l 738 806 q 523 861 642 861 q 355 815 404 861 q 306 708 306 769 q 339 539 306 647 l 625 539 l 625 476 l 357 476 q 372 397 368 435 l 625 397 l 625 335 l 372 335 q 315 164 365 240 z "},"₦":{"ha":1225,"x_min":69,"x_max":1156,"o":"m 1156 551 l 1035 551 l 1035 418 l 1156 418 l 1156 356 l 1035 356 l 1035 0 l 879 0 l 631 356 l 315 356 l 315 0 l 189 0 l 189 356 l 69 356 l 69 418 l 189 418 l 189 551 l 69 551 l 69 614 l 189 614 l 189 969 l 344 969 l 594 614 l 908 614 l 908 969 l 1035 969 l 1035 614 l 1156 614 l 1156 551 m 315 418 l 586 418 l 492 551 l 315 551 l 315 418 m 908 418 l 908 551 l 639 551 l 733 418 l 908 418 m 449 614 l 318 799 l 315 799 l 315 614 l 449 614 m 908 356 l 776 356 l 906 172 l 908 172 l 908 356 z "},"₧":{"ha":1507,"x_min":135,"x_max":1421,"o":"m 514 969 q 689 942 614 969 q 805 869 764 915 q 865 772 846 824 q 885 661 885 719 q 865 551 885 603 q 805 453 846 499 q 689 380 764 407 q 514 353 614 353 l 261 353 l 261 0 l 135 0 l 135 969 l 514 969 m 501 472 q 701 526 643 472 q 758 661 758 581 q 701 796 758 742 q 501 850 643 850 l 261 850 l 261 472 l 501 472 m 1421 600 l 1219 600 l 1219 181 q 1253 108 1219 122 q 1319 97 1278 97 q 1411 119 1361 97 l 1421 119 l 1421 17 q 1296 -14 1363 -14 q 1093 169 1093 -14 l 1093 600 l 961 600 l 961 608 l 1219 861 l 1219 708 l 1421 708 l 1421 600 z "},"₨":{"ha":1633,"x_min":138,"x_max":1569,"o":"m 886 119 l 886 86 q 910 6 886 42 l 910 0 l 779 0 q 760 75 760 32 l 760 97 q 733 272 760 225 q 700 325 721 297 q 551 378 657 378 l 264 378 l 264 0 l 138 0 l 138 969 l 524 969 q 807 892 713 969 q 901 688 901 814 q 856 535 901 603 q 722 438 810 468 l 722 435 q 886 119 886 392 m 515 497 q 705 544 635 497 q 775 676 775 592 q 715 806 775 761 q 508 850 654 850 l 264 850 l 264 497 l 515 497 m 1325 607 q 1281 607 1325 607 q 1194 580 1236 607 q 1151 512 1151 553 q 1194 449 1151 471 q 1299 413 1238 426 q 1422 381 1361 400 q 1526 314 1483 361 q 1569 185 1569 267 q 1499 44 1569 103 q 1291 -14 1429 -14 q 1039 49 1153 -14 l 1039 169 l 1046 169 q 1293 103 1158 103 q 1447 201 1447 103 q 1404 253 1447 233 q 1300 288 1361 274 q 1178 321 1239 301 q 1074 386 1117 340 q 1031 503 1031 432 q 1101 661 1031 600 q 1292 722 1171 722 q 1517 683 1413 722 l 1517 568 l 1507 568 q 1325 607 1414 607 z "},"₩":{"ha":1500,"x_min":68,"x_max":1433,"o":"m 1433 969 l 1317 614 l 1417 614 l 1417 551 l 1296 551 l 1253 418 l 1417 418 l 1417 356 l 1232 356 l 1117 0 l 990 0 l 876 356 l 622 356 l 511 0 l 385 0 l 268 356 l 83 356 l 83 418 l 247 418 l 204 551 l 83 551 l 83 614 l 183 614 l 68 969 l 200 969 l 311 614 l 582 614 l 696 969 l 806 969 l 917 614 l 1188 614 l 1300 969 l 1433 969 m 331 551 l 374 418 l 521 418 l 563 551 l 331 551 m 1125 418 l 1168 551 l 936 551 l 979 418 l 1125 418 m 643 418 l 857 418 l 814 551 l 685 551 l 643 418 m 1106 356 l 999 356 l 1051 189 l 1054 189 l 1106 356 m 500 356 l 393 356 l 446 189 l 449 189 l 500 356 m 794 614 l 751 751 l 749 751 l 704 614 l 794 614 z "},"₫":{"ha":742,"x_min":89,"x_max":663,"o":"m 663 867 l 663 794 l 592 794 l 592 226 l 500 226 l 488 289 l 485 289 q 328 217 424 217 q 160 288 232 217 q 89 476 89 358 q 160 665 89 593 q 327 736 232 736 q 485 664 422 736 l 488 664 l 488 794 l 360 794 l 360 867 l 488 867 l 488 943 l 592 943 l 592 867 l 663 867 m 488 382 l 488 571 q 362 642 442 642 q 238 597 282 642 q 194 476 194 553 q 238 354 194 399 q 363 310 282 310 q 488 382 443 310 m 593 49 l 106 49 l 106 133 l 593 133 l 593 49 z "},"€":{"ha":947,"x_min":65,"x_max":879,"o":"m 847 149 l 879 44 q 650 -14 775 -14 q 372 78 489 -14 q 207 318 254 169 l 65 318 l 65 419 l 185 419 q 179 483 179 461 q 185 550 179 506 l 65 550 l 65 650 l 207 650 q 372 892 254 800 q 650 983 489 983 q 879 925 775 983 l 847 819 q 654 864 761 864 q 463 806 547 864 q 339 650 379 749 l 797 650 l 768 550 l 310 550 q 306 485 306 519 q 310 419 306 450 l 729 419 l 700 318 l 339 318 q 463 163 379 221 q 653 106 547 106 q 847 149 758 106 z "},"℃":{"ha":1426,"x_min":40,"x_max":1333,"o":"m 40 794 q 40 833 40 794 q 97 928 40 872 q 231 983 153 983 q 365 928 310 983 q 421 794 421 872 q 365 659 421 715 q 231 603 310 603 q 97 659 153 603 q 40 794 40 715 m 147 710 q 165 692 147 710 q 231 675 182 675 q 314 710 279 675 q 349 793 349 744 q 314 876 349 842 q 231 911 279 911 q 147 876 182 911 q 113 793 113 842 q 147 710 113 744 m 1326 768 q 1011 863 1183 863 q 742 757 839 863 q 644 485 644 651 q 742 213 644 318 q 1011 107 839 107 q 1326 201 1183 107 l 1333 201 l 1333 76 q 1004 -14 1183 -14 q 655 122 792 -14 q 518 485 518 257 q 655 848 518 713 q 1004 983 792 983 q 1333 893 1183 983 l 1333 768 l 1326 768 z "},"℉":{"ha":1289,"x_min":42,"x_max":1231,"o":"m 42 794 q 42 833 42 794 q 98 928 42 872 q 233 983 154 983 q 367 928 311 983 q 422 794 422 872 q 367 659 422 715 q 233 603 311 603 q 98 659 154 603 q 42 794 42 715 m 149 710 q 166 692 149 710 q 232 675 183 675 q 315 710 281 675 q 350 793 350 744 q 315 876 350 842 q 232 911 281 911 q 149 876 183 911 q 114 793 114 842 q 149 710 114 744 m 575 969 l 1231 969 l 1231 851 l 701 851 l 701 544 l 1182 544 l 1182 426 l 701 426 l 701 0 l 575 0 l 575 969 z "},"ℓ":{"ha":701,"x_min":43,"x_max":656,"o":"m 589 168 l 656 107 q 406 -14 558 -14 q 244 46 299 -14 q 185 213 190 106 q 78 158 126 179 l 64 153 l 43 219 q 182 301 104 247 l 182 722 q 247 922 182 861 q 399 983 311 983 q 540 925 488 983 q 592 778 592 867 q 296 283 592 494 l 296 264 q 350 106 296 138 q 417 90 376 90 q 589 168 519 90 m 296 736 l 296 397 l 299 397 q 489 785 489 576 q 466 850 489 821 q 403 879 443 879 q 296 736 296 879 z "},"№":{"ha":1533,"x_min":136,"x_max":1460,"o":"m 136 901 l 278 901 l 738 183 l 740 183 l 740 901 l 861 901 l 861 0 l 718 0 l 260 725 l 257 725 l 257 0 l 136 0 l 136 901 m 1385 295 q 1354 262 1385 295 q 1218 229 1322 229 q 1050 295 1114 229 q 986 469 986 361 q 1049 642 986 576 q 1217 708 1113 708 q 1385 643 1322 708 q 1449 469 1449 578 q 1385 295 1449 361 m 1303 578 q 1285 596 1303 578 q 1218 614 1267 614 q 1133 578 1169 614 q 1096 470 1096 543 q 1133 360 1096 397 q 1218 324 1169 324 q 1303 360 1267 324 q 1340 470 1340 397 q 1303 578 1340 543 m 975 122 l 1460 122 l 1460 26 l 975 26 l 975 122 z "},"℗":{"ha":1138,"x_min":71,"x_max":1068,"o":"m 217 838 q 291 910 217 838 q 569 983 364 983 q 922 838 775 983 q 1068 485 1068 692 q 922 132 1068 278 q 569 -14 775 -14 q 217 132 364 -14 q 71 485 71 278 q 217 838 71 692 m 143 485 q 143 398 143 485 q 268 184 143 310 q 569 58 393 58 q 870 183 744 58 q 996 485 996 308 q 870 786 996 661 q 569 911 744 911 q 268 786 393 911 q 143 485 143 661 m 610 761 q 772 708 721 761 q 824 581 824 656 q 772 454 824 507 q 610 401 721 401 l 485 401 l 485 208 l 392 208 l 392 761 l 610 761 m 603 483 q 731 581 731 483 q 603 679 731 679 l 485 679 l 485 483 l 603 483 z "},"℠":{"ha":1283,"x_min":101,"x_max":1165,"o":"m 317 897 q 284 897 317 897 q 220 877 251 897 q 189 826 189 857 q 220 777 189 794 q 297 750 251 760 q 387 726 342 740 q 463 678 432 713 q 494 581 494 644 q 437 478 494 518 q 291 439 379 439 q 108 482 203 439 l 108 568 l 115 568 q 293 522 196 522 q 378 542 349 522 q 407 592 407 563 q 376 635 407 621 q 299 660 344 650 q 209 686 254 671 q 133 735 164 701 q 101 828 101 768 q 153 933 101 888 q 292 979 206 979 q 458 951 379 979 l 458 869 l 450 869 q 317 897 383 897 m 1044 969 l 1165 969 l 1165 447 l 1076 447 l 1076 844 l 1075 844 l 908 447 l 829 447 l 661 844 l 660 844 l 660 447 l 571 447 l 571 969 l 692 969 l 867 549 l 869 549 l 1044 969 z "},"™":{"ha":1324,"x_min":86,"x_max":1197,"o":"m 86 889 l 86 969 l 519 969 l 519 889 l 346 889 l 346 447 l 258 447 l 258 889 l 86 889 m 1076 969 l 1197 969 l 1197 447 l 1108 447 l 1108 844 l 1107 844 l 940 447 l 861 447 l 693 844 l 692 844 l 692 447 l 603 447 l 603 969 l 724 969 l 899 549 l 901 549 l 1076 969 z "},"Ω":{"ha":1097,"x_min":82,"x_max":1015,"o":"m 1015 108 l 1015 0 l 650 0 l 650 104 q 797 214 725 136 q 863 332 838 258 q 888 497 888 406 q 795 751 888 646 q 549 857 703 857 q 302 751 394 857 q 210 497 210 646 q 235 332 210 406 q 300 214 260 258 q 447 104 372 136 l 447 0 l 82 0 l 82 108 l 268 108 l 268 110 q 96 513 96 251 q 149 734 96 628 q 308 912 201 840 q 549 983 414 983 q 790 912 683 983 q 949 734 896 840 q 1001 513 1001 628 q 829 110 1001 254 l 829 108 l 1015 108 z "},"℮":{"ha":1215,"x_min":71,"x_max":1156,"o":"m 1156 499 l 1156 471 l 265 471 l 265 174 q 614 21 407 21 q 819 67 724 21 q 981 196 915 114 l 1056 196 q 864 42 981 99 q 614 -14 747 -14 q 230 132 389 -14 q 71 485 71 278 q 230 838 71 692 q 612 983 389 983 q 995 841 835 983 q 1156 499 1156 699 m 961 499 l 961 796 q 613 949 822 949 q 265 796 404 949 l 265 499 l 961 499 z "},"⅐":{"ha":1306,"x_min":89,"x_max":1236,"o":"m 842 546 l 1236 546 l 1236 472 l 1007 0 l 904 0 l 1131 454 l 1131 460 l 842 460 l 842 546 m 972 986 l 363 -19 l 251 -19 l 861 986 l 972 986 m 294 513 l 399 513 l 399 431 l 89 431 l 89 513 l 206 513 l 206 871 l 200 871 l 94 819 l 94 911 l 219 976 l 294 976 l 294 513 z "},"⅓":{"ha":1306,"x_min":106,"x_max":1211,"o":"m 989 986 l 379 -19 l 268 -19 l 878 986 l 989 986 m 311 513 l 415 513 l 415 431 l 106 431 l 106 513 l 222 513 l 222 871 l 217 871 l 111 819 l 111 911 l 236 976 l 311 976 l 311 513 m 1192 407 q 1108 283 1192 317 l 1108 281 q 1211 147 1211 249 q 1162 36 1211 81 q 1010 -8 1113 -8 q 831 31 908 -8 l 831 117 l 838 117 q 996 78 908 78 q 1124 150 1124 78 q 968 236 1124 236 l 918 236 l 918 319 l 958 319 q 1106 400 1106 319 q 997 469 1106 469 q 843 424 910 469 l 836 424 l 836 507 q 1008 554 918 554 q 1145 513 1099 554 q 1192 407 1192 472 z "},"⅔":{"ha":1306,"x_min":69,"x_max":1242,"o":"m 263 985 q 309 985 263 985 q 406 938 354 985 q 458 831 458 892 q 419 719 458 769 q 333 639 381 669 q 168 517 189 547 l 168 513 l 450 513 l 450 431 l 69 431 l 69 485 q 117 588 69 539 q 219 669 164 638 q 371 817 371 753 q 265 900 371 900 q 94 846 158 900 l 89 846 l 89 936 q 263 985 172 985 m 1019 986 l 410 -19 l 299 -19 l 908 986 l 1019 986 m 1222 407 q 1139 283 1222 317 l 1139 281 q 1242 147 1242 249 q 1192 36 1242 81 q 1041 -8 1143 -8 q 861 31 939 -8 l 861 117 l 868 117 q 1026 78 939 78 q 1154 150 1154 78 q 999 236 1154 236 l 949 236 l 949 319 l 989 319 q 1136 400 1136 319 q 1028 469 1136 469 q 874 424 940 469 l 867 424 l 867 507 q 1039 554 949 554 q 1176 513 1129 554 q 1222 407 1222 472 z "},"⅕":{"ha":1306,"x_min":86,"x_max":1200,"o":"m 1014 353 q 1153 301 1106 353 q 1200 169 1200 249 q 1143 40 1200 89 q 982 -8 1086 -8 q 804 47 878 -8 l 804 143 l 808 143 q 967 78 886 78 q 1080 102 1049 78 q 1111 175 1111 126 q 1078 246 1111 224 q 1006 268 1046 268 q 872 221 924 268 l 801 253 l 844 546 l 1164 546 l 1164 463 l 919 463 l 901 331 l 906 331 q 1014 353 950 353 m 969 986 l 360 -19 l 249 -19 l 858 986 l 969 986 m 292 513 l 396 513 l 396 431 l 86 431 l 86 513 l 203 513 l 203 871 l 197 871 l 92 819 l 92 911 l 217 976 l 292 976 l 292 513 z "},"⅖":{"ha":1306,"x_min":53,"x_max":1233,"o":"m 1003 986 l 393 -19 l 282 -19 l 892 986 l 1003 986 m 247 985 q 292 985 247 985 q 390 938 338 985 q 442 831 442 892 q 403 719 442 769 q 317 639 364 669 q 151 517 172 547 l 151 513 l 433 513 l 433 431 l 53 431 l 53 485 q 100 588 53 539 q 203 669 147 638 q 354 817 354 753 q 248 900 354 900 q 78 846 142 900 l 72 846 l 72 936 q 247 985 156 985 m 1047 353 q 1186 301 1139 353 q 1233 169 1233 249 q 1176 40 1233 89 q 1015 -8 1119 -8 q 838 47 911 -8 l 838 143 l 842 143 q 1001 78 919 78 q 1113 102 1082 78 q 1144 175 1144 126 q 1112 246 1144 224 q 1039 268 1079 268 q 906 221 957 268 l 835 253 l 878 546 l 1197 546 l 1197 463 l 953 463 l 935 331 l 939 331 q 1047 353 983 353 z "},"⅗":{"ha":1306,"x_min":64,"x_max":1219,"o":"m 989 986 l 379 -19 l 268 -19 l 878 986 l 989 986 m 1033 353 q 1172 301 1125 353 q 1219 169 1219 249 q 1163 40 1219 89 q 1001 -8 1106 -8 q 824 47 897 -8 l 824 143 l 828 143 q 987 78 906 78 q 1099 102 1068 78 q 1131 175 1131 126 q 1098 246 1131 224 q 1025 268 1065 268 q 892 221 943 268 l 821 253 l 864 546 l 1183 546 l 1183 463 l 939 463 l 921 331 l 925 331 q 1033 353 969 353 m 425 838 q 342 714 425 747 l 342 711 q 444 578 444 679 q 395 467 444 511 q 244 422 346 422 q 64 461 142 422 l 64 547 l 71 547 q 229 508 142 508 q 357 581 357 508 q 201 667 357 667 l 151 667 l 151 750 l 192 750 q 339 831 339 750 q 231 900 339 900 q 76 854 143 900 l 69 854 l 69 938 q 242 985 151 985 q 378 944 332 985 q 425 838 425 903 z "},"⅘":{"ha":1306,"x_min":35,"x_max":1243,"o":"m 393 646 l 478 646 l 478 564 l 393 564 l 393 431 l 304 431 l 304 564 l 35 564 l 35 642 l 296 976 l 393 976 l 393 646 m 304 646 l 304 864 l 301 864 l 136 649 l 136 646 l 304 646 m 1013 986 l 403 -19 l 292 -19 l 901 986 l 1013 986 m 1057 353 q 1196 301 1149 353 q 1243 169 1243 249 q 1186 40 1243 89 q 1025 -8 1129 -8 q 847 47 921 -8 l 847 143 l 851 143 q 1010 78 929 78 q 1123 102 1092 78 q 1154 175 1154 126 q 1122 246 1154 224 q 1049 268 1089 268 q 915 221 967 268 l 844 253 l 888 546 l 1207 546 l 1207 463 l 963 463 l 944 331 l 949 331 q 1057 353 993 353 z "},"⅙":{"ha":1306,"x_min":90,"x_max":1196,"o":"m 872 313 q 1011 361 926 361 q 1146 308 1096 361 q 1196 175 1196 254 q 1142 44 1196 96 q 999 -8 1089 -8 q 782 272 782 -8 q 843 475 782 396 q 1011 554 904 554 q 1161 511 1093 554 l 1161 422 l 1156 422 q 1024 467 1092 467 q 916 424 956 467 q 869 313 876 382 l 872 313 m 872 222 q 913 107 881 138 q 997 76 946 76 q 1076 106 1047 76 q 1106 175 1106 135 q 1081 247 1106 215 q 1003 278 1057 278 q 872 222 919 278 m 974 986 l 364 -19 l 253 -19 l 863 986 l 974 986 m 296 513 l 400 513 l 400 431 l 90 431 l 90 513 l 207 513 l 207 871 l 201 871 l 96 819 l 96 911 l 221 976 l 296 976 l 296 513 z "},"⅚":{"ha":1306,"x_min":60,"x_max":1229,"o":"m 272 783 q 411 731 364 783 q 458 599 458 679 q 401 471 458 519 q 240 422 344 422 q 63 478 136 422 l 63 574 l 67 574 q 226 508 144 508 q 338 533 307 508 q 369 606 369 557 q 337 676 369 654 q 264 699 304 699 q 131 651 182 699 l 60 683 l 103 976 l 422 976 l 422 893 l 178 893 l 160 761 l 164 761 q 272 783 208 783 m 1007 986 l 397 -19 l 286 -19 l 896 986 l 1007 986 m 906 313 q 1044 361 960 361 q 1179 308 1129 361 q 1229 175 1229 254 q 1176 44 1229 96 q 1032 -8 1122 -8 q 815 272 815 -8 q 876 475 815 396 q 1044 554 938 554 q 1194 511 1126 554 l 1194 422 l 1189 422 q 1057 467 1125 467 q 949 424 989 467 q 903 313 910 382 l 906 313 m 906 222 q 947 107 914 138 q 1030 76 979 76 q 1110 106 1081 76 q 1139 175 1139 135 q 1115 247 1139 215 q 1036 278 1090 278 q 906 222 953 278 z "},"⅛":{"ha":1306,"x_min":94,"x_max":1222,"o":"m 978 986 l 368 -19 l 257 -19 l 867 986 l 978 986 m 300 513 l 404 513 l 404 431 l 94 431 l 94 513 l 211 513 l 211 871 l 206 871 l 100 819 l 100 911 l 225 976 l 300 976 l 300 513 m 1197 406 q 1128 292 1197 329 l 1128 289 q 1222 149 1222 247 q 1170 39 1222 86 q 1010 -8 1118 -8 q 850 39 901 -8 q 799 149 799 86 q 892 290 799 250 l 892 293 q 824 406 824 331 q 869 508 824 463 q 1010 554 915 554 q 1151 508 1106 554 q 1197 406 1197 463 m 916 99 q 931 85 916 99 q 1010 71 946 71 q 1104 99 1074 71 q 1135 165 1135 128 q 1099 228 1135 203 q 1010 253 1063 253 q 922 228 958 253 q 886 165 886 203 q 916 99 886 128 m 1110 401 q 1110 417 1110 401 q 1084 453 1110 432 q 1010 474 1058 474 q 937 453 963 474 q 911 401 911 432 q 935 349 911 371 q 1010 326 958 326 q 1085 349 1061 326 q 1110 401 1110 371 z "},"⅜":{"ha":1306,"x_min":72,"x_max":1242,"o":"m 997 986 l 388 -19 l 276 -19 l 886 986 l 997 986 m 433 838 q 350 714 433 747 l 350 711 q 453 578 453 679 q 403 467 453 511 q 252 422 354 422 q 72 461 150 422 l 72 547 l 79 547 q 238 508 150 508 q 365 581 365 508 q 210 667 365 667 l 160 667 l 160 750 l 200 750 q 347 831 347 750 q 239 900 347 900 q 85 854 151 900 l 78 854 l 78 938 q 250 985 160 985 q 387 944 340 985 q 433 838 433 903 m 1217 406 q 1147 292 1217 329 l 1147 289 q 1242 149 1242 247 q 1190 39 1242 86 q 1029 -8 1138 -8 q 869 39 921 -8 q 818 149 818 86 q 911 290 818 250 l 911 293 q 843 406 843 331 q 889 508 843 463 q 1030 554 935 554 q 1171 508 1125 554 q 1217 406 1217 463 m 935 99 q 950 85 935 99 q 1029 71 965 71 q 1124 99 1093 71 q 1154 165 1154 128 q 1118 228 1154 203 q 1030 253 1082 253 q 942 228 978 253 q 906 165 906 203 q 935 99 906 128 m 1129 401 q 1129 417 1129 401 q 1103 453 1129 432 q 1030 474 1078 474 q 956 453 982 474 q 931 401 931 432 q 954 349 931 371 q 1029 326 978 326 q 1105 349 1081 326 q 1129 401 1129 371 z "},"⅝":{"ha":1306,"x_min":65,"x_max":1250,"o":"m 278 783 q 417 731 369 783 q 464 599 464 679 q 407 471 464 519 q 246 422 350 422 q 68 478 142 422 l 68 574 l 72 574 q 231 508 150 508 q 344 533 313 508 q 375 606 375 557 q 342 676 375 654 q 269 699 310 699 q 136 651 188 699 l 65 683 l 108 976 l 428 976 l 428 893 l 183 893 l 165 761 l 169 761 q 278 783 214 783 m 1006 986 l 396 -19 l 285 -19 l 894 986 l 1006 986 m 1225 406 q 1156 292 1225 329 l 1156 289 q 1250 149 1250 247 q 1198 39 1250 86 q 1038 -8 1146 -8 q 878 39 929 -8 q 826 149 826 86 q 919 290 826 250 l 919 293 q 851 406 851 331 q 897 508 851 463 q 1038 554 943 554 q 1179 508 1133 554 q 1225 406 1225 463 m 944 99 q 959 85 944 99 q 1038 71 974 71 q 1132 99 1101 71 q 1163 165 1163 128 q 1126 228 1163 203 q 1038 253 1090 253 q 950 228 986 253 q 914 165 914 203 q 944 99 914 128 m 1138 401 q 1138 417 1138 401 q 1112 453 1138 432 q 1038 474 1086 474 q 965 453 990 474 q 939 401 939 432 q 963 349 939 371 q 1038 326 986 326 q 1113 349 1089 326 q 1138 401 1138 371 z "},"⅞":{"ha":1306,"x_min":83,"x_max":1213,"o":"m 83 976 l 478 976 l 478 903 l 249 431 l 146 431 l 372 885 l 372 890 l 83 890 l 83 976 m 968 986 l 358 -19 l 247 -19 l 857 986 l 968 986 m 1188 406 q 1118 292 1188 329 l 1118 289 q 1213 149 1213 247 q 1160 39 1213 86 q 1000 -8 1108 -8 q 840 39 892 -8 q 789 149 789 86 q 882 290 789 250 l 882 293 q 814 406 814 331 q 860 508 814 463 q 1001 554 906 554 q 1142 508 1096 554 q 1188 406 1188 463 m 906 99 q 921 85 906 99 q 1000 71 936 71 q 1094 99 1064 71 q 1125 165 1125 128 q 1089 228 1125 203 q 1001 253 1053 253 q 913 228 949 253 q 876 165 876 203 q 906 99 876 128 m 1100 401 q 1100 417 1100 401 q 1074 453 1100 432 q 1001 474 1049 474 q 927 453 953 474 q 901 401 901 432 q 925 349 901 371 q 1000 326 949 326 q 1076 349 1051 326 q 1100 401 1100 371 z "},"←":{"ha":1160,"x_min":100,"x_max":1058,"o":"m 347 747 l 347 560 l 1058 560 l 1058 449 l 347 449 l 347 261 l 100 504 l 347 747 z "},"↑":{"ha":1160,"x_min":336,"x_max":822,"o":"m 822 665 l 635 665 l 635 -46 l 524 -46 l 524 665 l 336 665 l 579 913 l 822 665 z "},"→":{"ha":1160,"x_min":100,"x_max":1058,"o":"m 811 560 l 811 747 l 1058 504 l 811 261 l 811 449 l 100 449 l 100 560 l 811 560 z "},"↓":{"ha":1160,"x_min":336,"x_max":822,"o":"m 635 201 l 822 201 l 579 -46 l 336 201 l 524 201 l 524 913 l 635 913 l 635 201 z "},"↖":{"ha":1160,"x_min":221,"x_max":939,"o":"m 568 694 l 436 561 l 939 58 l 860 -19 l 357 483 l 224 350 l 221 697 l 568 694 z "},"↗":{"ha":1160,"x_min":221,"x_max":939,"o":"m 724 561 l 592 694 l 939 697 l 936 350 l 803 483 l 300 -19 l 221 58 l 724 561 z "},"↘":{"ha":1160,"x_min":221,"x_max":939,"o":"m 592 -17 l 724 117 l 221 619 l 300 697 l 803 194 l 936 328 l 939 -19 l 592 -17 z "},"↙":{"ha":1160,"x_min":221,"x_max":939,"o":"m 436 117 l 568 -17 l 221 -19 l 224 328 l 357 194 l 860 697 l 939 619 l 436 117 z "},"∂":{"ha":951,"x_min":58,"x_max":864,"o":"m 492 1047 q 767 917 669 1047 q 864 601 864 786 q 742 154 864 322 q 393 -14 621 -14 q 238 14 306 -14 q 133 88 171 42 q 58 289 58 179 q 165 533 58 436 q 444 631 272 631 q 605 595 529 631 q 733 507 681 560 l 736 507 q 742 603 742 550 q 727 715 742 657 q 682 822 713 772 q 598 899 651 871 q 458 928 544 928 q 283 896 372 928 l 272 896 l 272 1007 q 492 1047 381 1047 m 403 97 q 535 125 476 97 q 629 200 593 153 q 718 392 692 279 q 604 489 674 451 q 454 526 535 526 q 260 466 335 526 q 185 311 185 406 q 242 157 185 217 q 403 97 299 97 z "},"∆":{"ha":1001,"x_min":46,"x_max":956,"o":"m 569 969 l 956 0 l 46 0 l 432 969 l 569 969 m 204 106 l 204 99 l 797 99 l 797 106 l 503 846 l 500 846 l 204 106 z "},"∏":{"ha":1029,"x_min":57,"x_max":972,"o":"m 972 969 l 972 850 l 817 850 l 817 -153 l 697 -153 l 697 850 l 332 850 l 332 -153 l 213 -153 l 213 850 l 57 850 l 57 969 l 972 969 z "},"∑":{"ha":876,"x_min":64,"x_max":813,"o":"m 813 849 l 222 849 l 222 846 l 613 417 l 613 408 l 222 -19 l 222 -22 l 813 -22 l 813 -143 l 64 -143 l 64 -21 l 454 413 l 64 847 l 64 969 l 813 969 l 813 849 z "},"−":{"ha":989,"x_min":108,"x_max":881,"o":"m 881 403 l 108 403 l 108 515 l 881 515 l 881 403 z "},"√":{"ha":861,"x_min":13,"x_max":864,"o":"m 643 969 l 864 969 l 864 896 l 710 896 l 424 0 l 324 0 l 146 483 l 42 443 l 13 518 l 211 596 l 368 147 l 369 147 l 643 969 z "},"∞":{"ha":1338,"x_min":90,"x_max":1247,"o":"m 879 619 q 990 635 926 635 q 1109 608 1054 635 q 1192 536 1164 581 q 1234 447 1221 492 q 1247 354 1247 401 q 1234 262 1247 307 q 1192 172 1221 217 q 1109 101 1164 128 q 967 74 1054 74 q 808 126 879 74 q 671 268 738 178 l 667 268 q 531 127 603 181 q 371 74 458 74 q 228 101 283 74 q 145 172 174 128 q 103 262 117 217 q 90 354 90 307 q 103 447 90 401 q 145 536 117 492 q 228 608 174 581 q 371 635 283 635 q 530 581 458 635 q 667 440 601 528 l 671 440 q 879 619 782 586 m 960 181 q 1004 181 960 181 q 1092 232 1047 181 q 1136 354 1136 283 q 1092 476 1136 425 q 965 528 1047 528 q 836 486 901 528 q 718 354 786 454 q 760 299 747 315 q 807 247 772 283 q 960 181 874 181 m 531 247 q 619 354 574 290 q 458 511 529 481 q 372 528 418 528 q 246 476 290 528 q 201 354 201 425 q 246 232 201 283 q 377 181 290 181 q 531 247 464 181 z "},"∫":{"ha":515,"x_min":17,"x_max":500,"o":"m 417 1103 q 500 1092 456 1103 l 493 990 q 431 1000 467 1000 q 375 985 396 1000 q 350 921 354 969 l 285 -25 q 234 -155 279 -106 q 100 -204 189 -204 q 17 -192 60 -204 l 22 -92 q 88 -100 56 -100 q 142 -85 121 -100 q 165 -22 163 -71 l 232 924 q 281 1054 236 1006 q 417 1103 326 1103 z "},"≈":{"ha":938,"x_min":108,"x_max":833,"o":"m 757 360 l 833 342 q 766 217 814 260 q 648 175 718 175 q 458 228 578 175 q 290 281 339 281 q 185 186 204 281 l 108 204 q 176 328 128 286 q 294 371 224 371 q 483 318 364 371 q 651 265 603 265 q 757 360 738 265 m 757 615 l 833 597 q 766 474 814 515 q 648 432 718 432 q 458 484 578 432 q 290 536 339 536 q 185 443 204 536 l 108 461 q 176 585 128 543 q 294 626 224 626 q 483 574 364 626 q 651 522 603 522 q 757 615 738 522 z "},"≠":{"ha":956,"x_min":89,"x_max":861,"o":"m 861 561 l 589 561 l 463 363 l 463 358 l 861 358 l 861 250 l 392 250 l 257 38 l 188 82 l 292 246 l 292 250 l 89 250 l 89 358 l 363 358 l 488 557 l 488 561 l 89 561 l 89 669 l 558 669 l 692 881 l 763 836 l 660 674 l 660 669 l 861 669 l 861 561 z "},"≤":{"ha":875,"x_min":88,"x_max":763,"o":"m 763 811 l 763 689 l 232 489 l 232 486 l 763 286 l 763 164 l 88 432 l 88 543 l 763 811 m 88 0 l 88 101 l 763 101 l 763 0 l 88 0 z "},"≥":{"ha":875,"x_min":113,"x_max":788,"o":"m 113 689 l 113 811 l 788 543 l 788 432 l 113 164 l 113 286 l 643 486 l 643 489 l 113 689 m 788 101 l 788 0 l 113 0 l 113 101 l 788 101 z "},"◊":{"ha":869,"x_min":49,"x_max":821,"o":"m 488 969 l 821 415 l 488 -139 l 382 -139 l 49 415 l 382 969 l 488 969 m 436 -31 l 699 415 l 436 861 l 433 861 l 171 415 l 433 -31 l 436 -31 z "},"☺":{"ha":1036,"x_min":68,"x_max":967,"o":"m 200 753 q 266 819 200 753 q 518 885 332 885 q 835 753 704 885 q 967 435 967 621 q 835 118 967 250 q 517 -14 703 -14 q 200 117 332 -14 q 68 435 68 249 q 200 753 68 621 m 136 435 q 136 357 136 435 q 248 166 136 278 q 517 54 360 54 q 787 166 675 54 q 899 435 899 278 q 787 705 899 593 q 517 817 675 817 q 248 705 360 817 q 136 435 136 593 m 710 379 l 782 379 q 688 228 763 288 q 518 168 614 168 q 348 228 422 168 q 253 379 274 288 l 325 379 q 398 277 344 317 q 518 238 451 238 q 638 277 585 238 q 710 379 690 317 m 440 539 l 336 539 l 336 643 l 440 643 l 440 539 m 699 539 l 594 539 l 594 643 l 699 643 l 699 539 z "},"☻":{"ha":1038,"x_min":69,"x_max":968,"o":"m 201 753 q 267 819 201 753 q 519 885 333 885 q 837 753 706 885 q 968 435 968 621 q 837 117 968 249 q 519 -14 706 -14 q 201 117 333 -14 q 69 435 69 249 q 201 753 69 621 m 596 643 l 596 539 l 700 539 l 700 643 l 596 643 m 338 643 l 338 539 l 442 539 l 442 643 l 338 643 m 349 228 q 386 198 349 228 q 519 168 424 168 q 690 228 615 168 q 783 379 764 288 l 711 379 q 639 277 692 317 q 519 238 586 238 q 399 277 453 238 q 326 379 346 317 l 254 379 q 349 228 275 288 z "},"ﬀ":{"ha":1075,"x_min":33,"x_max":1053,"o":"m 1043 889 q 942 907 992 907 q 865 881 893 907 q 836 785 836 854 l 836 708 l 1053 708 l 1053 600 l 836 600 l 836 0 l 710 0 l 710 600 l 289 600 l 289 0 l 163 0 l 163 600 l 33 600 l 33 708 l 163 708 l 163 789 q 224 969 163 910 q 365 1028 286 1028 q 506 993 443 1028 l 506 889 l 496 889 q 395 907 444 907 q 317 881 346 907 q 289 785 289 854 l 289 708 l 710 708 l 710 789 q 772 969 710 910 q 912 1028 833 1028 q 1053 993 990 1028 l 1053 889 l 1043 889 z "},"ﬁ":{"ha":890,"x_min":33,"x_max":781,"o":"m 649 0 l 649 600 l 289 600 l 289 0 l 163 0 l 163 600 l 33 600 l 33 708 l 163 708 l 163 789 q 224 969 163 910 q 365 1028 286 1028 q 506 993 443 1028 l 506 889 l 496 889 q 395 907 444 907 q 317 881 346 907 q 289 785 289 854 l 289 708 l 775 708 l 775 0 l 649 0 m 781 994 l 781 858 l 644 858 l 644 994 l 781 994 z "},"ﬂ":{"ha":894,"x_min":33,"x_max":774,"o":"m 496 889 q 395 907 444 907 q 317 881 346 907 q 289 785 289 854 l 289 708 l 506 708 l 506 600 l 289 600 l 289 0 l 163 0 l 163 600 l 33 600 l 33 708 l 163 708 l 163 789 q 224 969 163 910 q 365 1028 286 1028 q 506 993 443 1028 l 506 889 l 496 889 m 774 1014 l 774 0 l 647 0 l 647 1014 l 774 1014 z "},"ﬃ":{"ha":1438,"x_min":33,"x_max":1328,"o":"m 496 889 q 395 907 444 907 q 317 881 346 907 q 289 785 289 854 l 289 708 l 710 708 l 710 789 q 772 969 710 910 q 912 1028 833 1028 q 1053 993 990 1028 l 1053 889 l 1043 889 q 942 907 992 907 q 865 881 893 907 q 836 785 836 854 l 836 708 l 1322 708 l 1322 0 l 1196 0 l 1196 600 l 836 600 l 836 0 l 710 0 l 710 600 l 289 600 l 289 0 l 163 0 l 163 600 l 33 600 l 33 708 l 163 708 l 163 789 q 224 969 163 910 q 365 1028 286 1028 q 506 993 443 1028 l 506 889 l 496 889 m 1328 994 l 1328 858 l 1192 858 l 1192 994 l 1328 994 z "},"ﬄ":{"ha":1442,"x_min":33,"x_max":1321,"o":"m 1321 1028 l 1321 0 l 1194 0 l 1194 1028 l 1321 1028 m 1043 889 q 942 907 992 907 q 865 881 893 907 q 836 785 836 854 l 836 708 l 1053 708 l 1053 600 l 836 600 l 836 0 l 710 0 l 710 600 l 289 600 l 289 0 l 163 0 l 163 600 l 33 600 l 33 708 l 163 708 l 163 789 q 224 969 163 910 q 365 1028 286 1028 q 506 993 443 1028 l 506 889 l 496 889 q 395 907 444 907 q 317 881 346 907 q 289 785 289 854 l 289 708 l 710 708 l 710 789 q 772 969 710 910 q 912 1028 833 1028 q 1053 993 990 1028 l 1053 889 l 1043 889 z "},"ﬆ":{"ha":1169,"x_min":72,"x_max":1119,"o":"m 1119 600 l 918 600 l 918 181 q 950 108 918 122 q 1018 97 976 97 q 1110 119 1060 97 l 1119 119 l 1119 17 q 994 -14 1061 -14 q 792 169 792 -14 l 792 600 l 660 600 l 660 708 l 792 708 l 792 825 q 755 936 792 890 q 643 982 718 982 q 524 940 568 982 q 479 825 479 899 q 558 683 479 733 l 558 568 l 549 568 q 367 607 456 607 q 235 580 278 607 q 193 512 193 553 q 236 449 193 471 q 341 413 279 426 q 464 381 403 400 q 568 314 525 361 q 611 185 611 267 q 541 44 611 103 q 333 -14 471 -14 q 81 49 194 -14 l 81 169 l 88 169 q 335 103 200 103 q 489 201 489 103 q 446 253 489 233 q 342 288 403 274 q 219 321 281 301 q 115 386 158 340 q 72 503 72 432 q 142 661 72 600 q 343 722 213 722 q 450 713 392 722 q 413 835 413 764 q 480 1008 413 942 q 665 1075 547 1075 q 851 998 783 1075 q 918 811 918 921 l 918 708 l 1119 708 l 1119 600 z "}}}
